<?xml version="1.0" encoding="UTF-8"?>
<!-- Creator: CorelDRAW 2020 (64-Bit) -->
<svg xmlns="http://www.w3.org/2000/svg" xmlns:xlink="http://www.w3.org/1999/xlink" xmlns:xodm="http://www.corel.com/coreldraw/odm/2003" xml:space="preserve" width="121.807mm" height="118.62mm" version="1.1" style="shape-rendering:geometricPrecision; text-rendering:geometricPrecision; image-rendering:optimizeQuality; fill-rule:evenodd; clip-rule:evenodd" viewBox="0 0 10263 9995">
 <defs>
  <style type="text/css">
   <![CDATA[
    .str0 {stroke:#794721;stroke-width:111;stroke-miterlimit:10}
    .fil0 {fill:#794721;fill-rule:nonzero}
   ]]>
  </style>
 </defs>
 <g id="Layer_x0020_1">
  <metadata id="CorelCorpID_0Corel-Layer"></metadata>
  <g id="_2958201179520">
   <path class="fil0 str0" d="M7174 7774l0 0 0 0zm-2014 555c-587,0 -1140,-45 -1558,-127 -523,-102 -756,-241 -756,-449 0,-305 528,-493 1570,-557 84,-5 157,59 162,143 5,84 -59,157 -143,162 -821,50 -1163,180 -1260,247 57,37 210,108 589,173 386,66 881,102 1396,102 515,0 1011,-36 1397,-102 379,-65 532,-137 589,-173 -99,-69 -447,-200 -1286,-249 -84,-5 -148,-77 -143,-161 5,-84 77,-149 162,-143 446,26 824,80 1093,156 124,35 503,142 503,402 0,208 -233,347 -756,449 -418,82 -971,127 -1559,127z"></path>
   <path class="fil0 str0" d="M5159 9055c-854,0 -1657,-65 -2264,-182 -716,-138 -1049,-323 -1049,-582 0,-287 365,-481 1150,-612 83,-14 162,42 176,125 14,83 -42,162 -126,176 -672,112 -871,258 -893,308 33,50 241,186 889,302 577,103 1329,160 2117,160 789,0 1540,-57 2117,-160 649,-116 857,-252 890,-302 -14,-26 -129,-186 -907,-313 -84,-14 -140,-92 -126,-175 13,-83 92,-140 175,-126 795,129 1165,326 1165,618 0,258 -334,443 -1049,582 -606,117 -1410,182 -2264,182z"></path>
   <path class="fil0 str0" d="M5161 4701c-93,0 -168,75 -168,168 0,93 76,168 168,168 92,0 168,-75 168,-168 0,-93 -76,-168 -168,-168zm0 642c-261,0 -474,-212 -474,-473 0,-261 212,-474 474,-474 261,0 473,212 473,474 0,261 -212,473 -473,473z"></path>
   <path class="fil0 str0" d="M4940 7824c-72,0 -136,-50 -150,-123l-255 -1300c0,-1 0,-2 0,-3 -10,-59 -14,-120 -11,-181 0,-1 0,-2 0,-3l38 -507c0,-3 0,-5 1,-8 22,-171 98,-324 215,-433l149 -139c62,-57 159,-54 216,8 57,62 54,158 -8,216l-149 139c-63,59 -107,148 -120,245l-37 502c-2,36 0,72 6,108l254 1299c16,83 -37,163 -120,179 -10,2 -20,3 -29,3z"></path>
   <path class="fil0 str0" d="M5379 7824c-10,0 -19,-1 -29,-3 -83,-16 -137,-96 -120,-179l255 -1299c6,-35 8,-72 6,-108l-38 -502c-13,-97 -56,-186 -120,-245l-149 -139c-62,-57 -65,-154 -8,-216 57,-62 154,-65 216,-8l149 139c117,109 194,263 216,433 0,3 0,5 0,8l38 507c0,1 0,2 0,3 3,60 0,121 -11,181 0,1 0,2 0,3l-255 1300c-14,73 -78,123 -150,123z"></path>
   <path class="fil0 str0" d="M5159 9939c-1155,0 -2243,-87 -3062,-246 -406,-78 -727,-171 -954,-274 -287,-131 -426,-282 -426,-462 0,-324 419,-565 1280,-735 83,-16 163,37 179,120 16,83 -37,163 -120,179 -1022,202 -1034,433 -1034,435 0,46 192,255 1133,436 801,155 1868,240 3004,240 1137,0 2204,-85 3005,-240 941,-182 1133,-390 1133,-436 0,-82 -216,-279 -1032,-439 -83,-16 -137,-96 -120,-179 16,-83 96,-137 179,-120 860,168 1278,410 1278,739 0,180 -140,331 -426,462 -227,104 -548,196 -954,274 -819,158 -1907,246 -3063,246z"></path>
   <path class="fil0 str0" d="M5252 3238c-1511,0 -2771,-245 -3563,-450 -860,-223 -1357,-444 -1378,-454 -77,-34 -111,-125 -77,-202 35,-77 125,-111 202,-77 23,10 1995,877 4816,877 2820,0 4608,-866 4627,-874 76,-37 167,-6 204,69 37,76 6,167 -69,204 -19,9 -473,232 -1289,455 -750,206 -1960,450 -3473,450z"></path>
   <path class="fil0 str0" d="M806 1817c-40,0 -79,-15 -109,-46l-597 -611c-59,-60 -58,-157 2,-216 60,-59 157,-58 216,3l597 611c59,60 58,157 -2,216 -30,29 -68,43 -107,43z"></path>
   <path class="fil0 str0" d="M9468 1817c-38,0 -76,-14 -106,-43 -60,-58 -62,-155 -4,-216l586 -611c58,-61 155,-63 216,-4 61,58 63,155 4,216l-587 611c-30,31 -70,47 -110,47z"></path>
   <path class="fil0 str0" d="M8355 462c-25,0 -50,-6 -73,-19 -74,-40 -101,-133 -61,-207l56 -101c40,-74 133,-101 207,-61 74,40 102,133 61,207l-55 101c-28,51 -80,80 -134,80z"></path>
   <path class="fil0 str0" d="M7220 2542c-25,0 -50,-6 -73,-19 -74,-40 -101,-133 -61,-207l863 -1580c40,-74 133,-101 207,-61 74,40 101,133 61,207l-862 1580c-28,51 -81,80 -134,80z"></path>
   <path class="fil0 str0" d="M6194 460c-8,0 -18,-1 -26,-2 -83,-15 -139,-94 -124,-177l17 -99c15,-83 94,-139 177,-124 83,15 139,94 124,177l-17 99c-13,74 -78,126 -150,126z"></path>
   <path class="fil0 str0" d="M5810 2659c-8,0 -18,-1 -26,-2 -84,-15 -139,-94 -124,-177l297 -1696c15,-83 94,-139 176,-124 84,15 139,94 124,177l-297 1696c-13,74 -78,126 -150,126z"></path>
   <path class="fil0 str0" d="M1846 463c-54,0 -106,-29 -134,-80l-48 -87c-40,-74 -13,-167 61,-207 74,-40 167,-13 207,61l48 87c41,74 13,167 -61,207 -23,13 -48,19 -73,19z"></path>
   <path class="fil0 str0" d="M2599 1843c-54,0 -106,-29 -134,-80l-534 -978c-40,-74 -13,-167 61,-207 74,-40 167,-13 207,61l534 978c41,74 13,167 -61,207 -23,13 -48,19 -73,19z"></path>
   <path class="fil0 str0" d="M2971 2524c-54,0 -106,-29 -134,-80l-62 -114c-40,-74 -13,-167 61,-207 74,-40 167,-13 207,61l62 114c41,74 13,167 -60,207 -24,13 -49,19 -73,19z"></path>
   <path class="fil0 str0" d="M4124 456c-73,0 -137,-52 -150,-125l-17 -96c-15,-83 40,-162 123,-177 83,-15 162,40 177,123l18 96c15,83 -40,162 -123,178 -9,2 -19,2 -28,2z"></path>
   <path class="fil0 str0" d="M4534 2714c-72,0 -137,-52 -150,-125l-318 -1752c-15,-83 40,-162 123,-177 83,-15 163,40 178,123l318 1752c15,83 -40,162 -123,177 -9,2 -19,3 -28,3z"></path>
   <path class="fil0 str0" d="M1197 4087c-4,0 -7,0 -11,0 -84,-6 -148,-79 -142,-163l10 -141c6,-84 79,-148 163,-142 84,6 148,79 142,163l-10 141c-5,80 -73,142 -152,142z"></path>
   <path class="fil0 str0" d="M1144 4841c-3,0 -7,0 -11,0 -84,-6 -148,-79 -142,-163l10 -141c6,-84 79,-148 163,-142 84,6 147,79 141,163l-10 141c-6,80 -73,142 -152,142z"></path>
   <path class="fil0 str0" d="M870 4372c-4,0 -7,0 -11,0l-141 -10c-84,-6 -148,-79 -142,-163 6,-84 79,-148 163,-142l141 10c84,6 148,79 142,163 -6,80 -73,142 -152,142z"></path>
   <path class="fil0 str0" d="M1623 4425c-4,0 -7,0 -11,0l-141 -10c-84,-6 -148,-79 -142,-163 6,-84 79,-148 163,-142l141 10c84,6 148,79 142,163 -6,80 -73,142 -152,142z"></path>
   <path class="fil0 str0" d="M8732 5918c-3,0 -7,0 -11,0 -84,-6 -147,-79 -141,-163l10 -141c6,-84 79,-148 163,-142 84,6 148,79 142,163l-10 141c-6,80 -73,142 -152,142z"></path>
   <path class="fil0 str0" d="M8680 6672c-4,0 -7,0 -11,0 -84,-6 -147,-79 -141,-163l10 -141c6,-84 80,-148 163,-142 84,6 148,79 142,163l-10 141c-5,81 -73,142 -152,142z"></path>
   <path class="fil0 str0" d="M8405 6203c-3,0 -7,0 -11,0l-141 -10c-84,-6 -147,-79 -141,-163 6,-84 79,-148 163,-142l141 10c84,6 147,79 141,163 -6,80 -73,142 -152,142z"></path>
   <path class="fil0 str0" d="M9159 6256c-3,0 -7,0 -11,0l-141 -10c-84,-6 -147,-79 -141,-163 6,-84 79,-148 163,-141l141 10c84,6 147,79 141,163 -5,80 -72,142 -152,142z"></path>
   <path class="fil0 str0" d="M1798 5895c-84,0 -153,-68 -153,-153l0 -215c0,-84 68,-153 153,-153 84,0 153,68 153,153l0 215c0,84 -68,153 -153,153z"></path>
   <path class="fil0 str0" d="M1798 6706c-84,0 -153,-68 -153,-153l0 -215c0,-84 68,-153 153,-153 84,0 153,68 153,153l0 215c0,84 -68,153 -153,153z"></path>
   <path class="fil0 str0" d="M1500 6193l-215 0c-84,0 -153,-68 -153,-153 0,-84 68,-153 153,-153l215 0c84,0 153,68 153,153 0,84 -68,153 -153,153z"></path>
   <path class="fil0 str0" d="M2311 6193l-215 0c-84,0 -153,-68 -153,-153 0,-84 68,-153 153,-153l215 0c84,0 153,68 153,153 0,84 -68,153 -153,153z"></path>
   <path class="fil0 str0" d="M9117 4096c-84,0 -153,-68 -153,-153l0 -215c0,-84 68,-153 153,-153 84,0 153,68 153,153l0 215c0,84 -69,153 -153,153z"></path>
   <path class="fil0 str0" d="M9117 4907c-84,0 -153,-68 -153,-153l0 -215c0,-84 68,-153 153,-153 84,0 153,68 153,153l0 215c0,84 -69,153 -153,153z"></path>
   <path class="fil0 str0" d="M8818 4394l-215 0c-84,0 -153,-68 -153,-153 0,-84 68,-153 153,-153l215 0c84,0 153,68 153,153 0,84 -68,153 -153,153z"></path>
   <path class="fil0 str0" d="M9629 4394l-215 0c-84,0 -152,-68 -152,-153 0,-84 68,-153 152,-153l215 0c84,0 153,68 153,153 0,84 -68,153 -153,153z"></path>
  </g>
 </g>
</svg>
