<?xml version="1.0" encoding="UTF-8"?>
<!-- Creator: CorelDRAW 2020 (64-Bit) -->
<svg xmlns="http://www.w3.org/2000/svg" xmlns:xlink="http://www.w3.org/1999/xlink" xmlns:xodm="http://www.corel.com/coreldraw/odm/2003" xml:space="preserve" width="100.234mm" height="100.263mm" version="1.1" style="shape-rendering:geometricPrecision; text-rendering:geometricPrecision; image-rendering:optimizeQuality; fill-rule:evenodd; clip-rule:evenodd" viewBox="0 0 10023 10026">
 <defs>
  <style type="text/css">
   <![CDATA[
    .fil0 {fill:#794721;fill-rule:nonzero}
   ]]>
  </style>
 </defs>
 <g id="Layer_x0020_1">
  <metadata id="CorelCorpID_0Corel-Layer"></metadata>
  <g id="_1724604184672">
   <path class="fil0" d="M4590 7c-98,32 -179,122 -231,257 -10,25 -542,1297 -1182,2826l-1165 2780 133 132c74,73 135,132 137,132 2,0 203,-315 446,-701 243,-386 444,-703 446,-706 3,-3 72,62 155,145l150 150 -274 407c-151,224 -360,535 -465,692l-190 284 92 92 92 92 524 -614c288,-338 530,-617 536,-621 10,-6 295,268 294,282 0,3 -246,276 -547,609l-546 604 84 84c46,46 89,83 96,82 6,-1 273,-240 593,-530 319,-290 590,-533 601,-541 18,-13 31,-3 162,128 78,78 142,145 142,148 0,3 -86,79 -192,169 -105,90 -385,329 -621,530l-429 366 93 93 93 93 692 -464 692 -464 150 150c83,83 148,152 145,155 -3,3 -321,204 -709,447l-705 443 132 134c73,74 132,135 133,137 1,2 1112,-462 2471,-1032 1359,-570 2641,-1107 2849,-1194 209,-87 399,-173 425,-191 186,-133 175,-334 -29,-539 -102,-102 -167,-139 -300,-172 -106,-27 -316,-58 -449,-67 -136,-9 -136,-9 -115,-49 25,-48 30,-209 8,-315 -42,-211 -211,-609 -290,-683 -62,-58 -308,-175 -494,-235 -138,-44 -241,-63 -344,-63l-91 0 4 -59c5,-74 -20,-224 -60,-354 -64,-207 -197,-483 -257,-534 -42,-35 -270,-146 -402,-194 -173,-64 -283,-88 -406,-90l-108 -2 -5 -118c-6,-137 -35,-258 -106,-439 -64,-164 -164,-355 -202,-387 -87,-74 -482,-236 -663,-273 -100,-20 -245,-20 -300,1 -69,26 -72,25 -75,-27 -15,-279 -64,-565 -114,-672 -44,-94 -181,-230 -281,-279 -74,-36 -168,-50 -221,-33l0 0zm-330 3421c67,33 104,97 104,180 0,36 -6,79 -14,98 -18,42 -465,712 -475,712 -10,0 -309,-301 -309,-311 0,-13 336,-546 375,-596 75,-94 219,-132 319,-84l0 0zm789 779c56,37 85,96 85,172 0,101 -23,135 -308,449l-260 288 -152 -151c-84,-84 -152,-154 -152,-157 0,-3 103,-127 230,-277 282,-333 317,-360 451,-354 49,2 73,9 105,31l0 0zm703 709c111,64 127,232 33,346 -30,37 -559,497 -571,497 -3,0 -73,-68 -157,-152l-152 -152 285 -258c157,-142 302,-267 323,-278 87,-45 166,-46 239,-4zm715 742c166,45 200,259 64,398 -32,33 -601,399 -620,399 -4,0 -76,-69 -161,-154 -133,-133 -151,-155 -138,-168 23,-22 634,-430 675,-451 67,-34 118,-41 179,-25l0 0z"></path>
   <path class="fil0" d="M864 7037c-359,361 -535,545 -576,603 -126,179 -230,424 -269,638 -27,145 -24,430 5,570 44,206 135,413 254,578 122,170 335,349 531,446 530,264 1189,184 1658,-203 39,-33 290,-278 558,-546l486 -487 -1059 -1059c-582,-582 -1062,-1059 -1065,-1059 -3,0 -238,234 -522,519l0 0zm-84 1507c88,44 229,166 429,372 264,271 331,385 286,492 -31,75 -121,114 -246,106 -441,-28 -923,-700 -683,-954 55,-58 121,-63 213,-17l0 0z"></path>
  </g>
 </g>
</svg>
