<?xml version="1.0" encoding="UTF-8"?>
<!-- Creator: CorelDRAW 2020 (64-Bit) -->
<svg xmlns="http://www.w3.org/2000/svg" xmlns:xlink="http://www.w3.org/1999/xlink" xmlns:xodm="http://www.corel.com/coreldraw/odm/2003" xml:space="preserve" width="170.863mm" height="133.451mm" version="1.1" style="shape-rendering:geometricPrecision; text-rendering:geometricPrecision; image-rendering:optimizeQuality; fill-rule:evenodd; clip-rule:evenodd" viewBox="0 0 14043 10968">
 <defs>
  <style type="text/css">
   <![CDATA[
    .str0 {stroke:#794721;stroke-width:135;stroke-miterlimit:10}
    .str1 {stroke:#794721;stroke-width:135;stroke-miterlimit:10}
    .fil0 {fill:#794721;fill-rule:nonzero}
   ]]>
  </style>
 </defs>
 <g id="Layer_x0020_1">
  <metadata id="CorelCorpID_0Corel-Layer"></metadata>
  <g id="_2958060393440">
   <path class="fil0 str0" d="M7759 8666c-21,0 -41,-8 -57,-23 -33,-32 -34,-84 -2,-117l392 -408c74,-77 179,-115 289,-104 152,15 300,-38 408,-146l965 -965c32,-32 85,-32 117,0 32,32 32,85 0,117l-965 965c-142,143 -339,213 -541,194 -59,-6 -115,14 -153,54l-392 408c-16,17 -38,25 -60,25z"></path>
   <path class="fil0 str0" d="M6187 10151c-108,0 -209,-41 -284,-117 -76,-76 -118,-179 -117,-288 1,-114 48,-221 131,-301l967 -922c33,-32 85,-30 117,3 32,33 30,85 -3,117l-966 922c-51,49 -80,114 -80,184 -1,65 24,125 68,170 45,45 105,67 170,68 69,-1 135,-29 184,-81l925 -963c32,-33 84,-34 117,-2 33,32 34,84 2,117l-925 963c-80,84 -187,130 -302,131 -1,0 -3,0 -4,0z"></path>
   <path class="fil0 str0" d="M7355 8262c-22,0 -43,-8 -60,-25 -32,-33 -31,-85 2,-117l408 -392c40,-39 60,-95 54,-153 -19,-201 51,-398 194,-541l965 -965c32,-32 85,-32 117,0 32,32 32,85 0,117l-965 965c-107,107 -161,256 -146,408 11,109 -27,215 -104,289l-408 392c-16,15 -37,23 -57,23z"></path>
   <path class="fil0 str0" d="M8440 7299c-21,0 -42,-8 -58,-24 -32,-32 -32,-85 0,-117l813 -813c32,-32 85,-32 117,0 32,32 32,85 0,117l-813 813c-16,16 -37,24 -59,24z"></path>
   <path class="fil0 str0" d="M8442 7301c-21,0 -42,-8 -58,-24 -32,-32 -32,-85 0,-117l813 -813c32,-32 85,-32 117,0 32,32 32,85 0,117l-813 813c-16,16 -37,24 -59,24z"></path>
   <path class="fil0 str0" d="M8719 7578c-21,0 -42,-8 -58,-24 -32,-32 -32,-85 0,-117l813 -813c32,-32 85,-32 117,0 32,32 32,85 0,117l-813 813c-16,16 -37,24 -59,24z"></path>
   <path class="fil0 str0" d="M8721 7580c-21,0 -42,-8 -59,-24 -32,-32 -32,-85 0,-117l813 -813c32,-32 85,-32 117,0 32,32 32,85 0,117l-813 813c-16,16 -37,24 -58,24z"></path>
   <path class="fil0 str0" d="M8998 7857c-21,0 -42,-8 -59,-24l-834 -834c-32,-32 -32,-85 0,-117 32,-32 85,-32 117,0l834 834c32,32 32,85 0,117 -16,16 -37,24 -59,24z"></path>
   <g>
    <path class="fil0" d="M6544 8136c42,0 83,16 114,47l1751 1751c35,35 82,53 135,52 54,-2 105,-24 145,-64 40,-40 62,-91 64,-145 2,-52 -17,-100 -52,-135l-3399 -3399c-48,-48 -131,-44 -185,9 -34,34 -50,83 -40,128 134,612 435,1166 870,1601l341 341 135 -135c34,-34 77,-50 121,-50zm1994 2015c-94,0 -181,-35 -246,-101l-1751 -1751 -143 145c-61,61 -158,62 -217,3l-350 -350c-458,-458 -774,-1040 -915,-1682 -22,-99 11,-206 85,-280 118,-118 306,-122 419,-9l3399 3399c68,68 103,159 100,257 -3,96 -43,187 -112,257 -69,70 -161,109 -257,112 -4,0 -7,0 -11,0z"></path>
    <path id="1" class="fil0" d="M6706 8135l-95 95 0 0 -2 -2 -2 -2 -2 -2 -2 -2 -2 -1 -2 -1 -2 -1 -2 -1 -2 -1 -2 -1 -2 -1 -2 -1 -2 -1 -2 -1 -2 -1 -2 -1 -2 -1 -2 -1 -2 -1 -2 -1 -2 -1 -2 -1 -2 0 -2 0 -2 0 -2 0 -2 0 -2 0 -2 0 -2 0 -2 0 -2 0 0 -135 5 0 5 0 6 0 5 0 5 1 6 1 5 1 5 1 5 1 5 1 5 1 5 1 5 2 5 2 5 2 5 2 5 2 5 2 5 2 5 3 5 3 5 3 5 3 5 3 5 3 5 3 5 3 5 4 4 4 4 4 4 4 4 4 0 0zm1656 1846l-1751 -1751 95 -95 1751 1751 0 0 -95 95zm181 -63l4 135 -1 0 -6 0 -6 0 -6 0 -6 0 -6 -1 -6 -1 -6 -1 -6 -1 -6 -1 -6 -1 -6 -1 -6 -2 -6 -2 -6 -2 -6 -2 -6 -2 -6 -2 -6 -2 -6 -3 -6 -3 -6 -3 -6 -3 -5 -3 -5 -3 -5 -4 -5 -4 -5 -4 -5 -4 -5 -4 -5 -4 -5 -4 -5 -4 96 -95 2 2 2 2 2 2 2 2 2 2 2 2 2 2 2 2 2 1 2 1 2 1 2 1 3 1 3 1 3 1 3 1 3 1 3 1 3 1 3 1 3 1 3 1 3 1 3 1 3 0 3 0 3 0 3 0 3 0 3 0 3 0 3 0 -1 0zm4 135l-1 0 0 0 1 0zm95 -179l95 95 0 0 -5 5 -5 5 -5 4 -5 4 -5 4 -5 4 -5 4 -5 4 -5 4 -6 4 -6 3 -6 3 -6 3 -6 3 -6 3 -6 3 -6 3 -6 2 -6 2 -6 2 -6 2 -6 2 -6 2 -6 2 -7 1 -7 1 -7 1 -7 1 -7 1 -7 1 -7 0 -7 0 -4 -135 3 0 3 0 3 0 3 0 3 0 3 -1 3 -1 3 -1 3 -1 3 -1 3 -1 3 -1 3 -1 3 -1 3 -1 3 -1 3 -1 3 -2 3 -2 3 -2 3 -2 3 -2 3 -2 3 -2 3 -2 3 -2 3 -2 3 -2 3 -2 3 -2 3 -3 3 -3 0 0zm44 -99l135 4 0 0 0 7 0 7 -1 7 -1 7 -1 7 -1 7 -1 7 -1 6 -2 6 -2 6 -2 6 -2 6 -2 6 -2 6 -2 6 -3 6 -3 6 -3 6 -3 6 -3 6 -3 6 -3 6 -4 6 -4 6 -4 5 -4 5 -4 5 -4 5 -4 5 -4 5 -5 5 -5 5 -95 -95 3 -3 3 -3 2 -3 2 -3 2 -3 2 -3 2 -3 2 -3 2 -3 2 -3 2 -3 2 -3 2 -3 2 -3 2 -3 1 -3 1 -3 1 -3 1 -3 1 -3 1 -3 1 -3 1 -3 1 -3 1 -3 1 -3 1 -3 0 -3 0 -3 0 -3 0 -3 0 -3 0 0zm-32 -85l95 -95 0 0 4 5 4 5 4 5 4 5 4 5 4 5 4 5 4 5 3 5 3 5 3 6 3 6 3 6 3 6 3 6 2 6 2 6 2 6 2 6 2 6 2 6 1 6 1 6 1 6 1 6 1 6 1 6 1 6 0 6 0 6 0 6 0 6 -135 -4 0 -3 0 -3 0 -3 0 -3 0 -3 0 -3 0 -3 0 -3 -1 -3 -1 -3 -1 -3 -1 -3 -1 -3 -1 -3 -1 -3 -1 -3 -1 -3 -1 -3 -1 -3 -1 -3 -1 -3 -1 -2 -1 -2 -2 -2 -2 -2 -2 -2 -2 -2 -2 -2 -2 -2 -2 -2 -2 -2 -2 -2 0 0zm95 -95l0 0 0 0 0 0zm-3399 -3399l3399 3399 -95 95 -3399 -3399 0 0 95 -95zm-185 105l-95 -96 0 0 7 -7 8 -7 8 -6 8 -6 8 -5 8 -5 9 -5 9 -4 9 -4 9 -3 9 -3 9 -2 9 -2 9 -2 9 -1 9 -1 9 0 10 0 9 1 9 1 9 2 9 2 9 3 9 3 9 4 9 4 9 5 8 5 8 6 8 6 8 6 7 7 -96 95 -2 -2 -2 -2 -2 -2 -2 -1 -2 -1 -2 -1 -2 -1 -2 -1 -2 -1 -3 -1 -3 -1 -3 0 -3 0 -3 0 -3 0 -3 0 -3 0 -3 0 -3 1 -3 1 -3 1 -3 1 -3 1 -3 1 -3 1 -3 2 -3 2 -3 2 -3 2 -3 2 -3 3 -3 3 0 0zm-22 65l-132 29 0 0 -1 -6 -1 -6 -1 -7 -1 -6 0 -7 0 -7 0 -6 0 -6 0 -6 1 -6 1 -6 1 -6 1 -6 1 -6 2 -6 2 -6 2 -6 2 -6 2 -6 3 -6 3 -6 3 -6 3 -6 3 -6 3 -5 4 -5 4 -5 4 -5 4 -5 4 -5 4 -5 5 -5 95 96 -2 2 -2 2 -2 2 -2 2 -1 2 -1 2 -1 2 -1 2 -1 2 -1 2 -1 2 -1 2 -1 2 -1 2 -1 2 -1 2 -1 2 -1 2 -1 2 0 2 0 2 0 2 0 2 0 2 0 2 0 2 0 2 0 2 0 2 0 2 0 2 0 2 0 0zm852 1568l-95 95 0 0 -41 -42 -40 -43 -40 -43 -39 -44 -38 -45 -37 -45 -36 -46 -35 -47 -35 -47 -34 -48 -33 -48 -32 -49 -31 -50 -30 -50 -29 -51 -28 -51 -28 -52 -27 -52 -26 -53 -25 -53 -24 -54 -23 -54 -22 -55 -21 -55 -20 -56 -19 -56 -18 -56 -17 -57 -16 -57 -15 -58 -14 -58 -13 -58 132 -29 13 56 14 56 15 55 16 55 17 55 17 54 18 54 19 53 20 53 21 53 22 52 23 52 24 51 25 51 26 50 26 50 27 49 28 49 29 48 30 48 31 47 32 46 32 46 33 45 34 45 35 44 36 44 36 43 37 42 38 42 39 41 40 40 0 0zm245 436l-341 -341 95 -95 341 341 0 95 -95 0zm95 0l-48 48 -48 -48 95 0zm135 -135l-135 135 -95 -95 135 -135 0 0 95 95zm73 -166l0 135 0 0 -2 0 -2 0 -2 0 -2 0 -2 0 -2 0 -2 0 -2 0 -2 1 -2 1 -2 1 -2 1 -2 1 -2 1 -2 1 -2 1 -2 1 -2 1 -2 1 -2 1 -2 1 -2 1 -2 1 -2 1 -2 1 -2 2 -2 2 -2 2 -2 2 -2 2 -2 2 -2 2 -95 -96 4 -4 4 -4 5 -4 5 -4 5 -4 5 -4 5 -4 5 -3 5 -3 5 -3 5 -3 5 -3 5 -3 5 -3 5 -2 5 -2 5 -2 5 -2 6 -2 6 -2 6 -2 6 -1 6 -1 6 -1 6 -1 6 -1 6 -1 6 -1 6 0 6 0 6 0 6 0 0 0zm1701 2030l95 -95 0 0 5 5 5 5 5 5 5 4 5 4 5 4 5 4 6 4 6 4 6 4 6 3 6 3 6 3 6 3 6 3 6 3 6 2 6 2 6 2 7 2 7 2 7 2 7 2 7 1 7 1 7 1 7 1 7 1 7 1 7 0 7 0 7 0 0 135 -10 0 -10 0 -10 -1 -10 -1 -10 -1 -10 -1 -10 -2 -10 -2 -10 -2 -10 -2 -10 -3 -10 -3 -10 -3 -10 -3 -9 -3 -9 -4 -9 -4 -9 -4 -9 -4 -9 -5 -9 -5 -9 -5 -9 -5 -8 -5 -8 -6 -8 -6 -8 -6 -8 -6 -8 -7 -8 -7 -8 -7 -7 -7 0 0zm-1656 -1846l1751 1751 -95 95 -1751 -1751 0 -95 96 0zm-96 0l48 -49 48 48 -96 0zm-143 145l143 -145 96 95 -143 145 0 0 -96 -95zm96 95l0 0 0 0 0 0zm-313 3l95 -95 0 0 3 3 3 3 3 3 3 2 3 2 4 2 4 2 4 2 4 1 4 1 4 1 4 1 4 1 4 0 4 0 4 0 4 0 4 0 4 -1 4 -1 4 -1 4 -1 4 -1 4 -2 4 -2 4 -2 4 -2 4 -2 4 -3 4 -3 3 -3 3 -3 95 95 -8 8 -9 7 -9 7 -9 6 -9 6 -10 5 -10 5 -10 4 -10 4 -10 3 -10 3 -10 2 -10 2 -11 1 -11 1 -11 0 -11 0 -11 -1 -11 -1 -10 -2 -10 -2 -10 -3 -10 -3 -10 -4 -10 -4 -10 -5 -10 -5 -9 -6 -9 -6 -9 -7 -9 -7 -8 -8 0 0zm-255 -446l350 350 -95 95 -350 -350 95 -95 0 0zm-1029 -1620l132 -29 0 0 13 59 14 59 15 58 16 58 17 57 18 57 19 57 20 56 21 56 22 55 23 55 24 54 25 54 26 53 27 53 28 52 29 52 30 51 31 51 31 50 32 49 33 49 34 48 35 48 36 47 37 46 38 46 38 45 39 44 40 44 41 43 42 42 -95 95 -43 -44 -43 -45 -42 -46 -41 -46 -40 -47 -39 -48 -38 -48 -37 -49 -36 -50 -35 -50 -35 -51 -34 -52 -33 -52 -32 -53 -31 -53 -30 -54 -29 -54 -28 -55 -27 -55 -26 -56 -25 -56 -24 -57 -23 -57 -22 -58 -21 -58 -20 -59 -19 -59 -18 -60 -17 -60 -16 -60 -15 -61 -14 -61 0 0zm103 -342l95 95 0 0 -5 6 -5 6 -5 6 -5 6 -5 6 -4 6 -4 6 -4 6 -4 7 -4 7 -3 7 -3 7 -3 7 -3 7 -2 7 -2 7 -2 7 -2 7 -2 7 -1 7 -1 7 -1 7 -1 7 0 7 0 7 0 7 0 7 0 7 1 7 1 7 1 7 1 7 -132 29 -2 -12 -2 -12 -2 -12 -1 -12 -1 -12 0 -12 0 -12 0 -12 1 -12 1 -12 1 -11 2 -11 2 -11 2 -11 3 -11 3 -11 4 -11 4 -11 4 -11 5 -11 5 -11 5 -10 5 -10 6 -10 6 -10 6 -10 7 -10 7 -9 7 -9 8 -9 8 -9 8 -9 0 0zm514 -9l-95 95 0 0 -8 -8 -9 -7 -9 -7 -9 -6 -9 -6 -10 -5 -10 -5 -10 -4 -10 -4 -10 -3 -10 -3 -11 -2 -11 -2 -11 -1 -11 -1 -11 0 -11 1 -11 1 -11 2 -11 2 -11 3 -11 3 -11 4 -11 4 -10 5 -10 5 -10 6 -10 6 -10 7 -9 7 -9 8 -9 8 -95 -95 14 -13 14 -12 15 -11 15 -11 15 -10 16 -9 16 -8 16 -7 17 -7 17 -6 17 -5 17 -4 17 -3 17 -2 17 -2 17 -1 17 0 17 1 17 2 17 3 17 3 17 4 17 5 17 6 16 7 16 8 16 8 15 9 15 10 14 11 14 12 13 13 0 0zm3303 3494l-3399 -3399 95 -95 3399 3399 0 0 -95 95zm216 211l-135 -4 0 0 0 -8 0 -7 0 -7 0 -7 -1 -7 -1 -7 -1 -7 -1 -7 -1 -7 -1 -7 -2 -7 -2 -7 -2 -7 -2 -7 -2 -7 -2 -7 -3 -7 -3 -6 -3 -6 -3 -6 -3 -6 -3 -6 -4 -6 -4 -6 -4 -6 -4 -6 -4 -6 -4 -6 -5 -5 -5 -5 -5 -5 -5 -5 95 -95 7 8 7 8 7 8 7 8 7 8 6 8 6 9 6 9 6 9 5 9 5 9 5 9 5 9 4 9 4 10 4 10 4 10 3 10 3 10 3 10 3 10 2 10 2 10 2 10 2 10 1 11 1 11 1 11 1 11 0 11 0 11 0 11 0 0zm-132 303l-96 -95 0 0 5 -5 5 -6 5 -6 5 -6 5 -6 5 -6 4 -6 4 -6 4 -6 4 -6 4 -6 4 -6 3 -6 3 -7 3 -7 3 -7 3 -7 3 -7 3 -7 2 -7 2 -7 2 -7 2 -7 2 -7 2 -7 1 -7 1 -7 1 -7 1 -7 1 -7 0 -7 0 -7 135 4 0 11 -1 11 -1 11 -1 11 -1 10 -2 10 -2 10 -2 10 -2 10 -3 10 -3 10 -3 10 -3 10 -4 10 -4 10 -4 10 -4 10 -5 9 -5 9 -5 9 -5 9 -5 9 -6 9 -6 9 -6 9 -6 9 -7 8 -7 8 -7 8 -7 8 -7 8 -8 8 0 0zm-96 -95l0 0 0 0 0 0zm-208 228l-3 -135 -1 0 7 0 7 0 7 -1 7 -1 7 -1 7 -1 7 -1 7 -2 7 -2 7 -2 7 -2 7 -2 7 -2 7 -3 7 -3 7 -3 7 -3 7 -3 7 -3 6 -3 6 -4 6 -4 6 -4 6 -4 6 -4 6 -4 6 -5 6 -5 6 -5 6 -5 6 -5 5 -5 96 95 -8 8 -8 7 -8 7 -8 7 -8 7 -8 7 -9 6 -9 6 -9 6 -9 6 -9 5 -9 5 -9 5 -9 5 -9 5 -10 4 -10 4 -10 4 -10 4 -10 3 -10 3 -10 3 -10 3 -10 2 -10 2 -10 2 -10 2 -10 1 -11 1 -11 1 -11 1 -11 0 -1 0zm1 0l0 0 -1 0 1 0zm-13 0l0 -135 0 0 0 0 0 0 0 0 0 0 0 0 0 0 0 0 0 0 0 0 0 0 0 0 0 0 0 0 1 0 0 0 0 0 0 0 0 0 1 0 0 0 0 0 1 0 0 0 0 0 0 0 0 0 0 0 0 0 1 0 0 0 0 0 1 0 3 135 0 0 -1 0 0 0 0 0 -1 0 0 0 0 0 0 0 0 0 -1 0 0 0 0 0 -1 0 0 0 0 0 -1 0 0 0 0 0 0 0 0 0 -1 0 0 0 0 0 0 0 0 0 0 0 0 0 0 0 0 0 0 0 0 0 0 0 0 0z"></path>
   </g>
   <path class="fil0 str0" d="M6412 7848c-21,0 -42,-8 -59,-24l-802 -802c-32,-32 -32,-85 0,-117 32,-32 85,-32 117,0l802 802c32,32 32,85 0,117 -16,16 -37,24 -58,24z"></path>
   <path class="fil0 str0" d="M9931 10151l-2176 0c-46,0 -83,-37 -83,-83 0,-46 37,-83 83,-83l2176 0c46,0 83,37 83,83 0,46 -37,83 -83,83z"></path>
   <path class="fil0 str0" d="M6958 10151l-2176 0c-46,0 -83,-37 -83,-83 0,-46 37,-83 83,-83l2176 0c46,0 83,37 83,83 0,46 -37,83 -83,83z"></path>
   <path class="fil0 str1" d="M2652 10467l8929 0 0 -4565c-69,12 -138,17 -208,17 -443,0 -834,-226 -1064,-568 -230,342 -621,568 -1064,568 -443,0 -834,-226 -1064,-568 -230,342 -621,568 -1064,568 -443,0 -834,-226 -1064,-568 -230,342 -621,568 -1064,568 -443,0 -834,-226 -1064,-568 -230,342 -621,568 -1064,568 -70,0 -140,-6 -209,-17l0 4565zm9146 434l-9363 0c-120,0 -217,-97 -217,-217l0 -5072c0,-73 37,-141 98,-182 61,-40 139,-46 206,-17 109,47 222,72 339,72 467,0 847,-380 847,-847 0,-120 97,-217 217,-217 120,0 217,97 217,217 0,467 380,847 847,847 467,0 847,-380 847,-847 0,-120 97,-217 217,-217 120,0 217,97 217,217 0,467 380,847 847,847 467,0 847,-380 847,-847 0,-120 97,-217 217,-217 120,0 217,97 217,217 0,467 380,847 847,847 467,0 847,-380 847,-847 0,-120 97,-217 217,-217 120,0 217,97 217,217 0,467 380,847 847,847 116,0 230,-24 338,-72 67,-29 144,-23 206,17 61,40 98,108 98,182l0 5072c0,120 -97,217 -217,217z"></path>
   <path class="fil0 str1" d="M13281 10900l-12329 0c-120,0 -217,-97 -217,-217 0,-120 97,-217 217,-217l12329 0c120,0 217,97 217,217 0,120 -97,217 -217,217z"></path>
   <g>
    <path class="fil0" d="M6783 455l-6539 7214c-63,70 -138,63 -166,-15 -28,-79 1,-199 64,-269l6539 -7214c64,-70 138,-63 166,15 28,78 0,199 -64,269z"></path>
    <path id="1" class="fil0" d="M194 7624l6539 -7214 100 91 -6539 7214 0 0 -100 -91zm-179 53l127 -46 0 0 2 4 2 3 1 3 1 2 1 2 1 1 1 1 1 1 1 1 0 0 0 0 0 0 0 0 0 0 0 0 0 0 0 0 1 0 1 0 1 0 2 0 2 -1 2 -1 2 -1 3 -1 3 -2 3 -2 4 -3 4 -3 4 -3 4 -4 4 -4 100 91 -8 8 -8 8 -8 7 -9 7 -9 6 -9 6 -9 5 -9 5 -10 4 -10 4 -10 3 -10 3 -11 2 -11 1 -11 0 -11 -1 -11 -1 -11 -2 -11 -3 -10 -4 -10 -5 -9 -6 -9 -6 -8 -7 -8 -8 -7 -8 -7 -9 -6 -9 -6 -9 -5 -10 -5 -10 -4 -10 0 0zm78 -337l100 91 0 0 -4 5 -4 5 -4 5 -4 6 -4 6 -4 6 -4 6 -3 6 -3 7 -3 7 -3 7 -3 7 -2 7 -2 7 -2 7 -2 7 -2 7 -1 7 -1 7 -1 7 -1 7 0 7 0 7 0 7 0 6 0 6 1 6 1 6 1 5 1 5 1 5 1 4 -127 46 -4 -11 -3 -11 -2 -11 -2 -11 -2 -11 -1 -11 -1 -11 0 -11 0 -11 0 -11 1 -11 1 -11 1 -11 2 -11 2 -11 2 -11 3 -11 3 -11 3 -11 4 -11 4 -11 4 -11 5 -10 5 -10 5 -10 6 -10 6 -10 6 -10 7 -9 7 -9 7 -9 8 -9 0 0zm6639 -7124l-6539 7214 -100 -91 6539 -7214 0 0 100 91zm180 -53l-127 46 0 0 -2 -4 -1 -3 -1 -3 -1 -2 -1 -2 -1 -1 -1 -1 -1 -1 -1 -1 0 0 0 0 0 0 0 0 0 0 0 0 0 0 0 0 -1 0 -1 0 -1 0 -2 0 -2 1 -2 1 -3 1 -3 1 -3 2 -3 2 -4 3 -4 3 -4 3 -4 4 -4 4 -100 -91 8 -8 8 -8 8 -7 9 -7 9 -7 9 -6 9 -6 9 -5 10 -4 10 -4 10 -3 10 -3 11 -2 11 -1 11 0 11 1 11 1 11 2 11 3 10 4 10 5 10 6 9 6 8 7 8 8 7 8 7 9 6 9 6 9 5 10 5 10 4 10 0 0zm-78 337l-100 -91 0 0 4 -5 4 -5 4 -5 4 -6 4 -6 4 -6 4 -6 3 -6 3 -7 3 -7 3 -7 3 -7 2 -7 2 -7 2 -7 2 -7 2 -7 1 -7 1 -7 1 -7 1 -7 0 -7 0 -7 0 -7 0 -6 0 -6 -1 -6 -1 -6 -1 -5 -1 -5 -1 -5 -1 -4 127 -46 4 11 3 11 2 11 2 11 2 11 1 11 1 11 0 11 0 11 0 11 -1 11 -1 11 -1 11 -2 11 -2 11 -2 11 -3 11 -3 11 -3 11 -4 11 -4 11 -4 11 -5 10 -5 10 -5 10 -6 10 -6 10 -6 10 -7 9 -7 9 -7 9 -8 9 0 0z"></path>
   </g>
   <g>
    <path class="fil0" d="M6864 401l6939 6830c67,66 141,55 165,-25 24,-80 -12,-199 -79,-265l-6939 -6830c-68,-66 -141,-55 -165,25 -24,80 12,199 79,265z"></path>
    <path id="1" class="fil0" d="M13851 7183l-95 96 -6939 -6830 95 -96 6939 6830zm182 42l0 0 -3 11 -4 10 -5 10 -5 10 -6 9 -6 9 -7 9 -8 8 -8 7 -9 7 -9 6 -10 5 -10 5 -10 4 -11 3 -11 2 -11 1 -11 0 -11 0 -11 -1 -11 -2 -10 -3 -10 -3 -10 -4 -10 -4 -10 -5 -9 -5 -9 -6 -9 -6 -9 -7 -9 -7 -8 -8 95 -96 4 4 4 4 4 3 4 3 4 2 3 2 3 2 3 1 3 1 2 1 2 0 2 0 1 0 1 0 1 0 0 0 0 0 0 0 0 0 0 0 0 0 0 0 0 0 1 -1 1 -1 1 -1 1 -2 1 -2 1 -2 1 -3 1 -3 1 -4 0 0 129 38zm-97 -332l0 0 8 8 8 9 7 9 7 9 7 9 6 9 6 10 6 10 6 10 5 10 5 10 5 10 4 11 4 11 4 11 3 11 3 11 3 11 2 11 2 11 2 11 1 11 1 11 1 11 0 11 0 11 -1 11 -1 11 -1 11 -2 11 -2 11 -3 11 -129 -38 1 -4 1 -5 1 -5 1 -5 0 -6 0 -6 0 -6 0 -6 0 -7 -1 -7 -1 -7 -1 -7 -1 -7 -2 -7 -2 -7 -2 -7 -2 -7 -2 -7 -3 -7 -3 -7 -3 -7 -3 -7 -3 -7 -4 -6 -4 -6 -4 -6 -4 -6 -4 -6 -4 -5 -4 -5 -4 -5 -4 -5 0 0 95 -96zm-7034 -6734l95 -96 0 0 6939 6830 -95 96 -6939 -6830zm-182 -42l0 0 3 -11 4 -10 5 -10 5 -10 6 -9 6 -9 7 -9 7 -8 8 -7 9 -7 9 -6 10 -5 10 -5 10 -4 11 -3 11 -2 11 -1 11 0 11 0 11 1 11 2 10 3 10 3 10 4 10 4 10 5 9 5 9 6 9 6 9 7 9 7 8 8 -95 96 -4 -4 -4 -4 -4 -3 -4 -3 -4 -2 -3 -2 -3 -2 -3 -1 -3 -1 -2 -1 -2 0 -2 0 -1 0 -1 0 -1 0 0 0 0 0 0 0 0 0 0 0 0 0 0 0 0 0 -1 1 -1 1 -1 1 -1 2 -1 2 -1 2 -1 3 -1 3 -1 4 0 0 -129 -38zm97 332l0 0 -8 -8 -8 -9 -7 -9 -7 -9 -7 -9 -6 -9 -6 -10 -6 -10 -6 -10 -5 -10 -5 -10 -5 -10 -4 -11 -4 -11 -4 -11 -3 -11 -3 -11 -3 -11 -2 -11 -2 -11 -2 -11 -1 -11 -1 -11 -1 -11 0 -11 0 -11 0 -11 1 -11 1 -11 2 -11 2 -11 3 -11 129 38 -1 4 -1 5 -1 5 -1 5 0 6 0 6 0 6 0 6 0 7 1 7 1 7 1 7 1 7 2 7 2 7 2 7 2 7 2 7 3 7 3 7 3 7 3 7 3 7 4 6 4 6 4 6 4 6 4 6 4 5 4 5 4 5 4 5 0 0 -95 96z"></path>
   </g>
  </g>
 </g>
</svg>
