<?xml version="1.0" encoding="UTF-8"?>
<!-- Creator: CorelDRAW 2020 (64-Bit) -->
<svg xmlns="http://www.w3.org/2000/svg" xmlns:xlink="http://www.w3.org/1999/xlink" xmlns:xodm="http://www.corel.com/coreldraw/odm/2003" xml:space="preserve" width="1203px" height="870px" version="1.1" style="shape-rendering:geometricPrecision; text-rendering:geometricPrecision; image-rendering:optimizeQuality; fill-rule:evenodd; clip-rule:evenodd" viewBox="0 0 968 700">
 <defs>
  <style type="text/css">
   <![CDATA[
    .fil0 {fill:#794721;fill-rule:nonzero}
   ]]>
  </style>
 </defs>
 <g id="Layer_x0020_1">
  <metadata id="CorelCorpID_0Corel-Layer"></metadata>
  <g id="_1450364002256">
   <path class="fil0" d="M362 158l276 0 -138 -139 -138 139zm295 15l-313 0c-3,0 -6,-2 -7,-5 -1,-3 -1,-6 2,-8l156 -158c3,-3 8,-3 11,0l156 158c2,2 3,5 2,8 -1,3 -4,5 -7,5z"></path>
   <path class="fil0" d="M352 685l298 0 0 -512 -298 0 0 512zm305 15l-313 0c-4,0 -8,-3 -8,-8l0 -527c0,-4 3,-8 8,-8l313 0c4,0 8,3 8,8l0 527c0,4 -3,8 -8,8z"></path>
   <path class="fil0" d="M389 685l222 0 0 -512 -222 0 0 512zm230 15l-237 0c-4,0 -8,-3 -8,-8l0 -527c0,-4 3,-8 8,-8l237 0c4,0 8,3 8,8l0 527c0,4 -3,8 -8,8z"></path>
   <path class="fil0" d="M389 479l222 0 0 -158 -222 0 0 158zm230 15l-237 0c-4,0 -8,-3 -8,-8l0 -173c0,-4 3,-8 8,-8l237 0c4,0 8,3 8,8l0 173c0,4 -3,8 -8,8z"></path>
   <path class="fil0" d="M389 479l222 0 0 -190 -222 0 0 190zm230 15l-237 0c-4,0 -8,-3 -8,-8l0 -205c0,-4 3,-8 8,-8l237 0c4,0 8,3 8,8l0 205c0,4 -3,8 -8,8z"></path>
   <path class="fil0" d="M664 484l137 186c7,9 17,14 28,14l70 0c5,0 10,-3 12,-7 2,-5 2,-10 -1,-14l-245 -314 0 135zm235 216l-70 0c-16,0 -31,-8 -41,-21l-138 -188c-1,-1 -1,-3 -1,-5l0 -160c0,-3 2,-6 5,-7 3,-1 6,0 8,2l259 332c7,9 8,20 3,30 -5,10 -15,16 -25,16z"></path>
   <path class="fil0" d="M821 654l-47 0c-4,0 -8,-3 -8,-8 0,-4 3,-8 8,-8l47 0c4,0 8,3 8,8 0,4 -3,8 -8,8z"></path>
   <path class="fil0" d="M797 622l-47 0c-4,0 -8,-3 -8,-8 0,-4 3,-8 8,-8l47 0c4,0 8,3 8,8 0,4 -3,8 -8,8z"></path>
   <path class="fil0" d="M774 589l-47 0c-4,0 -8,-3 -8,-8 0,-4 3,-8 8,-8l47 0c4,0 8,3 8,8 0,4 -3,8 -8,8z"></path>
   <path class="fil0" d="M751 557l-47 0c-4,0 -8,-3 -8,-8 0,-4 3,-8 8,-8l47 0c4,0 8,3 8,8 0,4 -3,8 -8,8z"></path>
   <path class="fil0" d="M727 525l-47 0c-4,0 -8,-3 -8,-8 0,-4 3,-8 8,-8l47 0c4,0 8,3 8,8 0,4 -3,8 -8,8z"></path>
   <path class="fil0" d="M899 700c-2,0 -4,-1 -6,-3l-242 -309c-3,-3 -2,-8 1,-11 3,-3 8,-2 11,1l242 309c3,3 2,8 -1,11 -1,1 -3,2 -5,2z"></path>
   <path class="fil0" d="M422 479l18 0 0 -109c0,-5 -4,-9 -9,-9 -5,0 -9,4 -9,9l0 109zm26 15l-34 0c-4,0 -8,-3 -8,-8l0 -117c0,-13 11,-24 24,-24 13,0 24,11 24,24l0 117c0,4 -3,8 -8,8z"></path>
   <path class="fil0" d="M491 479l18 0 0 -109c0,-5 -4,-9 -9,-9 -5,0 -9,4 -9,9l0 109zm26 15l-34 0c-4,0 -8,-3 -8,-8l0 -117c0,-13 11,-24 24,-24 13,0 24,11 24,24l0 117c0,4 -3,8 -8,8z"></path>
   <path class="fil0" d="M560 479l18 0 0 -109c0,-5 -4,-9 -9,-9 -5,0 -9,4 -9,9l0 109zm26 15l-34 0c-4,0 -8,-3 -8,-8l0 -117c0,-13 11,-24 24,-24 13,0 24,11 24,24l0 117c0,4 -3,8 -8,8z"></path>
   <path class="fil0" d="M262 479l75 0 0 -108 -70 0c-3,0 -5,2 -5,5l0 103zm82 15l-90 0c-4,0 -8,-3 -8,-8l0 -111c0,-11 9,-20 20,-20l78 0c4,0 8,3 8,8l0 123c0,4 -3,8 -8,8z"></path>
   <path class="fil0" d="M49 685l20 0c31,0 60,-16 76,-42l101 -158 0 -74 -127 209c-11,19 -32,30 -53,30l-16 0 0 35zm20 15l-28 0c-4,0 -8,-3 -8,-8l0 -50c0,-4 3,-8 8,-8l24 0c16,0 32,-9 40,-23l141 -232c2,-3 5,-4 9,-3 3,1 6,4 6,7l0 104c0,1 0,3 -1,4l-102 160c-19,31 -53,49 -89,49z"></path>
   <path class="fil0" d="M344 412l-90 0c-4,0 -8,-3 -8,-8 0,-4 3,-8 8,-8l90 0c4,0 8,3 8,8 0,4 -3,8 -8,8z"></path>
   <path class="fil0" d="M611 127l-222 0c-4,0 -8,-3 -8,-8 0,-4 3,-8 8,-8l222 0c4,0 8,3 8,8 0,4 -3,8 -8,8z"></path>
   <path class="fil0" d="M961 700l-953 0c-4,0 -8,-3 -8,-8 0,-4 3,-8 8,-8l953 0c4,0 8,3 8,8 0,4 -3,8 -8,8z"></path>
  </g>
 </g>
</svg>
