<?xml version="1.0" encoding="UTF-8"?>
<!-- Creator: CorelDRAW 2020 (64-Bit) -->
<svg xmlns="http://www.w3.org/2000/svg" xmlns:xlink="http://www.w3.org/1999/xlink" xmlns:xodm="http://www.corel.com/coreldraw/odm/2003" xml:space="preserve" width="155.602mm" height="98.132mm" version="1.1" style="shape-rendering:geometricPrecision; text-rendering:geometricPrecision; image-rendering:optimizeQuality; fill-rule:evenodd; clip-rule:evenodd" viewBox="0 0 13087 8254">
 <defs>
  <style type="text/css">
   <![CDATA[
    .fil4 {fill:#FEFEFE;fill-rule:nonzero}
    .fil9 {fill:#2B2A29;fill-rule:nonzero}
    .fil6 {fill:#F7BA7A;fill-rule:nonzero}
    .fil5 {fill:#F5B12B;fill-rule:nonzero}
    .fil10 {fill:#ED852F;fill-rule:nonzero}
    .fil11 {fill:#A1522E;fill-rule:nonzero}
    .fil1 {fill:#A1C69D;fill-rule:nonzero}
    .fil8 {fill:#502C24;fill-rule:nonzero}
    .fil2 {fill:#8BB982;fill-rule:nonzero}
    .fil3 {fill:#7DC3B4;fill-rule:nonzero}
    .fil7 {fill:#558ECA;fill-rule:nonzero}
    .fil12 {fill:#3A9558;fill-rule:nonzero}
    .fil0 {fill:#794721;fill-rule:nonzero}
   ]]>
  </style>
 </defs>
 <g id="Layer_x0020_1">
  <metadata id="CorelCorpID_0Corel-Layer"></metadata>
  <g id="_1481916445696">
   <path class="fil0" d="M9069 779c-215,-26 -240,-218 -233,-218 0,0 -76,-31 -76,-162 0,-260 367,-257 369,-257 5,0 -83,-117 159,-140 91,-9 142,40 191,55 56,16 116,5 172,21 75,21 128,85 177,146 79,99 106,179 74,303 -38,146 19,120 -35,214 -54,94 -143,94 -213,-42 -70,-137 -124,-88 -124,-88 -19,17 -35,40 -54,57 -31,29 -67,54 -106,71 -43,18 -90,24 -136,27 -17,1 -54,-17 -71,-22 -8,-2 -82,47 -92,36z"></path>
   <g>
    <path class="fil0" d="M13087 7784c-8,-259 -2934,-468 -6543,-468 -3614,0 -6544,210 -6544,469 0,259 2930,469 6544,469 3609,0 6536,-209 6543,-468l0 -2z"></path>
    <path class="fil0" d="M2000 7900c0,32 -74,59 -165,59 -91,0 -165,-26 -165,-59 0,-32 74,-59 165,-59 91,0 165,26 165,59z"></path>
    <path class="fil0" d="M2255 7841c0,21 -49,39 -109,39 -60,0 -109,-17 -109,-39 0,-21 49,-39 109,-39 60,0 109,17 109,39z"></path>
    <path class="fil0" d="M2556 7841c0,21 -49,39 -109,39 -60,0 -109,-17 -109,-39 0,-21 49,-39 109,-39 60,0 109,17 109,39z"></path>
    <path class="fil0" d="M2592 7946c0,24 -121,43 -271,43 -150,0 -271,-19 -271,-43 0,-24 121,-43 271,-43 150,0 271,19 271,43z"></path>
    <path class="fil0" d="M4022 7845c0,21 -49,39 -109,39 -60,0 -109,-17 -109,-39 0,-21 49,-39 109,-39 60,0 109,17 109,39z"></path>
    <path class="fil0" d="M4323 7845c0,21 -49,39 -109,39 -60,0 -109,-17 -109,-39 0,-21 49,-39 109,-39 60,0 109,17 109,39z"></path>
    <path class="fil0" d="M4201 7946c0,30 -64,54 -143,54 -79,0 -144,-24 -144,-54 0,-30 64,-54 144,-54 79,0 143,24 143,54z"></path>
    <path class="fil0" d="M9000 7509c0,13 -49,23 -109,23 -60,0 -109,-10 -109,-23 0,-13 49,-23 109,-23 60,0 109,10 109,23z"></path>
    <path class="fil0" d="M9301 7509c0,13 -49,23 -109,23 -60,0 -109,-10 -109,-23 0,-13 49,-23 109,-23 60,0 109,10 109,23z"></path>
    <path class="fil0" d="M9178 7569c0,18 -64,33 -143,33 -79,0 -144,-15 -144,-33 0,-18 64,-33 144,-33 79,0 143,15 143,33z"></path>
    <path class="fil0" d="M12483 7734c0,13 -49,23 -109,23 -60,0 -109,-10 -109,-23 0,-13 49,-23 109,-23 60,0 109,10 109,23z"></path>
    <path class="fil0" d="M12361 7794c0,18 -64,33 -143,33 -79,0 -144,-15 -144,-33 0,-18 64,-33 144,-33 79,0 143,15 143,33z"></path>
    <path class="fil0" d="M10642 7547c0,13 -64,23 -143,23 -79,0 -144,-10 -144,-23 0,-12 64,-23 144,-23 79,0 143,10 143,23z"></path>
    <path class="fil0" d="M8332 8118c0,18 -64,33 -144,33 -79,0 -143,-15 -143,-33 0,-18 64,-33 143,-33 79,0 144,15 144,33z"></path>
    <path class="fil0" d="M10391 7509c0,18 -64,33 -144,33 -79,0 -143,-15 -143,-33 0,-18 64,-33 143,-33 79,0 144,15 144,33z"></path>
    <path class="fil0" d="M9705 8085c0,14 -64,25 -143,25 -79,0 -144,-11 -144,-25 0,-14 64,-25 144,-25 79,0 143,11 143,25z"></path>
    <path class="fil0" d="M9739 8040c0,9 -43,16 -97,16 -54,0 -97,-7 -97,-16 0,-9 43,-16 97,-16 54,0 97,7 97,16z"></path>
    <path class="fil0" d="M9534 8032c0,9 -22,16 -48,16 -27,0 -49,-7 -49,-16 0,-9 22,-16 49,-16 27,0 48,7 48,16z"></path>
    <path class="fil0" d="M3261 8035c0,15 -59,28 -131,28 -72,0 -131,-12 -131,-28 0,-15 59,-28 131,-28 72,0 131,12 131,28z"></path>
    <path class="fil0" d="M5591 8146c0,15 -59,28 -131,28 -72,0 -131,-12 -131,-28 0,-15 59,-28 131,-28 72,0 131,12 131,28z"></path>
    <path class="fil1" d="M1176 7568c64,-1 144,-2 235,-4 273,-4 652,-7 1053,-10 188,-1 381,-3 569,-4 173,-1 343,-2 502,-3 49,0 96,-1 143,-1 64,0 127,-1 186,-1 60,0 118,-1 172,-1l4 0c306,-2 508,-2 508,-2 0,0 703,-1002 271,-1469 -369,-398 -819,-5 -829,3 2,-10 129,-564 -184,-808 -33,-25 -70,-47 -113,-65 -451,-187 -813,235 -822,246l0 0c0,0 -63,-127 -191,-248l0 0c-152,-145 -394,-283 -727,-190l-2 1c-57,16 -116,39 -178,69 -1,1 -3,1 -4,2 -514,255 -107,1198 -99,1216l0 0c0,0 -74,5 -177,27l0 0c-186,40 -465,135 -574,356l0 0c-4,8 -8,16 -11,25 -78,188 -37,461 269,858z"></path>
    <path class="fil2" d="M1176 7568c64,-1 144,-2 235,-4 273,-4 652,-7 1053,-10l1173 -14c0,0 -2636,-126 -2719,-856 -4,8 -8,16 -11,25 -78,188 -37,461 269,858z"></path>
    <path class="fil2" d="M2815 6118l2 43 4 42c3,28 6,57 9,85l14 85c3,14 4,28 8,42l10 42 14 63 6 21 24 83c9,28 19,55 29,82 9,28 21,54 32,81 46,107 100,212 166,311 47,71 98,139 154,205 22,25 44,50 67,75 51,55 105,107 162,156 3,3 7,6 10,9 3,2 5,4 8,7 49,0 96,-1 143,-1 64,0 127,-1 186,-1 60,0 118,-1 172,-1 1,2 2,3 3,5l2 -5c0,0 322,-1 321,-2l-281 -121c-2,-1 -4,-1 -7,-2 -5,-2 -10,-3 -16,-5 -11,-4 -22,-7 -33,-12 -22,-8 -45,-17 -68,-27 -1,0 -2,-1 -3,-1 -44,-19 -89,-40 -132,-64 -68,-36 -134,-77 -197,-123 -19,-14 -38,-28 -57,-43 -81,-62 -156,-132 -226,-208 -70,-76 -132,-159 -187,-247 -14,-22 -28,-44 -40,-67 -12,-23 -26,-46 -37,-69l-34 -71 -8 -18 -7 -18 -15 -37 -15 -37c-5,-12 -9,-25 -13,-38l-25 -76c-7,-26 -14,-52 -21,-78l-10 -39 -8 -40c-45,-211 -59,-432 -47,-653 -46,216 -68,440 -56,666z"></path>
    <path class="fil2" d="M1670 6301l29 78c5,13 9,26 15,39l17 38 18 38c6,13 11,26 18,38l41 74 10 19 12 18 23 36 23 36c7,12 17,23 25,35 17,23 34,46 51,68l55 65 14 16c5,6 10,10 15,16l30 31 30 31c10,10 21,20 31,30 21,19 42,39 63,58l66 55c90,72 185,137 284,197 94,55 190,105 289,150 64,29 130,57 196,82 3,1 5,2 8,3 173,-1 343,-2 502,-3 49,0 96,-1 143,-1 64,0 127,-1 186,-1l6 -205c-8,1 -22,1 -34,1 -13,0 -25,1 -38,0 -26,0 -52,0 -78,-1 -27,-1 -54,-2 -80,-3 -26,-1 -51,-3 -77,-5 -91,-7 -183,-17 -274,-31 -14,-2 -27,-4 -41,-6 -210,-34 -416,-90 -614,-168 -99,-40 -195,-86 -288,-139l-69 -41c-23,-14 -44,-30 -67,-45 -11,-8 -23,-15 -33,-23l-32 -24 -32 -24c-5,-4 -11,-8 -16,-12l-15 -13 -61 -53c-20,-19 -39,-38 -58,-57 -9,-10 -20,-19 -29,-29l-27 -30 -27 -30 -14 -15 -13 -16 -50 -65c-9,-11 -16,-22 -23,-34l-23 -34 -23 -34c-7,-12 -14,-24 -21,-36l-41 -72z"></path>
    <path class="fil2" d="M3625 7190c1,17 2,35 4,52 3,33 7,65 11,98 7,53 16,105 27,157 4,17 7,34 11,51 64,0 127,-1 186,-1 60,0 118,-1 172,-1 -25,-47 -49,-95 -71,-144 -4,-8 -8,-17 -11,-26 -26,-60 -49,-122 -69,-184 -23,-72 -41,-145 -54,-219 -14,-74 -20,-150 -21,-226 -1,-38 1,-76 3,-115 4,-38 7,-77 14,-114 5,-38 15,-76 24,-114 5,-19 11,-37 17,-56l9 -28 11 -27c7,-18 14,-37 22,-55l25 -54c4,-9 8,-18 13,-27l15 -26 29 -53 -40 45 -20 23c-6,8 -12,16 -19,24l-37 48c-12,17 -23,34 -34,51l-17 26 -15 27c-10,18 -21,36 -30,54 -18,37 -37,75 -52,114 -17,39 -29,79 -42,119 -11,41 -23,81 -30,123 -17,83 -28,168 -31,253 -3,68 -2,137 2,205z"></path>
    <path class="fil2" d="M3099 7187c-10,-10 -1042,-973 -1031,-1646l22 0c-11,663 1014,1620 1024,1630l-15 16z"></path>
    <path class="fil3" d="M3467 6927c-2,-9 -181,-946 0,-1358l11 5c-180,409 -1,1342 0,1351l-11 2z"></path>
    <path class="fil3" d="M4233 7328l-12 -1c1,-7 58,-706 322,-1029l9 7c-263,321 -319,1016 -320,1023z"></path>
    <path class="fil2" d="M2175 7217c-35,-8 -859,-196 -959,-529l21 -6c96,321 934,512 943,514l-5 21z"></path>
    <path class="fil0" d="M3541 7465c0,0 -338,-29 -453,-43 -48,-6 -182,-17 -182,-17l106 -271c0,0 453,47 538,47l-8 285z"></path>
    <path class="fil0" d="M2203 7431c2,2 4,3 7,4 7,4 14,8 23,11 112,40 394,32 489,-5 27,-10 54,-17 83,-20 116,-13 193,-5 218,-5 -23,-27 -37,-144 8,-202 35,-46 68,-10 148,-63 0,0 -45,-50 -104,-84 -16,-10 -33,-18 -51,-24 -16,-5 -33,-9 -49,-9 -98,0 -152,97 -286,113 -133,16 -318,44 -384,102 -67,57 -130,162 -102,183z"></path>
    <path class="fil4" d="M2233 7445c17,-30 43,-73 81,-124 60,-80 227,-104 338,-120l28 -4c119,-18 183,-40 226,-79 55,-49 129,-53 169,-52 -16,-10 -33,-18 -51,-24 -42,5 -93,19 -134,57 -40,36 -100,56 -214,73l-27 4c-122,18 -288,42 -355,130 -40,53 -67,97 -84,129l23 11z"></path>
    <path class="fil0" d="M5937 5672c0,0 243,340 321,382 167,90 202,127 201,269 0,105 -166,-33 -248,-104 0,0 47,82 46,104 -1,22 -103,-33 -152,-124 -50,-92 -71,-136 -114,-183 -42,-47 -239,-231 -239,-231l118 -145 67 31z"></path>
    <path class="fil0" d="M6119 5847l-184 159 -1 -1c0,-1 0,-1 -1,-1 0,-1 -1,-1 -2,-2 -40,-41 -367,-377 -537,-616 -147,-207 2,-449 49,-660 42,-188 100,-359 168,-336 0,0 71,82 155,534 83,452 354,923 354,923z"></path>
    <polygon class="fil5" points="5625,4881 5530,4838 5615,4777 "></polygon>
    <path class="fil0" d="M5712 4679c-19,-4 -35,-17 -42,-36 -8,-23 -1,-48 16,-63 8,29 17,61 26,98z"></path>
    <path class="fil0" d="M5389 5303l-58 -27c-5,-14 -8,-26 -10,-36l58 -41 10 104z"></path>
    <path class="fil0" d="M5540 5026c11,29 -4,62 -33,73 -29,11 -62,-4 -73,-33 -11,-29 4,-62 33,-73 29,-11 62,4 73,33z"></path>
    <polygon class="fil0" points="5734,5175 5639,5132 5725,5071 "></polygon>
    <path class="fil0" d="M5479 5500l9 -7 2 20c-4,-5 -7,-9 -11,-14z"></path>
    <path class="fil0" d="M5650 5320c11,29 -4,62 -33,73 -29,11 -62,-4 -73,-33 -11,-29 4,-62 33,-73 29,-11 62,4 73,33z"></path>
    <polygon class="fil0" points="5844,5469 5749,5426 5834,5365 "></polygon>
    <path class="fil0" d="M5759 5614c11,29 -4,62 -33,73 -29,11 -62,-4 -73,-33 -11,-29 4,-62 33,-73 29,-11 62,4 73,33z"></path>
    <polygon class="fil0" points="5953,5763 5858,5720 5943,5659 "></polygon>
    <path class="fil5" d="M5868 5908c4,11 4,22 2,32 -19,-19 -40,-42 -64,-68 26,-4 53,10 62,36z"></path>
    <path class="fil5" d="M5516 4587l-34 -15c8,-26 17,-51 25,-73l8 88z"></path>
    <path class="fil0" d="M5930 6002c-9,-9 -30,-31 -60,-62 1,-3 1,-6 1,-8 29,36 50,61 59,71zm-104 -130c-4,-1 -7,-1 -11,-1 -3,0 -6,0 -9,1 -90,-96 -213,-231 -315,-358l-2 -20 -9 7c-31,-39 -61,-77 -86,-113 81,-99 142,-188 179,-344 12,-53 22,-112 28,-173l10 4c-5,128 -13,265 -27,382 -1,10 -2,20 -2,30 -1,0 -2,1 -3,1 -29,11 -44,44 -33,73 8,20 26,34 46,36 13,68 39,138 71,205 -11,15 -14,35 -7,53 8,23 30,37 53,37 0,0 1,0 1,0 39,68 82,131 119,182zm-218 -1090c4,-55 6,-109 7,-158 0,46 -1,98 -3,155l-5 3z"></path>
    <path class="fil0" d="M5610 4874l-10 -4c3,-29 6,-59 8,-88l5 -3c-1,31 -2,63 -3,95z"></path>
    <path class="fil0" d="M5491 5514c-4,-5 -7,-9 -11,-14l0 0 9 -7 2 20z"></path>
    <path class="fil0" d="M5589 5396c-20,-3 -38,-16 -46,-36 -11,-29 4,-62 33,-73 1,0 2,-1 3,-1 -2,36 2,73 9,111z"></path>
    <path class="fil0" d="M5706 5691c-23,0 -45,-14 -53,-37 -7,-18 -4,-38 7,-53 15,31 31,61 47,90 0,0 -1,0 -1,0z"></path>
    <path class="fil0" d="M5870 5940c-19,-19 -40,-42 -64,-68l0 0c3,0 6,-1 9,-1 4,0 8,0 11,1 16,22 32,42 45,59 0,3 -1,6 -1,8l0 0z"></path>
    <path class="fil0" d="M4889 4015c-33,14 -63,20 -95,23 -31,3 -63,3 -94,0 -31,-3 -61,-9 -91,-17 -28,-7 -57,-13 -86,-17 -58,-8 -118,-11 -176,-7 -29,2 -59,6 -87,15 -14,4 -28,10 -40,18 -12,8 -22,21 -22,36 -1,-15 8,-30 20,-39 12,-10 26,-17 40,-22 28,-11 58,-17 88,-22 60,-8 120,-10 180,-6 30,2 60,5 91,10 29,5 57,9 86,9 29,1 57,-1 85,-6 27,-5 56,-13 77,-24l25 47z"></path>
    <path class="fil0" d="M6064 7674c-13,2 -32,3 -55,3 -452,-3 -2656,-370 -2656,-370 0,0 8,-56 26,-115 17,-52 42,-106 78,-123 195,-1 404,7 605,19 535,33 1011,95 1011,95l-752 -1008 420 -228 228 -124c0,0 191,71 208,148 6,27 42,109 56,135 101,192 312,289 477,419 121,96 237,200 347,309 103,103 189,200 231,342 56,188 10,464 -223,496z"></path>
    <path class="fil0" d="M4309 4838c-49,35 -171,-14 -221,-58 -26,-22 -42,-55 -50,-88 -7,-31 -3,-64 -10,-94 -7,-30 -23,-33 -46,-53 -39,-34 -63,-84 -57,-137 5,-48 30,-92 66,-125 37,-34 82,-58 131,-71 51,-14 99,-8 151,-12 -18,-36 -46,-73 -19,-114 21,-32 64,-44 99,-52 83,-17 170,-12 254,-4 156,14 258,-5 280,-60 12,-31 17,-55 2,-144 -20,-119 -67,-445 152,-553 219,-108 451,-95 588,54 0,0 150,62 156,281 6,219 -197,264 -349,311l-286 122c-138,113 -276,225 -414,338 -157,128 -421,456 -423,458z"></path>
    <path class="fil0" d="M5025 4000c0,0 -102,-94 -146,-91 -44,4 -85,47 -62,91 25,47 106,103 138,117 70,29 122,-73 70,-117z"></path>
    <path class="fil0" d="M3279 7638c0,0 -338,-29 -453,-43 -48,-6 -182,-17 -182,-17l106 -271c0,0 453,47 538,47l-8 285z"></path>
    <path class="fil0" d="M1940 7603c2,2 4,3 7,4 7,4 14,8 23,11 112,40 394,32 489,-5 27,-10 54,-17 83,-20 116,-13 193,-5 218,-5 -23,-27 -37,-144 8,-202 35,-46 68,-10 148,-63 0,0 -45,-50 -104,-84 -16,-10 -33,-18 -51,-24 -16,-5 -33,-9 -49,-9 -98,0 -152,97 -286,113 -133,16 -318,44 -384,102 -67,57 -130,162 -102,183z"></path>
    <path class="fil0" d="M4762 4199l195 241 436 64c0,0 153,-89 21,-267 0,0 -21,-12 -47,-34 -49,-42 -114,-123 -72,-229l-212 -262c0,0 -39,216 -167,326 -25,22 -74,45 -107,56l-48 105z"></path>
    <path class="fil0" d="M4880 4063c0,0 219,319 505,155l29 20 55 558 -287 153 -326 -114 -47 -739 71 -31z"></path>
    <path class="fil6" d="M5415 4242l0 -5 0 2c0,1 0,2 0,3z"></path>
    <path class="fil0" d="M5183 4828c-87,0 -173,-60 -173,-170 0,-263 -160,-507 -194,-555 39,55 247,358 230,510 -13,113 92,157 172,157 37,0 69,-10 80,-27 108,-175 117,-505 117,-505l0 0 0 5c3,44 21,377 -100,525 -33,41 -83,60 -132,60z"></path>
    <polygon class="fil0" points="4810,4094 4810,4094 4810,4094 "></polygon>
    <path class="fil0" d="M4810 4094l0 0c0,0 0,0 0,0 0,0 0,0 0,0z"></path>
    <polygon class="fil0" points="4871,4384 4827,4364 4823,4307 4861,4280 "></polygon>
    <path class="fil0" d="M4992 4178c-1,1 -3,1 -4,2 -29,11 -62,-4 -73,-33 -5,-13 -5,-27 0,-40 19,21 45,47 77,72z"></path>
    <polygon class="fil0" points="4980,4678 4885,4635 4970,4574 "></polygon>
    <path class="fil0" d="M5131 4401c11,29 -4,62 -33,73 -29,11 -62,-4 -73,-33 -11,-29 4,-62 33,-73 29,-11 62,4 73,33z"></path>
    <path class="fil0" d="M4895 4823c3,8 4,17 3,25l-42 -15 -3 -46c18,4 34,17 41,36z"></path>
    <polygon class="fil0" points="5039,4897 5079,4868 5084,4913 "></polygon>
    <path class="fil0" d="M5240 4695c11,29 -4,62 -33,73 -29,11 -62,-4 -73,-33 -11,-29 4,-62 33,-73 29,-11 62,4 73,33z"></path>
    <polygon class="fil0" points="5404,4830 5339,4800 5425,4740 5432,4815 "></polygon>
    <path class="fil0" d="M5425 4349c-24,1 -46,-13 -55,-37 -11,-29 4,-62 33,-73 3,-1 6,-2 9,-3l1 1 11 112z"></path>
    <polygon class="fil0" points="5325,4550 5230,4506 5315,4446 "></polygon>
    <path class="fil0" d="M5146 5753c-17,95 47,238 81,343 3,8 6,18 10,27 18,48 46,104 46,104 -654,203 -1178,-506 -1178,-506 109,-131 95,-254 106,-612 3,-76 5,-153 10,-229 9,-154 22,-288 45,-373 48,-170 205,-278 341,-342 1,0 1,-1 2,-1 118,-55 201,-72 201,-72 0,0 200,270 200,564 0,173 214,222 306,110 130,-159 99,-530 99,-530 37,26 200,157 200,157 0,0 18,391 -42,648 -61,257 -188,330 -359,572 -5,7 -10,15 -15,22 -19,30 -34,62 -46,93 -2,4 -3,8 -4,13 0,1 -1,1 -1,2 -1,3 -1,6 -2,9z"></path>
    <path class="fil0" d="M5183 4882c-58,0 -113,-20 -155,-57 -47,-41 -72,-101 -72,-167 0,-213 -136,-470 -189,-551l6 -4c2,3 190,296 190,555 0,64 25,122 70,162 41,36 94,56 151,56 67,0 129,-28 169,-78 106,-130 114,-455 114,-518l7 0c0,64 -8,391 -116,523 -42,51 -105,80 -174,80z"></path>
    <path class="fil0" d="M5984 7676c-327,-10 -1348,-164 -2018,-270 -122,-19 -233,-37 -325,-52 -35,-6 -67,-11 -97,-16 -120,-20 -192,-32 -192,-32 0,0 8,-56 26,-115 97,-10 193,-13 283,-13 335,0 598,52 614,56 -92,-46 -162,-94 -214,-146 535,33 1011,95 1011,95l0 0 -585 -784 -7 -10 -159 -214 172 -94c81,53 171,101 270,135 15,75 54,140 123,186 802,535 1240,886 1129,1257 -10,5 -20,11 -30,16z"></path>
    <path class="fil7" d="M4763 6216c-99,-33 -189,-82 -270,-135l248 -134 42 12c-26,87 -36,177 -20,257z"></path>
    <path class="fil0" d="M4186 5609c0,0 -363,465 -363,801 0,337 374,686 800,896 0,0 -835,-88 -1449,-54 0,0 -78,249 -2,473 0,0 1109,94 1571,140 406,41 914,111 1109,-197 54,-85 57,-193 13,-284 -214,-446 -905,-890 -959,-955 -59,-72 -174,-301 -123,-470l-596 -350z"></path>
    <path class="fil0" d="M5296 4207c-220,0 -346,-93 -380,-169 128,-110 167,-326 167,-326l212 262c-10,24 -14,47 -14,68 0,72 47,128 85,161 -25,2 -48,3 -71,3z"></path>
    <path class="fil0" d="M5664 3562c0,0 0,195 -85,335 -78,128 -221,229 -337,193 -116,-36 -178,-140 -202,-227 39,-123 83,-231 83,-231l135 -289 406 220z"></path>
    <path class="fil0" d="M5628 3587c0,0 -374,176 -479,-61l-7 -100c0,0 82,-92 218,-135 260,-13 362,220 362,220 0,0 -10,201 -85,201 -8,-13 -12,-50 -9,-125z"></path>
    <path class="fil0" d="M5123 3695c0,0 -15,-153 -67,-131 -52,22 -91,93 -76,172 15,78 70,112 70,112l73 -153z"></path>
    <path class="fil4" d="M1970 7618c17,-30 43,-73 81,-124 60,-80 227,-104 338,-120l28 -4c119,-18 183,-40 226,-79 55,-49 129,-53 169,-52 -16,-10 -33,-18 -51,-24 -42,5 -93,19 -134,57 -40,36 -100,56 -213,73l-27 4c-122,18 -288,42 -355,130 -40,53 -67,97 -84,129l23 11z"></path>
    <path class="fil8" d="M5648 3568c-13,27 -25,56 -34,86 -9,29 -17,60 -19,91 -3,-31 1,-63 6,-94 5,-31 13,-62 22,-92l25 10z"></path>
    <path class="fil0" d="M5630 3574c-2,12 -7,19 -12,27 -5,7 -11,14 -18,19 -13,12 -27,20 -42,27 -30,14 -61,21 -92,27 -31,5 -63,8 -94,8 -31,1 -63,0 -94,-1 31,-1 63,-2 94,-5 31,-3 62,-8 92,-15 30,-8 60,-17 86,-31 13,-8 25,-16 35,-26 5,-5 10,-10 13,-16 3,-5 6,-13 6,-16l27 3z"></path>
    <path class="fil8" d="M5615 3335c55,31 104,72 142,123 38,50 64,111 66,174 3,63 -23,125 -62,171 -39,47 -91,82 -147,102 54,-24 102,-63 137,-110 34,-47 53,-105 46,-161 -6,-56 -33,-108 -70,-151 -38,-42 -85,-76 -135,-100l25 -47z"></path>
    <path class="fil0" d="M4158 4167c-46,12 -91,27 -131,48 -41,22 -76,50 -95,90 -20,39 -26,86 -23,131 4,45 17,91 42,131 -33,-34 -55,-80 -63,-129 -8,-48 -3,-100 20,-145 22,-46 66,-79 110,-97 45,-19 93,-28 140,-29z"></path>
    <path class="fil0" d="M5642 3489c-17,43 -54,78 -97,98 -43,21 -91,30 -138,28 -47,-2 -93,-9 -137,-24 -22,-8 -44,-17 -63,-29 -19,-12 -41,-27 -47,-50 12,20 33,30 53,38 21,9 42,15 63,21 43,11 88,17 132,18 44,2 88,-5 129,-20 41,-16 79,-41 105,-79z"></path>
    <path class="fil9" d="M5702 3552c10,20 16,42 19,64 4,22 4,45 2,68 -3,23 -8,45 -17,66 -10,21 -24,40 -42,53 10,-20 17,-40 23,-60 5,-20 8,-41 10,-62 4,-42 4,-84 5,-129z"></path>
    <path class="fil4" d="M3928 6029c0,0 85,119 202,148l-38 92c0,0 -163,-56 -204,-150l40 -90z"></path>
    <path class="fil4" d="M3961 6471c-54,0 -138,-29 -148,-70l19 -5c6,27 86,58 138,54 30,-3 78,-111 102,-188l19 6c-10,33 -65,197 -120,202 -3,0 -7,0 -11,0z"></path>
    <path class="fil0" d="M5231 6124c-3,0 -7,0 -10,0 -7,-1 -14,-1 -21,-2 -13,-2 -27,-6 -40,-10 -13,-5 -500,-239 -788,-677 -80,-122 -130,-222 -161,-323 3,-76 5,-153 10,-228 41,235 91,385 262,605 89,115 314,275 631,515 28,21 66,48 108,78 2,6 4,11 5,17 3,8 6,18 10,27 -2,0 -4,0 -6,0zm-616 -1938c-5,-12 -8,-18 -8,-19 0,0 0,0 0,0 1,0 1,-1 2,-1 2,6 4,13 6,20z"></path>
    <path class="fil4" d="M4776 7586c-557,0 -1304,-71 -1352,-76l1 -7c18,2 1754,167 1936,1 23,-21 33,-44 30,-72 -13,-135 -330,-332 -611,-505 -97,-60 -188,-116 -266,-169 -186,-126 -226,-264 -228,-358 -2,-101 41,-174 42,-175l6 3c0,1 -43,72 -41,171 2,92 42,227 225,352 78,53 169,109 265,169 295,183 601,372 614,510 3,29 -8,55 -32,77 -63,58 -301,77 -589,77z"></path>
    <path class="fil0" d="M5226 6031c0,0 361,237 408,316 99,168 139,202 286,197 109,-4 -40,-169 -117,-251 0,0 86,45 109,43 23,-2 -38,-104 -134,-152 -97,-48 -143,-68 -193,-110 -50,-42 -248,-237 -248,-237l-146 127 35 67z"></path>
    <path class="fil0" d="M5635 6078l-156 178c0,0 -261,-175 -366,-254 -316,-240 -541,-400 -631,-515 -172,-220 -221,-370 -262,-605 0,0 0,0 0,-1 9,-154 22,-288 45,-373 48,-170 205,-278 341,-342 0,0 216,502 154,788 -37,173 201,441 436,681 152,156 437,441 437,441z"></path>
    <polygon class="fil0" points="4353,5082 4258,5039 4343,4978 "></polygon>
    <path class="fil0" d="M4504 4805c11,29 -4,62 -33,73 -29,11 -62,-4 -73,-33 -11,-29 4,-62 33,-73 29,-11 62,4 73,33z"></path>
    <polygon class="fil0" points="4698,4954 4603,4910 4688,4850 "></polygon>
    <path class="fil0" d="M4768 4745c-11,-6 -20,-16 -25,-29 -8,-21 -2,-44 12,-59 5,30 9,59 12,88z"></path>
    <path class="fil0" d="M4462 5376l-84 -38c-2,-3 -4,-6 -6,-9l79 -56 10 104z"></path>
    <path class="fil0" d="M4613 5099c11,29 -4,62 -33,73 -29,11 -62,-4 -73,-33 -11,-29 4,-62 33,-73 29,-11 62,4 73,33z"></path>
    <polygon class="fil0" points="4807,5248 4712,5204 4798,5144 "></polygon>
    <path class="fil5" d="M4559 5568l3 -2 0 5c-1,-1 -2,-2 -3,-3z"></path>
    <path class="fil0" d="M4723 5393c11,29 -4,62 -33,73 -29,11 -62,-4 -73,-33 -11,-29 4,-62 33,-73 29,-11 62,4 73,33z"></path>
    <polygon class="fil0" points="4917,5542 4822,5498 4907,5438 "></polygon>
    <path class="fil0" d="M4832 5687c11,29 -4,62 -33,73 -1,0 -2,1 -4,1 -25,-19 -50,-38 -73,-56 1,-22 15,-43 37,-51 29,-11 62,4 73,33z"></path>
    <polygon class="fil0" points="5026,5836 4931,5792 5016,5732 "></polygon>
    <path class="fil0" d="M5171 5609c-6,10 -16,18 -28,22 -29,11 -62,-4 -73,-33 -10,-26 1,-55 25,-69 25,27 51,53 76,80z"></path>
    <path class="fil0" d="M5286 5852c11,29 -4,62 -33,73 -29,11 -62,-4 -73,-33 -11,-29 4,-62 33,-73 29,-11 62,4 73,33z"></path>
    <polygon class="fil0" points="5480,6001 5385,5958 5462,5903 5472,5914 "></polygon>
    <path class="fil5" d="M5395 6146c6,17 4,35 -5,49 -28,-19 -60,-41 -94,-64 6,-8 15,-15 25,-19 29,-11 62,4 73,33z"></path>
    <polygon class="fil0" points="4480,4366 4385,4322 4470,4262 "></polygon>
    <path class="fil0" d="M4244 4788l-16 -7c2,-30 5,-58 8,-85l9 93z"></path>
    <path class="fil0" d="M4395 4511c11,29 -4,62 -33,73 -29,11 -62,-4 -73,-33 -11,-29 4,-62 33,-73 29,-11 62,4 73,33z"></path>
    <polygon class="fil0" points="4589,4660 4494,4616 4579,4556 "></polygon>
    <path class="fil0" d="M4708 4455c0,0 -1,0 -1,1 -29,11 -62,-4 -73,-33 -11,-29 4,-62 33,-73 2,-1 5,-2 7,-2 11,33 22,70 33,108z"></path>
    <path class="fil0" d="M5222 6080c-42,-29 -80,-57 -108,-78 -316,-240 -541,-400 -631,-515 -172,-220 -221,-370 -262,-605l0 0c31,175 66,302 152,446l0 0c2,3 4,6 6,9l0 0c29,47 63,96 105,149 19,25 45,51 76,81l0 0c1,1 2,2 3,3l0 0c43,40 97,84 160,134l0 0c23,18 47,37 73,56l0 0c92,70 199,150 319,241 28,21 66,48 108,78l0 0z"></path>
    <path class="fil0" d="M5480 6256c0,0 -37,-25 -89,-60 9,-14 11,-32 5,-49 -8,-23 -30,-37 -53,-37 -7,0 -13,1 -20,4 -10,4 -19,11 -25,19 -25,-17 -51,-35 -75,-52 -42,-29 -80,-57 -108,-78 -120,-91 -228,-171 -319,-241 1,0 2,-1 4,-1 12,-5 22,-13 28,-23 48,33 99,64 153,91 456,228 601,252 641,252 11,0 14,-2 14,-2l-18 20 -113 129 -25 28zm-758 -551c-63,-50 -117,-94 -160,-134l0 -5 -3 2c-31,-29 -57,-56 -76,-81 -41,-53 -76,-102 -105,-149l84 38 -1 -9c72,103 163,209 275,302 -9,10 -14,23 -15,36zm-349 -376c-86,-144 -121,-272 -152,-446 0,0 0,0 0,0 0,0 16,57 53,145l-16 11 26 12c31,70 74,156 132,248l-43 30z"></path>
    <path class="fil0" d="M4284 5050l-26 -12 16 -11c3,8 7,15 10,23z"></path>
    <path class="fil0" d="M4462 5376l-84 -38c-2,-3 -4,-6 -6,-9l0 0 43 -30c14,23 30,46 46,69l1 9z"></path>
    <path class="fil10" d="M4562 5571c-1,-1 -2,-2 -3,-3l0 0 3 -2 0 5z"></path>
    <path class="fil0" d="M4795 5761c-25,-20 -50,-38 -73,-56l0 0c0,-13 6,-26 15,-36 29,24 59,46 90,68 -6,10 -16,18 -28,23 -1,0 -2,1 -4,1l0 0z"></path>
    <path class="fil0" d="M5391 6196c-28,-19 -60,-41 -94,-64l0 0c6,-8 15,-15 25,-19 7,-2 13,-4 20,-4 23,0 45,14 53,37 6,17 4,35 -5,49l0 0z"></path>
    <path class="fil0" d="M5496 5019c6,92 -63,171 -155,178 -92,6 -171,-63 -178,-155 -6,-92 63,-171 155,-178 92,-6 171,63 178,155z"></path>
    <path class="fil0" d="M5330 4881c-3,0 -7,0 -10,0 -40,3 -76,21 -102,51 -26,30 -39,68 -36,108 6,82 77,144 159,138 82,-6 144,-77 138,-159 -3,-40 -21,-76 -51,-102 -27,-24 -62,-37 -98,-37zm0 302c-79,0 -147,-62 -152,-142 -3,-41 10,-80 37,-111 27,-31 64,-49 105,-52 41,-3 80,10 111,37 31,27 49,64 52,105 6,84 -58,157 -142,163 -4,0 -7,0 -11,0z"></path>
    <path class="fil0" d="M5330 4901c-3,0 -6,0 -9,0 -34,2 -66,18 -88,44 -23,26 -34,59 -31,94 2,34 18,66 44,88 26,23 59,34 94,31 34,-2 66,-18 88,-44 23,-26 34,-59 31,-94 -2,-34 -18,-66 -44,-88 -24,-21 -53,-32 -84,-32zm0 261c-69,0 -127,-53 -132,-123 -5,-73 50,-136 123,-141 73,-5 136,50 141,123 5,73 -50,136 -123,141 -3,0 -6,0 -9,0z"></path>
    <path class="fil0" d="M5447 5022c4,65 -45,121 -110,126 -65,4 -121,-45 -126,-110 -4,-65 45,-121 109,-126 65,-4 121,45 126,110z"></path>
    <path class="fil0" d="M5377 4965c3,0 6,1 9,2 3,2 4,4 4,7 0,1 0,3 -1,5l-44 114c-1,2 -3,4 -5,6 -2,1 -5,2 -7,2 -3,0 -5,0 -7,-1 -2,-1 -4,-3 -5,-5l-59 -107c-1,-2 -1,-3 -1,-4 0,-3 1,-6 3,-8 2,-2 5,-3 8,-4 2,0 4,0 6,1 2,1 3,2 4,4l49 92 36 -98c2,-4 5,-7 9,-7z"></path>
    <path class="fil0" d="M8552 7766c-15,-7 -36,-5 -48,5 -32,25 -97,63 -182,50 -52,-8 -60,-24 -76,-33 -22,-13 -51,-20 -78,-10 -40,14 -65,34 -93,30 -50,-7 -53,-24 -82,-34 -17,-1 -42,8 -68,18 -42,15 -86,30 -103,2 -11,-17 7,-38 22,-55 7,-8 15,-15 23,-22 7,-6 15,-13 22,-19 3,-3 5,-5 8,-8 7,-8 15,-16 22,-23 25,-25 53,-49 83,-72 73,-55 167,-108 274,-112 19,-1 38,0 57,2 238,31 243,140 330,191 3,2 6,4 9,6 94,63 -5,133 -120,83z"></path>
    <polygon class="fil0" points="9128,6155 8963,6397 9254,6476 9310,6212 "></polygon>
    <path class="fil0" d="M9277 6476c-4,11 -12,37 -21,68 -18,59 -44,137 -71,173 -1,1 -2,2 -2,3 -1,1 -3,3 -4,4 0,0 0,2 -1,5 0,2 -1,4 -2,7 0,1 -1,3 -1,5 -6,18 -18,45 -41,44 -35,-1 -276,-72 -287,-102 -10,-25 -563,-120 -643,-214 -15,-17 -25,-36 -31,-54 0,-1 -1,-2 -1,-3 -2,-8 -3,-15 -4,-22 -5,-70 58,-132 167,-125 40,3 94,6 154,8 5,0 9,0 14,0 14,1 28,1 43,1 0,0 0,0 0,0 0,0 0,0 1,0 21,1 43,1 64,1 7,0 13,0 20,0 13,0 25,0 38,0 2,0 4,0 6,0 17,0 34,0 50,-1 5,0 11,0 16,-1 15,0 29,-1 42,-1 1,0 1,0 1,0 56,-3 100,-8 118,-16 162,-75 81,102 81,102 0,0 350,-31 293,117z"></path>
    <path class="fil0" d="M8167 6389c1,7 2,15 4,22 0,1 1,2 1,3 124,42 341,115 410,131 102,24 251,68 336,112 57,30 176,63 257,84 0,-2 1,-3 2,-5 2,-7 3,-12 3,-12 1,-1 2,-3 4,-4 -81,-21 -200,-54 -255,-82 -87,-45 -238,-90 -341,-114 -69,-16 -298,-93 -419,-135z"></path>
    <path class="fil0" d="M8545 6274c-3,21 -4,45 1,70 3,15 -8,30 -23,33 -7,1 -13,0 -19,-3 -7,-4 -13,-11 -14,-20 -5,-30 -5,-57 -2,-82 5,0 9,0 14,1 14,1 28,1 43,1z"></path>
    <path class="fil0" d="M8668 6276c-8,30 -10,61 0,86 6,14 -1,31 -15,37 -8,3 -17,3 -25,-1 -5,-3 -10,-8 -12,-14 -14,-34 -14,-72 -6,-108 7,0 13,0 20,0 13,0 25,0 38,0z"></path>
    <path class="fil0" d="M8783 6274c-7,31 -10,61 -2,85 6,15 -2,31 -17,37 -8,3 -17,2 -24,-2 -6,-3 -11,-8 -13,-15 -12,-31 -10,-68 -3,-103 5,0 11,0 16,0 15,0 29,-1 42,-1z"></path>
    <path class="fil0" d="M9057 6159c0,0 -24,97 -12,120 12,23 200,89 230,76 30,-13 49,-135 49,-135l-263 -77 -5 16z"></path>
    <path class="fil0" d="M9075 6184c-4,16 -8,30 -10,46 -3,15 -4,30 -7,46 -6,-15 -5,-32 -3,-48 4,-16 9,-32 20,-44z"></path>
    <path class="fil0" d="M9111 6202c-4,16 -8,30 -10,46 -4,15 -4,30 -7,46 -6,-15 -5,-32 -3,-48 4,-16 9,-31 20,-44z"></path>
    <path class="fil0" d="M9157 6223c-4,16 -8,30 -10,46 -3,15 -4,30 -7,46 -6,-15 -5,-32 -3,-48 3,-16 9,-32 20,-44z"></path>
    <path class="fil0" d="M9289 6250c3,16 -1,32 -7,48 -6,15 -15,29 -28,39 7,-15 14,-28 19,-43 6,-14 10,-29 16,-44z"></path>
    <path class="fil0" d="M9249 6246c3,16 -1,32 -7,48 -7,15 -15,29 -28,39 7,-15 14,-28 19,-43 6,-14 11,-29 16,-44z"></path>
    <path class="fil0" d="M9206 6235c3,16 -1,32 -7,48 -7,15 -15,29 -28,39 7,-15 14,-28 19,-43 6,-14 11,-29 16,-44z"></path>
    <polygon class="fil0" points="10823,7368 10823,7724 11126,7724 11126,7372 "></polygon>
    <path class="fil0" d="M11144 7679c0,12 3,39 6,71 6,62 12,144 -1,187 0,1 -1,2 -1,3 -1,2 -1,3 -2,5 0,0 1,2 1,5 0,2 1,4 1,7 0,1 0,3 1,5 1,19 0,48 -22,56 -33,13 -282,38 -305,14 -18,-20 -566,102 -676,46 -21,-10 -37,-24 -49,-38 0,-1 -1,-1 -2,-2 -5,-6 -9,-13 -12,-19 -31,-63 4,-145 107,-179 38,-12 89,-30 145,-51 4,-1 9,-3 13,-5 14,-5 27,-10 41,-15 0,0 1,0 1,0 20,-7 40,-15 60,-23 6,-3 12,-5 19,-8 12,-5 23,-9 35,-14 2,-1 4,-2 6,-2 16,-7 31,-13 46,-20 5,-2 10,-4 15,-7 13,-6 26,-12 39,-17 1,0 1,0 1,-1 51,-24 89,-45 103,-60 122,-130 114,63 114,63 0,0 312,-161 315,-3z"></path>
    <path class="fil0" d="M10084 8018c3,7 7,13 12,19 1,1 1,1 2,2 131,-8 360,-23 429,-34 103,-16 258,-32 353,-24 64,6 187,-9 270,-20 0,-2 0,-4 0,-5 -1,-7 -2,-12 -2,-12 1,-2 1,-3 2,-5 -82,11 -205,26 -267,20 -98,-9 -254,7 -359,24 -70,11 -311,27 -439,34z"></path>
    <path class="fil0" d="M10390 7769c5,21 13,43 27,65 8,13 4,31 -9,39 -6,4 -12,5 -18,4 -8,-1 -16,-6 -21,-13 -16,-25 -26,-51 -33,-75 4,-2 9,-3 13,-5 13,-5 27,-10 40,-15z"></path>
    <path class="fil0" d="M10505 7724c4,31 14,61 33,79 11,11 11,29 0,40 -6,6 -15,9 -23,8 -6,-1 -12,-3 -17,-8 -26,-26 -40,-62 -47,-98 6,-3 12,-5 19,-7 12,-5 23,-9 35,-14z"></path>
    <path class="fil0" d="M10610 7678c5,31 14,61 31,79 11,12 10,30 -1,40 -7,6 -15,8 -22,7 -6,-1 -13,-4 -18,-9 -23,-24 -35,-59 -42,-94 5,-2 10,-4 15,-6 13,-6 26,-12 39,-17z"></path>
    <path class="fil0" d="M10769 7303c0,0 6,135 30,160 24,25 294,40 327,11 33,-29 13,-194 13,-194l-370 0 0 22z"></path>
    <path class="fil0" d="M8839 533c0,0 -82,259 142,335 224,76 246,-7 246,-7l-104 -393 -284 64z"></path>
    <path class="fil0" d="M11533 3775c-13,724 -267,3101 -376,3536 -172,35 -270,26 -404,-12 -16,-4 -28,-16 -34,-30 -157,-599 -134,-2450 -185,-2944 -5,-50 -11,-86 -18,-105 -1,-2 -1,-4 -2,-6 -78,-225 -274,-1039 -274,-1039l-82 -163 1078 -347c0,0 309,386 297,1110z"></path>
    <path class="fil0" d="M10789 4074l-184 83c-21,17 -53,36 -91,58 -70,40 -164,88 -266,141 -342,177 -780,409 -748,576 45,627 -17,1018 -148,1288 -64,60 -273,51 -328,-17 -130,-349 -100,-822 -222,-1360 -89,-369 -76,-546 407,-1004 483,-458 737,-826 737,-826l502 0 343 1061z"></path>
    <path class="fil0" d="M11456 3145c-13,48 -47,82 -98,106 -289,136 -1100,-78 -1320,-140 -35,-104 -70,-197 -103,-265l-28 -145 -53 25 -354 167 -51 24c0,0 -153,-184 -280,-604 -102,-551 225,-925 225,-925l608 -460c468,-301 1209,82 1209,82 10,16 13,42 13,75 -2,147 -87,427 -112,507 -4,14 -7,22 -7,22l-246 -8c102,114 534,665 597,1538z"></path>
    <path class="fil0" d="M9900 1354c-101,92 -388,71 -506,34 30,-40 53,-77 69,-115 24,-61 27,-124 7,-204 -16,-65 -42,-128 -75,-186l189 -303c0,0 122,217 223,303 9,8 19,15 28,21 90,57 166,24 166,24 38,165 17,318 -102,426z"></path>
    <path class="fil0" d="M9462 1274c13,-34 20,-68 20,-106 0,-30 -4,-62 -13,-98 -16,-65 -42,-128 -75,-186l189 -303c0,0 122,217 223,303 9,8 19,15 28,21 3,135 -49,337 -373,369z"></path>
    <path class="fil0" d="M9042 663c0,0 34,210 117,315 83,105 213,209 321,177 108,-32 162,-121 184,-197 22,-76 15,-227 15,-227l-212 -262 -426 194z"></path>
    <path class="fil0" d="M9508 656c0,0 11,-165 80,-145 69,20 126,93 110,179 -15,85 -48,94 -48,94l-143 -127z"></path>
    <path class="fil0" d="M11083 3296c-173,0 -380,-31 -568,-69l0 0c188,38 396,69 568,69 37,0 72,-1 105,-4l0 0c-33,3 -68,4 -105,4z"></path>
    <path class="fil0" d="M10515 3227c-46,-9 -90,-19 -133,-28 43,10 87,19 133,28l0 0z"></path>
    <path class="fil0" d="M10003 3013l-37 0 -60 -312 0 0 28 145c22,46 45,103 69,166z"></path>
    <path class="fil0" d="M10038 3111c-36,-10 -56,-16 -56,-16l-16 -83 37 0c12,31 23,64 35,99z"></path>
    <path class="fil0" d="M11084 3296c-173,0 -380,-31 -568,-69 -46,-9 -90,-19 -133,-28 -150,-34 -276,-68 -345,-87 -12,-34 -23,-67 -35,-99 -23,-64 -46,-121 -69,-166l-28 -145c0,0 -43,-307 -162,-447 68,51 131,112 188,175 48,53 92,110 125,174 36,68 34,146 74,211 64,105 195,171 302,224 111,56 227,102 346,139 125,39 282,86 430,88l-21 25c-33,3 -68,4 -105,4z"></path>
    <path class="fil0" d="M9437 1711l101 49 -8 -112 -93 62zm119 77l-152 -74 140 -94 12 169z"></path>
    <path class="fil0" d="M9880 2009l101 49 -8 -112 -93 62zm119 77l-152 -74 140 -94 12 169z"></path>
    <path class="fil0" d="M9378 2332l100 49 -8 -112 -93 62zm119 77l-152 -74 140 -94 12 169z"></path>
    <path class="fil0" d="M9986 1463l101 49 -8 -112 -93 62zm119 77l-152 -74 140 -94 12 169z"></path>
    <path class="fil0" d="M10035 2458l100 49 -8 -112 -93 62zm119 77l-152 -74 140 -94 12 169z"></path>
    <path class="fil0" d="M10475 2299l101 49 -8 -112 -93 62zm119 77l-152 -74 140 -94 12 169z"></path>
    <path class="fil0" d="M10504 2655l101 49 -8 -112 -93 62zm119 77l-152 -74 140 -94 12 169z"></path>
    <path class="fil0" d="M10035 2882l100 49 -8 -112 -93 62zm119 77l-152 -74 140 -94 12 169z"></path>
    <path class="fil0" d="M10393 3066l100 49 -8 -112 -93 62zm119 77l-152 -74 140 -94 12 169z"></path>
    <path class="fil0" d="M10832 2906l101 49 -8 -112 -93 62zm119 77l-152 -74 140 -94 12 169z"></path>
    <path class="fil0" d="M11015 2513l101 49 -8 -112 -93 62zm119 77l-152 -74 140 -94 12 169z"></path>
    <path class="fil0" d="M10862 3215l100 49 -8 -112 -93 62zm119 77l-152 -74 140 -94 12 169z"></path>
    <path class="fil0" d="M11302 3056l101 49 -8 -112 -93 62zm119 77l-152 -74 140 -94 12 169z"></path>
    <path class="fil0" d="M10596 1395l101 49 -8 -112 -93 62zm119 77l-152 -74 140 -94 12 169z"></path>
    <path class="fil0" d="M10344 1078l101 49 -8 -112 -93 62zm119 77l-152 -74 140 -94 12 169z"></path>
    <path class="fil0" d="M10816 1008l101 49 -8 -112 -93 62zm119 77l-152 -74 140 -94 12 169z"></path>
    <path class="fil0" d="M10917 2062l101 49 -8 -112 -93 62zm119 77l-152 -74 140 -94 12 169z"></path>
    <path class="fil0" d="M10535 1892l101 49 -8 -112 -93 62zm119 77l-152 -74 140 -94 12 169z"></path>
    <path class="fil0" d="M10732 1590c71,137 17,305 -119,376 -137,71 -305,17 -376,-119 -71,-137 -17,-305 119,-376 137,-71 305,-17 376,119z"></path>
    <path class="fil0" d="M10484 1469c-39,0 -78,9 -114,28 -122,63 -170,214 -107,336 63,122 214,170 336,107 122,-63 170,-214 107,-336 -31,-59 -82,-103 -146,-123 -25,-8 -50,-12 -76,-12zm1 504c-26,0 -52,-4 -78,-12 -65,-21 -118,-65 -149,-126 -65,-125 -16,-279 109,-344 60,-31 130,-37 195,-17 65,21 118,65 149,126 65,125 16,279 -109,344 -37,19 -77,29 -117,29z"></path>
    <path class="fil0" d="M10485 1502c-34,0 -68,8 -99,24 -105,55 -147,185 -92,290 26,51 71,89 126,106 55,17 113,12 164,-14 105,-55 147,-185 92,-290 -27,-51 -71,-89 -126,-106 -21,-7 -44,-10 -65,-10zm1 436c-22,0 -45,-3 -67,-10 -56,-18 -102,-57 -129,-109 -56,-108 -13,-241 95,-297 52,-27 112,-32 168,-14 56,18 102,56 129,109 56,108 13,241 -94,297 -32,16 -66,25 -101,25z"></path>
    <path class="fil0" d="M10660 1627c50,97 12,216 -84,266 -97,50 -216,12 -266,-84 -50,-97 -12,-216 84,-266 97,-50 215,-12 266,84z"></path>
    <path class="fil0" d="M10514 1584c5,-2 10,-3 15,-2 5,1 9,4 11,8 1,2 2,5 2,8l9 204c0,4 -1,8 -3,12 -2,4 -6,7 -9,9 -4,2 -8,3 -12,3 -4,0 -8,-2 -12,-4l-161 -125c-2,-2 -4,-4 -5,-6 -2,-5 -2,-9 0,-14 2,-5 6,-9 11,-11 3,-2 6,-2 10,-2 3,0 7,1 10,4l136 108 -9 -174c0,-8 3,-13 10,-17z"></path>
    <path class="fil0" d="M10801 7329c1,22 2,42 4,63 1,10 2,21 4,31 1,10 4,21 5,32 -13,-18 -20,-39 -22,-61 -1,-11 -1,-22 1,-33 2,-11 4,-22 9,-32z"></path>
    <path class="fil0" d="M10855 7338c1,22 2,42 4,63 1,10 2,21 4,31 1,10 4,21 5,32 -13,-18 -20,-39 -22,-61 -1,-11 -1,-22 1,-33 2,-11 4,-22 9,-32z"></path>
    <path class="fil0" d="M10922 7348c1,22 2,42 4,63 1,10 2,21 4,31 1,10 4,21 5,32 -13,-18 -20,-39 -22,-61 -1,-11 -1,-22 1,-33 1,-11 4,-22 9,-32z"></path>
    <path class="fil0" d="M11104 7334c5,10 7,21 9,32 2,11 2,22 1,33 -2,22 -9,43 -22,61 1,-11 4,-21 5,-32 1,-10 3,-21 4,-31 2,-21 3,-41 4,-63z"></path>
    <path class="fil0" d="M11050 7343c5,10 7,21 9,32 2,11 2,22 1,33 -2,22 -9,43 -22,61 1,-11 4,-21 5,-32 1,-10 3,-21 4,-31 2,-21 3,-41 4,-63z"></path>
    <path class="fil0" d="M10990 7346c5,10 7,21 9,32 2,11 1,22 1,33 -2,22 -9,43 -22,61 1,-11 4,-21 5,-32 1,-10 3,-21 4,-31 2,-21 3,-41 4,-63z"></path>
    <path class="fil0" d="M9204 6259c-19,0 -37,-1 -56,-4 -3,0 -6,-1 -9,-1 -13,-2 -26,-5 -39,-8 -3,-1 -6,-2 -9,-3 -10,-3 -19,-7 -27,-11 -3,-1 -6,-3 -9,-5 -13,-7 -24,-16 -32,-25 0,0 39,-58 93,-155l389 -462c-21,270 -75,473 -153,634 -21,20 -59,32 -102,37 -2,0 -3,0 -5,1 -13,1 -27,2 -40,2z"></path>
    <path class="fil0" d="M9367 5456c48,-165 78,-341 69,-511 -22,-404 487,-542 812,-589 -330,171 -750,393 -750,559 0,6 1,12 2,17 9,126 14,242 15,349l-147 175z"></path>
    <path class="fil0" d="M10968 7333c-74,0 -139,-12 -216,-34 -16,-4 -28,-16 -34,-30 -154,-587 -135,-2373 -181,-2911l17 -20c50,50 127,268 153,1115 38,1284 297,1760 450,1858 -74,15 -134,22 -189,22z"></path>
    <path class="fil0" d="M9047 6839l-422 473c0,0 0,0 -1,1l-259 290c-197,187 -519,213 -734,35 -311,-276 -88,-713 -88,-713l452 -548 386 192 244 139 422 131z"></path>
    <path class="fil0" d="M8381 6569l-18 -9c0,0 0,0 0,0l18 9z"></path>
    <path class="fil0" d="M8037 7201c-5,0 -9,-1 -12,-4 -47,-39 170,-386 337,-638l18 9 244 139c-203,201 -510,493 -587,493z"></path>
    <path class="fil0" d="M8120 6802l0 0 1 0c0,0 -1,1 -1,1z"></path>
    <path class="fil0" d="M12699 1788l-4045 4807c-34,40 -93,45 -133,11l0 0c-40,-34 -45,-93 -11,-133l4045 -4807c34,-40 93,-45 133,-11 40,34 45,93 12,133z"></path>
    <path class="fil0" d="M8582 6629c-21,0 -43,-7 -61,-22 -7,-6 -12,-12 -17,-19 0,0 0,0 0,0 5,7 10,13 17,18l0 0c18,15 39,22 61,22 14,0 29,-3 42,-10 0,0 0,0 0,0 -13,7 -28,10 -42,10z"></path>
    <path class="fil0" d="M8624 6619c0,0 0,0 0,0 11,-6 21,-13 30,-24l22 -26 0 0 -22 26c-9,10 -19,18 -30,24zm-120 -31c0,0 0,0 0,0 -11,-16 -17,-35 -17,-54 0,-5 0,-11 1,-16 0,0 0,0 0,0 -4,24 1,49 15,70zm187 -37l0 0 60 -72 -60 72zm-196 -54c0,0 0,0 0,0 0,0 0,0 0,0 0,0 0,0 0,0 0,0 0,0 0,0z"></path>
    <path class="fil0" d="M8676 6569l0 0 16 -19 0 0 -16 19zm-187 -51c0,0 0,0 0,0 1,-7 3,-14 6,-21 0,0 0,0 0,0 -3,7 -5,14 -6,21z"></path>
    <path class="fil0" d="M8582 6629c-21,0 -43,-7 -61,-22l0 0c-7,-6 -12,-12 -17,-18 -14,-21 -20,-46 -15,-70 1,-7 3,-14 6,-21 0,0 0,0 0,0 5,9 12,17 20,24 18,15 39,22 61,22 27,0 53,-11 72,-34l4045 -4807c6,-7 11,-15 14,-23 9,15 13,32 13,48 0,21 -7,43 -22,61l-3947 4691 -60 72 -16 19 -22 26c-9,10 -19,18 -30,24 -13,7 -28,10 -42,10z"></path>
    <path class="fil0" d="M8083 7128l0 0c-63,-52 437,-763 437,-763 52,-63 146,-72 209,-20 63,52 72,146 20,209 0,0 -603,627 -666,575z"></path>
    <path class="fil0" d="M7972 7757c-40,0 -79,-4 -118,-13 -96,-78 -169,-178 -337,-256 -37,-76 -51,-156 -51,-231 0,-181 78,-333 78,-333 0,0 -51,499 213,620 76,35 154,49 230,49 327,0 620,-265 638,-281l-259 290c-107,101 -250,155 -393,155z"></path>
    <path class="fil0" d="M10476 4518c-44,156 -251,235 -264,155 -13,-79 -43,-171 -43,-171 0,0 -49,59 -77,91 -27,32 -45,-29 3,-142 88,-206 8,-287 -60,-499 -67,-206 -413,-837 -536,-1060l354 -167 7 9c23,18 48,57 74,111 33,68 68,161 103,265 135,403 270,981 292,1025 32,64 191,225 146,382z"></path>
    <path class="fil0" d="M11812 2895c-36,-26 8,-73 -25,-132 -34,-59 -77,-91 -77,-91l-64 76c-64,-76 -1,-199 10,-283 11,-85 -186,-731 -207,-769 -14,-25 -208,-73 -336,-102 25,-80 110,-360 112,-507 166,88 482,272 525,427 59,212 76,907 97,949 21,42 161,29 174,185 13,157 -145,267 -208,248z"></path>
    <path class="fil0" d="M6888 7798c22,-424 42,-848 60,-1272 18,-424 35,-848 49,-1273 14,-424 26,-849 31,-1273l2 -159 0 -159c0,-106 1,-212 -1,-318 -2,-106 -2,-212 -9,-318 -3,-53 -4,-106 -9,-158l-17 -157 0 -2c-1,-7 5,-14 12,-15 7,-1 14,4 15,12l19 159c6,53 7,106 10,159 7,106 9,212 12,319 4,106 4,212 5,319l1 159 0 159c0,425 -8,850 -17,1274 -9,425 -22,849 -35,1274 -14,425 -29,849 -46,1273 -1,22 -20,40 -42,39 -22,-1 -40,-20 -39,-42l0 -1z"></path>
    <path class="fil11" d="M6978 5865c-74,-126 -155,-250 -239,-371 -84,-121 -173,-238 -266,-353 -46,-58 -94,-113 -142,-170l-74 -82c-24,-28 -49,-55 -75,-81 -100,-108 -208,-209 -317,-308l0 0c-5,-4 -5,-11 -1,-16 4,-4 11,-5 15,-1 111,98 222,197 324,304 26,26 52,53 77,80l76 82c49,56 99,111 146,168 95,114 187,230 274,351 87,120 171,242 248,370 8,13 4,29 -9,37 -13,8 -29,4 -37,-9l0 0 0 -1z"></path>
    <path class="fil11" d="M7035 4034c-46,-79 -96,-156 -149,-231 -53,-75 -108,-149 -166,-220 -58,-72 -118,-141 -181,-208 -62,-68 -130,-130 -198,-192l0 0c-3,-3 -3,-7 0,-10 3,-3 7,-3 10,-1 69,61 138,123 202,190 65,66 127,135 186,206 59,71 117,144 171,219 54,75 106,151 155,231 5,8 2,18 -6,23 -8,5 -18,2 -23,-6l0 0 0 0z"></path>
    <path class="fil11" d="M7038 3458c38,-64 80,-124 123,-184 43,-60 89,-118 136,-174 47,-57 97,-111 148,-164 51,-53 106,-103 161,-151 2,-2 6,-2 8,1 2,2 2,6 0,8l0 0c-54,49 -108,99 -157,153 -50,53 -98,109 -144,166 -46,57 -90,116 -132,176 -42,60 -82,122 -119,184l0 0c-4,6 -12,8 -18,5 -6,-4 -8,-12 -5,-18l0 0z"></path>
    <path class="fil11" d="M7005 5251c78,-128 161,-250 248,-370 87,-120 179,-237 274,-351 47,-57 97,-112 146,-168l76 -82c25,-27 51,-54 77,-80 103,-107 213,-207 324,-304 5,-4 12,-4 16,1 4,5 4,11 -1,15l0 0c-109,99 -217,200 -317,308 -26,26 -51,53 -75,81l-74 82c-48,56 -96,112 -142,170 -93,115 -182,232 -266,353 -84,121 -165,244 -239,371l0 1c-7,13 -24,17 -37,10 -13,-7 -17,-24 -10,-37l0 0z"></path>
    <path class="fil12" d="M7687 2645c-15,90 -86,153 -86,153 0,0 -47,-83 -32,-172 15,-90 86,-153 86,-153 0,0 47,83 32,172z"></path>
    <path class="fil12" d="M7767 2851c-91,3 -167,-54 -167,-54 0,0 72,-62 163,-65 91,-3 167,54 167,54 0,0 -72,62 -163,65z"></path>
    <path class="fil12" d="M6214 3065c85,32 134,114 134,114 0,0 -90,30 -175,-2 -85,-32 -134,-114 -134,-114 0,0 90,-30 175,2z"></path>
    <path class="fil12" d="M6433 3025c-14,90 -85,154 -85,154 0,0 -47,-82 -33,-172 14,-90 85,-154 85,-154 0,0 48,82 33,172z"></path>
    <path class="fil11" d="M7014 4882c-46,-79 -96,-156 -149,-231 -53,-75 -108,-149 -166,-220 -58,-72 -118,-141 -181,-208 -62,-68 -130,-130 -198,-192l0 0c-3,-3 -3,-7 0,-10 3,-3 7,-3 10,-1 70,61 138,123 202,190 65,66 127,135 186,206 59,71 117,144 171,219 54,75 106,151 155,231 5,8 2,18 -6,23 -8,5 -18,2 -23,-6l0 0 0 0z"></path>
    <path class="fil12" d="M6193 3913c85,32 134,114 134,114 0,0 -90,30 -175,-2 -85,-32 -134,-114 -134,-114 0,0 90,-30 175,2z"></path>
    <path class="fil12" d="M6411 3873c-14,90 -85,154 -85,154 0,0 -48,-82 -33,-172 14,-90 85,-154 85,-154 0,0 47,82 33,172z"></path>
    <path class="fil12" d="M6522 4249c85,32 134,114 134,114 0,0 -90,30 -175,-2 -85,-32 -134,-114 -134,-114 0,0 90,-30 175,2z"></path>
    <path class="fil12" d="M6740 4210c-14,90 -85,154 -85,154 0,0 -47,-82 -33,-172 14,-90 85,-154 85,-154 0,0 47,82 33,172z"></path>
    <path class="fil12" d="M8235 3747c-12,90 -81,156 -81,156 0,0 -49,-81 -37,-171 12,-90 81,-156 81,-156 0,0 49,81 37,171z"></path>
    <path class="fil12" d="M8323 3951c-91,6 -169,-48 -169,-48 0,0 70,-65 160,-71 91,-6 169,48 169,48 0,0 -70,65 -160,71z"></path>
    <path class="fil12" d="M8002 3966c-12,90 -81,156 -81,156 0,0 -49,-81 -37,-171 12,-90 81,-156 81,-156 0,0 49,81 37,171z"></path>
    <path class="fil12" d="M8090 4170c-91,6 -169,-48 -169,-48 0,0 70,-65 160,-71 91,-6 169,48 169,48 0,0 -70,65 -160,71z"></path>
    <path class="fil12" d="M5728 4462c91,-4 167,52 167,52 0,0 -71,63 -162,67 -91,4 -167,-52 -167,-52 0,0 71,-63 162,-67z"></path>
    <path class="fil12" d="M5914 4341c22,88 -18,174 -18,174 0,0 -76,-57 -98,-145 -22,-88 18,-174 18,-174 0,0 76,57 98,145z"></path>
    <path class="fil12" d="M6848 2669c91,-4 167,52 167,52 0,0 -71,63 -162,67 -91,4 -167,-52 -167,-52 0,0 71,-63 162,-67z"></path>
    <path class="fil12" d="M7158 2633c-90,13 -154,83 -154,83 0,0 82,48 172,35 90,-13 154,-83 154,-83 0,0 -82,-48 -172,-35z"></path>
    <path class="fil12" d="M7033 2547c22,88 -18,174 -18,174 0,0 -76,-57 -98,-145 -22,-88 18,-174 18,-174 0,0 76,57 98,145z"></path>
    <path class="fil0" d="M7655 8012c-41,-15 -95,-10 -130,12 -86,56 -261,145 -489,114 -140,-19 -163,-54 -205,-75 -60,-29 -139,-44 -210,-22 -108,33 -174,78 -250,70 -134,-16 -175,-97 -253,-118 -31,-1 -62,0 -93,1 -93,3 -186,6 -271,-47 -80,-50 -1,-127 108,-198 107,-70 243,-134 282,-160 195,-126 478,-207 765,-218 52,-2 103,0 153,5 588,63 650,279 836,402 16,11 34,21 52,30 9,5 17,9 25,13 253,143 -11,302 -321,190z"></path>
    <path class="fil0" d="M7129 8145c-30,0 -61,-2 -93,-6 -140,-19 -163,-54 -205,-75 -40,-20 -89,-33 -138,-33 -24,0 -49,3 -72,10 -99,30 -162,71 -231,71 -6,0 -13,0 -19,-1 -134,-16 -175,-97 -253,-118 -9,0 -19,0 -28,0 -22,0 -43,1 -65,1 -22,1 -44,1 -65,1 -71,0 -141,-8 -205,-48 -23,-14 -32,-31 -32,-48 0,-45 63,-99 140,-150 39,51 111,120 211,120 7,0 13,0 20,-1 49,-5 82,-7 106,-7 60,0 69,13 144,38 13,4 28,6 44,6 43,0 95,-13 149,-26 54,-13 111,-26 165,-26 31,0 60,4 87,15 93,37 248,112 402,112 79,0 158,-20 228,-75 85,-68 172,-80 249,-80 22,0 44,1 64,2 20,1 39,2 57,2 51,0 90,-9 111,-50 16,11 34,21 52,30 9,5 17,9 25,13 71,40 101,81 101,118 0,63 -90,110 -217,110 -62,0 -132,-11 -206,-38 -16,-6 -34,-9 -52,-9 -28,0 -57,7 -78,21 -74,49 -213,121 -396,121z"></path>
   </g>
  </g>
 </g>
</svg>
