<?xml version="1.0" encoding="UTF-8"?>
<!-- Creator: CorelDRAW 2020 (64-Bit) -->
<svg xmlns="http://www.w3.org/2000/svg" xmlns:xlink="http://www.w3.org/1999/xlink" xmlns:xodm="http://www.corel.com/coreldraw/odm/2003" xml:space="preserve" width="69.2674mm" height="129.822mm" version="1.1" style="shape-rendering:geometricPrecision; text-rendering:geometricPrecision; image-rendering:optimizeQuality; fill-rule:evenodd; clip-rule:evenodd" viewBox="0 0 5530 10364">
 <defs>
  <style type="text/css">
   <![CDATA[
    .fil0 {fill:#794721}
   ]]>
  </style>
 </defs>
 <g id="Layer_x0020_1">
  <metadata id="CorelCorpID_0Corel-Layer"></metadata>
  <path class="fil0" d="M853 1207c-57,0 -105,47 -105,105l0 0c0,57 47,104 105,104l166 0c58,0 105,-47 105,-104l0 0c0,-58 -47,-105 -105,-105l-166 0zm476 4646l167 0c57,0 104,-47 104,-104l0 0c0,-58 -47,-104 -104,-104l-167 0c-57,0 -104,47 -104,104l0 0c0,57 47,104 104,104l0 0zm2443 -1215c191,200 961,1179 1066,1649 104,470 -48,535 -344,779 -296,244 -1227,1336 -1262,1388 -35,52 61,187 61,300 0,113 83,274 204,383 122,109 205,144 200,218 -4,74 -165,187 -500,74 -335,-113 -313,-291 -535,-405 -222,-113 -439,-244 -422,-413 17,-170 398,-448 426,-448 28,0 59,30 59,30 0,0 459,-468 520,-694 61,-226 65,-435 296,-683 231,-248 474,-261 513,-313 39,-52 -205,-204 -461,-400 -257,-196 -305,-239 -305,-239l-7 -6c-239,-187 -419,-413 -419,-413 0,0 91,326 341,545 -4,5 -8,10 -11,15 -113,161 -303,417 -443,529 -213,170 -274,187 -383,426 -109,239 -296,252 -418,392 -122,139 -735,1157 -857,1457 -122,300 -126,374 -126,374 0,0 100,87 65,213 -35,126 -39,527 100,661 139,135 152,170 144,200 -9,30 -74,157 -270,87 -196,-70 -400,-483 -614,-631 -213,-148 -422,-439 -387,-583 35,-144 457,-370 505,-357 48,13 65,26 65,26 0,0 139,-270 174,-526 35,-257 70,-713 191,-983 122,-270 626,-500 748,-648 44,-54 91,-197 140,-370l-100 0c-58,0 -104,-47 -104,-104l0 0c0,-57 47,-105 104,-105l586 0c57,0 104,-47 104,-104l0 0c0,-57 -47,-105 -104,-105l-416 0c-57,0 -104,-47 -104,-104l0 0c0,-58 47,-104 104,-104l311 0c57,0 105,-47 105,-105l0 0c0,-58 -47,-104 -105,-104l-770 0c-57,0 -105,-47 -105,-105l0 0c0,-58 47,-105 105,-105l972 0c57,0 104,-47 104,-104l0 0c0,-57 -47,-105 -104,-105l-561 0c-57,0 -105,-47 -105,-104l0 0c0,-57 47,-104 105,-104l321 0c1,-63 6,-133 21,-212 54,-289 201,-465 265,-530l0 0c42,-214 29,-396 -3,-718 -33,-322 -33,-752 -76,-1036 -3,-18 -6,-38 -9,-60l-289 0c-40,6 -81,10 -121,11l-1 0c-106,9 -182,63 -166,193 16,131 19,303 4,446 -19,126 32,541 70,587 38,46 185,96 272,126 87,30 177,231 198,304 21,73 -93,181 -139,177 -45,-4 -208,79 -245,56 -37,-23 -114,-7 -151,-30 -108,-66 -142,-132 -154,-199l-593 0c-57,0 -105,-47 -105,-105l0 0c0,-58 47,-105 105,-105l569 0 0 0c54,-4 97,-49 97,-104l0 0c0,-58 -47,-104 -105,-104l-972 0c-57,0 -104,-47 -104,-105l0 0c0,-57 47,-105 104,-105l776 0 0 0c55,-3 99,-49 99,-104l0 0c0,-58 -47,-105 -105,-105l-165 0c-57,0 -105,-47 -105,-104l0 0c0,-58 47,-105 105,-105l269 0c57,0 104,-47 104,-105l0 0c0,-57 -47,-105 -104,-105l-586 0c-57,0 -104,-47 -104,-104l0 0c0,-57 47,-104 104,-104l400 0c57,0 105,-47 105,-104l0 0c0,-57 -47,-104 -105,-104l-163 0c-58,0 -105,-47 -105,-105l0 0c0,-57 47,-104 105,-104l584 0c57,0 104,-47 104,-104l0 0c0,-57 -47,-104 -104,-104l-1109 0c-57,0 -104,-47 -104,-105l0 0c0,-57 47,-104 104,-104l2154 0c57,0 104,-47 104,-104l0 0c0,-57 -47,-105 -104,-105l-1165 0c-57,0 -105,-47 -105,-104l0 0c0,-58 47,-105 105,-105l830 0c15,-7 32,-14 51,-20l0 0 0 0c230,-76 689,-58 782,-58 9,0 19,3 31,9 70,-88 137,-257 111,-343 -33,-109 -38,-578 262,-733 300,-155 613,19 774,136 161,117 138,480 140,523 3,44 -55,35 -56,119 -1,83 49,185 46,229 -3,44 -78,40 -93,57 -15,18 -63,136 -95,267 -33,131 -221,49 -344,27 -123,-22 -224,248 -207,267l0 0c35,39 68,73 96,101 19,19 36,38 51,57l0 0 0 0c134,167 135,339 101,564 -3,18 -5,35 -8,53 19,82 84,176 89,258 3,54 -10,143 -25,216 112,-19 222,-24 281,-45 120,-41 466,-277 489,-332 24,-55 0,-209 -13,-299 -14,-91 124,-263 179,-315 55,-52 204,-1 221,42 18,42 166,148 163,192 -3,44 46,104 43,148 -16,212 -125,238 -228,302 -50,31 -132,116 -280,344 -297,458 -836,711 -836,711 -124,74 -198,102 -278,50 -19,-167 -27,-485 -27,-485 0,0 -49,208 -80,361l-1 7c-55,217 -105,434 -119,505 -27,136 11,354 91,515l0 0z"></path>
 </g>
</svg>
