<?xml version="1.0" encoding="UTF-8"?>
<!-- Creator: CorelDRAW 2020 (64-Bit) -->
<svg xmlns="http://www.w3.org/2000/svg" xmlns:xlink="http://www.w3.org/1999/xlink" xmlns:xodm="http://www.corel.com/coreldraw/odm/2003" xml:space="preserve" width="212.871mm" height="116.997mm" version="1.1" style="shape-rendering:geometricPrecision; text-rendering:geometricPrecision; image-rendering:optimizeQuality; fill-rule:evenodd; clip-rule:evenodd" viewBox="0 0 19801 10883">
 <defs>
  <style type="text/css">
   <![CDATA[
    .str0 {stroke:#FEFEFE;stroke-width:19;stroke-miterlimit:22.9256}
    .fil0 {fill:#176637;fill-rule:nonzero}
    .fil1 {fill:#27AE60;fill-rule:nonzero}
    .fil11 {fill:#396910;fill-rule:nonzero}
    .fil7 {fill:#43761C;fill-rule:nonzero}
    .fil16 {fill:#55842C;fill-rule:nonzero}
    .fil6 {fill:#566472;fill-rule:nonzero}
    .fil12 {fill:#61913D;fill-rule:nonzero}
    .fil5 {fill:#794721;fill-rule:nonzero}
    .fil8 {fill:#7BA525;fill-rule:nonzero}
    .fil9 {fill:#9BBE23;fill-rule:nonzero}
    .fil13 {fill:#9BC04E;fill-rule:nonzero}
    .fil3 {fill:#AAB7B7;fill-rule:nonzero}
    .fil14 {fill:#BAD950;fill-rule:nonzero}
    .fil4 {fill:#BDC3C7;fill-rule:nonzero}
    .fil10 {fill:#C3DE59;fill-rule:nonzero}
    .fil15 {fill:#E4F991;fill-rule:nonzero}
    .fil2 {fill:#EFF3F3;fill-rule:nonzero}
   ]]>
  </style>
 </defs>
 <g id="Layer_x0020_1">
  <metadata id="CorelCorpID_0Corel-Layer"></metadata>
  <g id="_2958163351008">
   <polygon class="fil0" points="9890,10883 19780,6867 19780,6696 0,6696 0,6867 "></polygon>
   <polygon class="fil1" points="9890,10711 19780,6696 9890,2680 0,6696 "></polygon>
   <polygon class="fil2" points="16182,5484 9948,3023 3774,5492 10008,7998 "></polygon>
   <polygon class="fil3" points="10008,8401 3774,5896 3774,5492 10008,7998 "></polygon>
   <polygon class="fil4" points="10008,8401 16182,5888 16182,5484 10008,7998 "></polygon>
   <polygon class="fil5" points="9986,7924 9986,4978 12980,2543 15974,2552 15974,5498 "></polygon>
   <polygon class="fil5" points="9986,7924 9986,4978 3998,2552 3998,5498 "></polygon>
   <polygon class="fil5 str0" points="13110,2541 9986,5082 3739,2551 6863,11 "></polygon>
   <polygon class="fil5 str0" points="13110,2541 16233,2551 9986,20 6863,11 "></polygon>
   <polygon class="fil3" points="13110,2541 16233,2551 15980,2729 13225,2721 10239,5149 9986,5082 "></polygon>
   <polygon class="fil2" points="5997,4203 4896,3755 4835,3793 5937,5422 5997,5384 "></polygon>
   <polygon class="fil4" points="5937,4242 4835,3793 4835,4974 5937,5422 "></polygon>
   <polygon class="fil6" points="4964,4921 4964,3952 5807,4295 5807,5264 "></polygon>
   <polygon class="fil4" points="4881,4200 4881,4293 5876,4698 5876,4605 "></polygon>
   <polygon class="fil4" points="4881,4539 4881,4632 5876,5037 5876,4944 "></polygon>
   <polygon class="fil4" points="5442,4097 5318,4046 5318,5099 5442,5150 "></polygon>
   <polygon class="fil2" points="8179,5092 7077,4643 7016,4681 8118,6311 8179,6273 "></polygon>
   <polygon class="fil4" points="8118,5130 7016,4681 7016,5862 8118,6311 "></polygon>
   <polygon class="fil6" points="7146,5809 7146,4840 7989,5183 7989,6152 "></polygon>
   <polygon class="fil4" points="7063,5088 7063,5181 8058,5586 8058,5493 "></polygon>
   <polygon class="fil4" points="7063,5427 7063,5521 8058,5926 8058,5832 "></polygon>
   <polygon class="fil4" points="7624,4986 7499,4935 7499,5987 7624,6038 "></polygon>
   <polygon class="fil2" points="14420,3933 15522,3484 15582,3522 14481,6168 14420,6130 "></polygon>
   <polygon class="fil4" points="14481,3971 15582,3522 15582,6137 14481,6586 "></polygon>
   <polygon class="fil6" points="15453,6188 15453,3681 14610,4024 14610,6531 "></polygon>
   <polygon class="fil2" points="11278,5212 12379,4763 12440,4801 11338,6431 11278,6393 "></polygon>
   <polygon class="fil4" points="11338,5250 12440,4801 12440,5982 11338,6431 "></polygon>
   <polygon class="fil6" points="12311,5929 12311,4960 11468,5303 11468,6272 "></polygon>
   <polygon class="fil4" points="12394,5208 12394,5301 11399,5707 11399,5613 "></polygon>
   <polygon class="fil4" points="12394,5547 12394,5641 11399,6046 11399,5952 "></polygon>
   <polygon class="fil4" points="11833,5106 11957,5055 11957,6107 11833,6158 "></polygon>
   <polygon class="fil2" points="12796,4597 13898,4148 13959,4186 12857,5816 12796,5777 "></polygon>
   <polygon class="fil4" points="12857,4635 13959,4186 13959,5367 12857,5816 "></polygon>
   <polygon class="fil6" points="13829,5314 13829,4345 12986,4688 12986,5657 "></polygon>
   <polygon class="fil4" points="13912,4593 13912,4686 12918,5091 12918,4998 "></polygon>
   <polygon class="fil4" points="13912,4932 13912,5025 12918,5431 12918,5337 "></polygon>
   <polygon class="fil4" points="13351,4490 13476,4440 13476,5492 13351,5543 "></polygon>
   <polygon class="fil2" points="12453,3575 13555,3126 13615,3165 12514,4165 12453,4127 "></polygon>
   <polygon class="fil4" points="12514,3613 13615,3165 13615,3717 12514,4165 "></polygon>
   <polygon class="fil6" points="13486,3664 13486,3323 12643,3666 12643,4007 "></polygon>
   <polygon class="fil4" points="13008,3469 13133,3418 13133,3842 13008,3892 "></polygon>
   <path class="fil5" d="M2053 3302c171,0 309,49 309,110 0,47 0,3289 0,3336 0,16 -10,31 -27,45l0 -8c-25,20 -67,37 -119,48l0 8c-47,10 -103,16 -163,16 -171,0 -309,-49 -309,-110 0,-47 0,-3289 0,-3336 0,-61 138,-110 309,-110z"></path>
   <path class="fil7" d="M2055 1948c1073,0 1500,591 1500,885l0 1503c0,294 -368,885 -1500,885 -1073,0 -1500,-592 -1500,-885l0 -1503c0,-294 368,-885 1500,-885z"></path>
   <path class="fil8" d="M803 2519c33,283 588,486 1239,453 651,-32 1151,-287 1118,-570 -33,-283 -588,-486 -1239,-453 -651,32 -1151,287 -1118,570z"></path>
   <path class="fil9" d="M1088 2288c33,119 360,174 732,123 372,-51 646,-190 614,-309 -33,-119 -360,-175 -732,-123 -372,51 -646,190 -614,309z"></path>
   <path class="fil10" d="M1410 2132c12,45 137,66 277,47 141,-19 245,-72 233,-117 -12,-45 -137,-66 -277,-47 -141,19 -245,72 -233,117z"></path>
   <path class="fil11" d="M2055 4795c979,0 1395,-235 1496,-404 -42,307 -431,831 -1496,831 -1015,0 -1452,-529 -1496,-835 108,169 559,408 1496,408z"></path>
   <path class="fil5" d="M1314 4684c35,0 70,-3 103,-7l0 680c0,36 41,65 92,65l390 0c48,0 87,-27 90,-60 111,40 234,61 358,63 -44,147 -228,257 -449,257l-390 0c-253,0 -459,-145 -459,-324l0 -696c84,15 173,23 264,23z"></path>
   <path class="fil5" d="M2967 4514c-35,0 -70,-3 -103,-7l0 680c0,36 -41,65 -92,65l-390 0c-48,0 -87,-27 -90,-60 -111,40 -234,61 -358,63 44,147 228,257 449,257l390 0c253,0 459,-145 459,-324l0 -696c-84,15 -173,23 -264,23z"></path>
   <path class="fil12" d="M1205 3608c628,0 878,346 878,518l0 879c0,172 -216,518 -878,518 -628,0 -878,-346 -878,-518l0 -879c0,-172 216,-518 878,-518z"></path>
   <path class="fil13" d="M472 3942c20,165 344,284 725,265 381,-19 674,-168 654,-334 -20,-165 -344,-284 -725,-265 -381,19 -674,168 -654,333z"></path>
   <path class="fil14" d="M639 3807c19,70 211,102 428,72 217,-30 378,-111 359,-181 -19,-70 -211,-102 -428,-72 -217,30 -378,111 -359,181z"></path>
   <path class="fil15" d="M828 3715c7,26 80,39 162,27 82,-11 143,-42 136,-69 -7,-26 -80,-39 -162,-27 -82,11 -143,42 -136,69z"></path>
   <path class="fil16" d="M1205 5274c573,0 816,-137 876,-236 -25,179 -252,486 -876,486 -594,0 -850,-310 -876,-489 63,99 327,239 876,239z"></path>
   <path class="fil12" d="M3087 3720c517,0 723,285 723,426l0 724c0,142 -178,426 -723,426 -517,0 -723,-285 -723,-426l0 -724c0,-142 177,-426 723,-426z"></path>
   <path class="fil13" d="M2483 3995c16,136 283,234 597,218 313,-16 555,-138 538,-274 -16,-136 -283,-234 -597,-218 -313,16 -555,138 -538,275z"></path>
   <path class="fil14" d="M2621 3884c16,58 174,84 353,59 179,-25 311,-91 296,-149 -16,-57 -174,-84 -353,-59 -179,25 -311,91 -296,149z"></path>
   <path class="fil15" d="M2776 3809c6,22 66,32 134,22 68,-9 118,-35 112,-56 -6,-22 -66,-32 -134,-22 -68,9 -118,35 -112,56z"></path>
   <path class="fil16" d="M3087 5092c472,0 672,-113 721,-195 -20,148 -207,400 -721,400 -489,0 -699,-255 -721,-402 52,82 269,197 721,197z"></path>
   <path class="fil5" d="M8849 6525c146,0 264,42 264,94 0,40 0,2811 0,2850 0,14 -8,27 -23,39l0 -7c-22,17 -57,31 -102,41l0 7c-40,9 -88,14 -139,14 -146,0 -264,-42 -264,-94 0,-40 0,-2810 0,-2850 0,-52 118,-94 264,-94z"></path>
   <path class="fil7" d="M8850 5368c917,0 1282,505 1282,756l0 1284c0,251 -315,756 -1282,756 -917,0 -1282,-505 -1282,-756l0 -1284c0,-251 315,-756 1282,-756z"></path>
   <path class="fil8" d="M7780 5856c29,242 502,415 1058,387 556,-28 984,-245 955,-487 -29,-241 -502,-415 -1058,-387 -556,28 -984,245 -955,487z"></path>
   <path class="fil9" d="M8024 5658c28,102 308,149 625,105 318,-44 552,-162 524,-264 -28,-102 -308,-149 -625,-105 -317,44 -552,162 -524,264z"></path>
   <path class="fil10" d="M8299 5525c11,39 117,57 237,40 120,-17 209,-61 199,-100 -11,-39 -117,-57 -237,-40 -120,17 -209,61 -199,100z"></path>
   <path class="fil11" d="M8850 7801c837,0 1192,-201 1279,-345 -36,262 -368,710 -1279,710 -868,0 -1241,-452 -1278,-714 92,145 478,349 1278,349z"></path>
   <path class="fil5" d="M8217 7706c30,0 60,-2 88,-6l0 581c0,31 35,55 78,55l333 0c41,0 74,-23 77,-51 95,34 200,53 306,54 -38,125 -195,220 -383,220l-333 0c-216,0 -392,-124 -392,-277l0 -595c72,13 148,20 225,20z"></path>
   <path class="fil12" d="M8124 6787c537,0 750,296 750,443l0 751c0,147 -184,443 -750,443 -537,0 -750,-296 -750,-443l0 -751c0,-147 184,-443 750,-443z"></path>
   <path class="fil13" d="M7498 7072c17,141 294,243 619,227 325,-16 576,-144 559,-285 -17,-141 -294,-243 -620,-227 -325,16 -576,144 -559,285z"></path>
   <path class="fil14" d="M7640 6956c16,60 180,87 366,62 186,-26 323,-95 307,-155 -16,-60 -180,-87 -366,-62 -186,26 -323,95 -307,154z"></path>
   <path class="fil15" d="M7801 6878c6,23 68,33 139,23 70,-10 123,-36 116,-58 -6,-23 -68,-33 -139,-23 -70,10 -123,36 -116,59z"></path>
   <path class="fil16" d="M8124 8210c490,0 697,-118 748,-202 -21,153 -215,415 -748,415 -508,0 -726,-265 -748,-418 54,85 280,204 748,204z"></path>
   <path class="fil5" d="M18517 3693c146,0 264,42 264,94 0,40 0,2811 0,2850 0,14 -8,27 -23,39l0 -7c-22,17 -57,31 -102,41l0 7c-40,9 -88,14 -139,14 -146,0 -264,-42 -264,-94 0,-40 0,-2811 0,-2850 0,-52 118,-94 264,-94z"></path>
   <path class="fil7" d="M18519 2537c917,0 1282,505 1282,756l0 1284c0,251 -315,757 -1282,757 -917,0 -1282,-505 -1282,-757l0 -1284c0,-251 315,-756 1282,-756z"></path>
   <path class="fil8" d="M17449 3024c29,241 502,415 1058,387 556,-27 984,-245 955,-487 -29,-241 -502,-415 -1059,-387 -556,27 -984,245 -955,487z"></path>
   <path class="fil9" d="M17693 2827c28,102 308,149 625,105 318,-44 552,-162 524,-264 -28,-102 -308,-149 -625,-105 -318,44 -552,162 -524,264z"></path>
   <path class="fil10" d="M17968 2693c11,39 117,57 237,40 120,-17 209,-61 199,-100 -11,-39 -117,-57 -237,-40 -120,17 -209,61 -199,100z"></path>
   <path class="fil11" d="M18519 4969c837,0 1192,-201 1279,-345 -36,262 -368,710 -1279,710 -868,0 -1241,-452 -1278,-714 92,145 478,349 1278,349z"></path>
   <path class="fil12" d="M3918 6976c-447,0 -794,-160 -794,-272 0,-153 0,-361 0,-361 0,-155 195,-468 794,-468 568,0 794,313 794,468 0,0 0,253 0,366 0,109 -330,267 -794,267z"></path>
   <path class="fil13" d="M3255 6176c18,149 311,257 655,240 344,-17 609,-152 591,-301 -18,-149 -311,-257 -655,-240 -344,17 -609,152 -591,301z"></path>
   <path class="fil14" d="M3406 6054c17,63 191,92 387,65 196,-27 342,-100 325,-163 -17,-63 -191,-92 -387,-65 -197,27 -342,100 -325,163z"></path>
   <path class="fil15" d="M3577 5972c7,24 72,35 147,25 74,-10 129,-38 123,-62 -7,-24 -72,-35 -147,-25 -74,10 -130,38 -123,62z"></path>
   <path class="fil7" d="M5297 7620c-593,0 -1053,-212 -1053,-361 0,-203 0,-480 0,-480 0,-206 259,-621 1053,-621 753,0 1053,415 1053,621 0,0 0,336 0,486 0,145 -438,355 -1053,355z"></path>
   <path class="fil8" d="M4417 6558c23,198 413,341 870,318 457,-23 808,-202 785,-400 -23,-198 -413,-341 -869,-318 -457,23 -808,202 -785,400z"></path>
   <path class="fil9" d="M4618 6396c23,84 253,122 514,86 261,-36 454,-133 431,-217 -23,-84 -253,-122 -514,-86 -261,36 -454,133 -431,217z"></path>
   <path class="fil10" d="M4844 6287c9,32 96,46 195,33 99,-14 172,-50 163,-82 -9,-32 -96,-46 -195,-33 -99,14 -172,50 -163,82z"></path>
   <path class="fil12" d="M6508 7906c-401,0 -712,-143 -712,-244 0,-137 0,-324 0,-324 0,-139 175,-420 712,-420 509,0 712,281 712,420 0,0 0,227 0,328 0,98 -296,240 -712,240z"></path>
   <path class="fil13" d="M5913 7189c16,134 279,230 588,215 309,-15 546,-136 530,-270 -16,-134 -279,-230 -588,-215 -309,15 -546,136 -530,270z"></path>
   <path class="fil14" d="M6049 7079c16,57 171,83 347,58 176,-24 307,-90 291,-147 -15,-57 -171,-83 -347,-58 -176,24 -307,90 -291,147z"></path>
   <path class="fil15" d="M6202 7005c6,21 65,31 132,22 67,-9 116,-34 110,-56 -6,-21 -65,-31 -132,-22 -67,9 -116,34 -110,56z"></path>
   <path class="fil7" d="M12258 8577c-594,0 -1053,-212 -1053,-361 0,-203 0,-480 0,-480 0,-206 259,-621 1053,-621 753,0 1053,415 1053,621 0,0 0,336 0,486 0,145 -438,355 -1053,355z"></path>
   <path class="fil8" d="M11378 7515c24,198 413,341 870,318 457,-23 808,-202 785,-400 -23,-198 -413,-341 -869,-318 -457,23 -808,202 -785,400z"></path>
   <path class="fil9" d="M11579 7353c23,84 253,122 514,86 261,-36 454,-133 431,-217 -23,-84 -253,-122 -514,-86 -261,36 -454,133 -431,217z"></path>
   <path class="fil10" d="M11805 7243c9,32 96,46 195,33 99,-14 172,-50 163,-82 -9,-32 -96,-46 -195,-33 -99,14 -172,50 -163,82z"></path>
   <path class="fil12" d="M10837 9021c-401,0 -712,-143 -712,-244 0,-137 0,-324 0,-324 0,-139 175,-420 712,-420 509,0 712,281 712,420 0,0 0,227 0,328 0,98 -296,240 -712,240z"></path>
   <path class="fil13" d="M10242 8304c16,134 279,230 588,215 309,-15 546,-136 530,-270 -16,-134 -279,-230 -588,-215 -309,15 -546,136 -530,270z"></path>
   <path class="fil14" d="M10378 8194c16,57 171,83 347,58 176,-24 307,-90 291,-147 -16,-57 -171,-83 -347,-58 -176,24 -307,90 -291,147z"></path>
   <path class="fil15" d="M10530 8120c6,21 65,31 132,22 67,-9 116,-34 110,-56 -6,-21 -65,-31 -132,-22 -67,9 -116,34 -110,56z"></path>
  </g>
 </g>
</svg>
