<?xml version="1.0" encoding="UTF-8"?>
<!-- Creator: CorelDRAW 2020 (64-Bit) -->
<svg xmlns="http://www.w3.org/2000/svg" xmlns:xlink="http://www.w3.org/1999/xlink" xmlns:xodm="http://www.corel.com/coreldraw/odm/2003" xml:space="preserve" width="181.681mm" height="133.202mm" version="1.1" style="shape-rendering:geometricPrecision; text-rendering:geometricPrecision; image-rendering:optimizeQuality; fill-rule:evenodd; clip-rule:evenodd" viewBox="0 0 21101 15470">
 <defs>
  <style type="text/css">
   <![CDATA[
    .fil0 {fill:#794721;fill-rule:nonzero}
   ]]>
  </style>
 </defs>
 <g id="Layer_x0020_1">
  <metadata id="CorelCorpID_0Corel-Layer"></metadata>
  <g id="_1481916506080">
   <path class="fil0" d="M8984 14098c-89,-842 521,-1596 1363,-1685 842,-89 1596,521 1685,1363 89,842 -521,1596 -1363,1685 -842,89 -1596,-522 -1685,-1363z"></path>
   <path class="fil0" d="M7903 3725l5295 0 0 3307 -5295 0 0 -3307zm1013 -2936l3269 0 0 524 -3269 0 0 -524zm-8521 13754c218,0 395,-177 395,-395l0 -5345c0,-2397 1538,-4347 3428,-4347l2896 0 0 1846 -2896 0c-921,0 -1669,886 -1669,1975l0 5871c0,218 177,395 395,395 218,0 395,-177 395,-395l0 -5871c0,-643 403,-1185 880,-1185l2896 0 0 336c0,218 177,395 395,395l6084 0c218,0 395,-177 395,-395l0 -336 2897 0c476,0 879,543 879,1185l0 5871c0,218 177,395 394,395 218,0 395,-177 395,-395l0 -5871c0,-1089 -749,-1975 -1669,-1975l-2897 0 0 -1846 2897 0c1890,0 3427,1950 3427,4347l0 5345c0,218 177,395 395,395 218,0 395,-177 395,-395l0 -5345c0,-2832 -1892,-5137 -4217,-5137l-2897 0 0 -336c0,-218 -177,-395 -395,-395l-2648 0 0 -833 1635 0c218,0 395,-177 395,-395l0 -1313c0,-218 -177,-395 -395,-395l-4058 0c-218,0 -395,177 -395,395l0 1313c0,218 177,395 395,395l1633 0 0 833 -2647 0c-218,0 -395,177 -395,395l0 336 -2896 0c-2326,0 -4217,2304 -4217,5137l0 5345c0,218 177,395 395,395z"></path>
  </g>
 </g>
</svg>
