<?xml version="1.0" encoding="UTF-8"?>
<!-- Creator: CorelDRAW 2020 (64-Bit) -->
<svg xmlns="http://www.w3.org/2000/svg" xmlns:xlink="http://www.w3.org/1999/xlink" xmlns:xodm="http://www.corel.com/coreldraw/odm/2003" xml:space="preserve" width="193.003mm" height="158.907mm" version="1.1" style="shape-rendering:geometricPrecision; text-rendering:geometricPrecision; image-rendering:optimizeQuality; fill-rule:evenodd; clip-rule:evenodd" viewBox="0 0 24327 20029">
 <defs>
  <style type="text/css">
   <![CDATA[
    .str0 {stroke:#794721;stroke-width:25;stroke-miterlimit:22.9256}
    .fil1 {fill:#FEFEFE;fill-rule:nonzero}
    .fil0 {fill:#FEFEFE;fill-rule:nonzero}
    .fil3 {fill:#EDE3F1;fill-rule:nonzero}
    .fil5 {fill:#E0E0E0;fill-rule:nonzero}
    .fil6 {fill:#CFC4D2;fill-rule:nonzero}
    .fil8 {fill:#BEB7C5;fill-rule:nonzero}
    .fil9 {fill:#AD9FB8;fill-rule:nonzero}
    .fil10 {fill:#735691;fill-rule:nonzero}
    .fil4 {fill:#4D3477;fill-rule:nonzero}
    .fil7 {fill:#433167;fill-rule:nonzero}
    .fil2 {fill:#794721;fill-rule:nonzero}
   ]]>
  </style>
 </defs>
 <g id="Layer_x0020_1">
  <metadata id="CorelCorpID_0Corel-Layer"></metadata>
  <g id="_1481822534768">
   <path class="fil0 str0" d="M18265 19926c-137,0 -248,-84 -248,-188l0 -318 -3981 0c-167,0 -302,-102 -302,-228l0 -28 -270 -74c-78,-21 -137,-68 -165,-125l-3191 -18c-90,-2 -90,-103 0,-105l3191 -18c27,-57 86,-103 165,-125l270 -74 0 -28c0,-126 135,-228 302,-228l3981 0 0 -318c0,-104 111,-187 248,-187 137,0 248,84 248,187l0 545 1106 0 0 -238c0,-72 78,-131 174,-131 96,0 174,59 174,131l0 1073c0,72 -78,131 -174,131 -96,0 -174,-59 -174,-131l0 -238 -1106 0 0 545c0,104 -111,188 -248,188z"></path>
   <path class="fil1 str0" d="M13266 19038l-3351 -19c-90,-2 -90,-103 0,-105l3351 -19 0 144z"></path>
   <path class="fil2 str0" d="M13241 18914l-3326 19c-31,1 -43,19 -43,34 0,15 11,33 43,34l3326 19 0 -106zm50 144l-3376 -20c-61,-1 -92,-37 -92,-71 0,-34 31,-70 92,-71l3377 -20 0 181z"></path>
   <path class="fil0 str0" d="M13799 18626l0 681 -529 -145c-109,-30 -182,-108 -182,-196 0,-88 73,-166 182,-196l529 -145z"></path>
   <path class="fil2 str0" d="M13774 18653l-496 136c-99,27 -165,99 -165,178 0,79 66,151 165,178l496 136 0 -627zm50 681l-562 -154c-118,-32 -198,-118 -198,-213 0,-95 80,-181 198,-213l562 -154 0 735z"></path>
   <path class="fil0 str0" d="M18191 18668l1394 0c8,93 13,194 13,298 0,105 -5,205 -13,298l-1394 0 0 -597z"></path>
   <path class="fil2 str0" d="M18216 19246l1345 0c7,-91 11,-185 11,-280 0,-95 -4,-189 -11,-280l-1345 0 0 559zm1392 38l-1442 0 0 -634 1442 0 1 18c9,97 13,198 13,300 0,101 -4,202 -13,300l-1 18z"></path>
   <path class="fil1 str0" d="M18017 18441l0 1051 -4175 0c-167,0 -302,-102 -302,-228l0 -595c0,-126 135,-228 302,-228l4175 0z"></path>
   <path class="fil2 str0" d="M13841 18460c-153,0 -277,94 -277,209l0 595c0,115 124,209 277,209l4150 0 0 -1013 -4150 0zm4200 1051l-4200 0c-180,0 -327,-111 -327,-247l0 -595c0,-136 147,-247 327,-247l4200 0 0 1088z"></path>
   <path class="fil1 str0" d="M17822 18123l0 1687c0,104 111,188 248,188 137,0 248,-84 248,-188l0 -1687c0,-104 -111,-188 -248,-188 -137,0 -248,84 -248,188z"></path>
   <path class="fil2 str0" d="M18070 17954c-123,0 -224,76 -224,169l0 1687c0,93 100,169 224,169 123,0 223,-76 223,-169l0 -1687c0,-93 -100,-169 -223,-169zm0 2062c-151,0 -273,-93 -273,-206l0 -1687c0,-114 123,-206 273,-206 151,0 273,92 273,206l0 1687c0,114 -123,206 -273,206z"></path>
   <path class="fil1 str0" d="M19424 18430l0 1073c0,72 78,131 174,131 96,0 174,-59 174,-131l0 -1073c0,-72 -78,-131 -174,-131 -96,0 -174,59 -174,131z"></path>
   <path class="fil2 str0" d="M19598 18318c-82,0 -149,50 -149,112l0 1073c0,62 67,112 149,112 82,0 149,-50 149,-112l0 -1073c0,-62 -67,-112 -149,-112zm0 1336c-109,0 -199,-67 -199,-150l0 -1073c0,-83 89,-150 199,-150 109,0 199,67 199,150l0 1073c0,83 -89,150 -199,150z"></path>
   <path class="fil2 str0" d="M14056 19197l0 295 -94 0 0 -295c0,-20 21,-36 47,-36 26,0 47,16 47,36z"></path>
   <path class="fil2 str0" d="M14388 19197l0 295 -94 0 0 -295c0,-20 21,-36 47,-36 26,0 47,16 47,36z"></path>
   <path class="fil2 str0" d="M14720 19002l0 490 -94 0 0 -490c0,-20 21,-36 47,-36 26,0 47,16 47,36z"></path>
   <path class="fil2 str0" d="M15051 19197l0 295 -94 0 0 -295c0,-20 21,-36 47,-36 26,0 47,16 47,36z"></path>
   <path class="fil2 str0" d="M15383 19197l0 295 -94 0 0 -295c0,-20 21,-36 47,-36 26,0 47,16 47,36z"></path>
   <path class="fil2 str0" d="M15715 19002l0 490 -94 0 0 -490c0,-20 21,-36 47,-36 26,0 47,16 47,36z"></path>
   <path class="fil2 str0" d="M16047 19197l0 295 -94 0 0 -295c0,-20 21,-36 47,-36 26,0 47,16 47,36z"></path>
   <path class="fil2 str0" d="M16379 19197l0 295 -94 0 0 -295c0,-20 21,-36 47,-36 26,0 47,16 47,36z"></path>
   <path class="fil2 str0" d="M16711 19002l0 490 -94 0 0 -490c0,-20 21,-36 47,-36 26,0 47,16 47,36z"></path>
   <path class="fil2 str0" d="M17042 19197l0 295 -94 0 0 -295c0,-20 21,-36 47,-36 26,0 47,16 47,36z"></path>
   <path class="fil2 str0" d="M17374 19197l0 295 -95 0 0 -295c0,-20 21,-36 47,-36 26,0 47,16 47,36z"></path>
   <polygon class="fil1 str0" points="882,17374 8584,17374 8584,13353 882,13353 "></polygon>
   <path class="fil2 str0" d="M931 17337l7603 0 0 -3946 -7603 0 0 3946zm7702 75l-7801 0 0 -4096 7801 0 0 4096z"></path>
   <polygon class="fil0 str0" points="8584,17374 15737,17374 15737,11846 8584,11846 "></polygon>
   <path class="fil2 str0" d="M8627 17342l7067 0 0 -5463 -7067 0 0 5463zm7153 65l-7240 0 0 -5594 7240 0 0 5594z"></path>
   <polygon class="fil1 str0" points="10644,17374 13596,17374 13596,15095 10644,15095 "></polygon>
   <polygon class="fil0 str0" points="13596,17374 13892,17374 13892,15089 13596,15089 "></polygon>
   <path class="fil2 str0" d="M13631 17348l226 0 0 -2233 -226 0 0 2233zm295 52l-365 0 0 -2338 365 0 0 2338z"></path>
   <polygon class="fil0 str0" points="10349,17374 10644,17374 10644,15089 10349,15089 "></polygon>
   <path class="fil2 str0" d="M10384 17348l226 0 0 -2233 -226 0 0 2233zm295 52l-365 0 0 -2338 365 0 0 2338z"></path>
   <polygon class="fil1 str0" points="15737,17374 23439,17374 23439,13353 15737,13353 "></polygon>
   <path class="fil2 str0" d="M15787 17337l7603 0 0 -3946 -7603 0 0 3946zm7702 75l-7801 0 0 -4096 7801 0 0 4096z"></path>
   <polygon class="fil1 str0" points="11297,15594 11297,17366 13024,17366 13024,15594 "></polygon>
   <path class="fil2 str0" d="M11347 17329l1628 0 0 -1697 -1628 0 0 1697zm1727 75l-1826 0 0 -1847 1826 0 0 1847z"></path>
   <polygon class="fil0 str0" points="11565,17374 12757,17374 12757,15802 11565,15802 "></polygon>
   <path class="fil2 str0" d="M11599 17348l1123 0 0 -1520 -1123 0 0 1520zm1192 52l-1261 0 0 -1625 1261 0 0 1625z"></path>
   <path class="fil0 str0" d="M15352 7006l-5552 0c-1171,0 -2120,-716 -2120,-1600l0 -1666c0,-181 62,-355 175,-507l0 0c445,-703 1574,-909 1972,-981 247,-53 503,-80 762,-80l12 0 0 -198c0,-37 40,-67 89,-67l0 -233c0,-787 845,-1425 1887,-1425 521,0 993,160 1334,417 342,258 553,614 553,1007l0 234c44,4 79,32 79,66l0 198 14 0c259,0 515,27 762,80 398,72 1534,279 1980,985 113,153 175,327 175,507l0 1662c0,884 -949,1600 -2120,1600zm-988 -5025c-63,0 -126,0 -189,0l0 190 189 0 0 -190zm-3310 -74c49,0 89,30 89,67l0 198 2855 0 0 -198c0,-33 31,-60 72,-66 66,-719 -683,-1309 -1495,-1315 -4,0 -9,0 -13,0 -817,0 -1579,591 -1514,1314l6 0zm-277 76l0 188 189 0 0 -183c-63,-2 -126,-3 -189,-5z"></path>
   <path class="fil3 str0" d="M10325 1747c63,2 126,3 189,5l0 183 -189 0 0 -188zm1799 -1390c812,6 1561,596 1495,1315 -41,6 -72,33 -72,66l0 198 -2855 0 0 -198c0,-37 -40,-67 -89,-67l-6 0c-66,-727 705,-1320 1527,-1314zm1600 1578l0 -190c63,0 126,0 189,0l0 190 -189 0zm3296 1573l0 0c0,-180 -62,-354 -174,-506l0 -1c-445,-704 -1576,-912 -1977,-985 -248,-53 -505,-81 -765,-81l-14 0 0 -198c0,-34 -35,-62 -79,-66l0 -234c0,-393 -211,-750 -553,-1007 -342,-258 -813,-417 -1334,-417 -1042,0 -1887,638 -1887,1425l0 233c-49,0 -89,30 -89,67l0 198 -12 0c-259,0 -515,27 -762,80l-3 1c-400,73 -1525,280 -1969,981l0 0c-113,153 -175,327 -175,507l0 1666c0,884 949,1600 2120,1600l5552 0c1171,0 2120,-716 2120,-1600l0 -1662z"></path>
   <path class="fil1 str0" d="M16968 3496l0 1649c0,877 -939,1588 -2097,1588l-5494 0c-1158,0 -2097,-711 -2097,-1588l0 -1653c0,-358 245,-691 648,-880l780 -365c218,-102 452,-180 696,-232 244,-53 498,-80 754,-80l3926 0c512,0 1014,108 1450,312l789 369c403,188 648,521 648,880z"></path>
   <path class="fil1 str0" d="M17019 3507l-9791 0 0 -4c23,-230 105,-398 175,-508 445,-703 1575,-909 1972,-981 311,-57 577,-75 761,-80l3967 0c184,6 450,24 761,80 398,72 1534,279 1980,985 69,109 151,277 175,507z"></path>
   <path class="fil2 str0" d="M7281 3470l9684 0c-22,-162 -78,-315 -165,-454 -437,-690 -1574,-897 -1947,-965 -246,-45 -499,-72 -752,-79l-3965 0c-251,8 -504,34 -750,79 -411,75 -1504,274 -1939,961 -89,140 -144,294 -166,458zm9791 75l-9894 0 0 -44c19,-187 79,-362 179,-521 455,-719 1622,-932 2005,-1001 253,-46 512,-73 771,-81l3969 0c261,8 520,35 773,81 385,70 1557,283 2013,1006 100,159 160,334 179,520l4 40z"></path>
   <path class="fil0 str0" d="M14629 4029l0 0c-243,0 -441,-149 -441,-333l0 -462 882 0 0 462c0,184 -197,333 -441,333z"></path>
   <path class="fil2 str0" d="M14252 3283l0 414c0,157 169,284 376,284 207,0 376,-127 376,-284l0 -414 -752 0zm376 795c-279,0 -505,-171 -505,-382l0 -511 1011 0 0 511c0,210 -227,382 -505,382z"></path>
   <path class="fil0 str0" d="M9633 4029l0 0c-243,0 -441,-149 -441,-333l0 -462 882 0 0 462c0,184 -197,333 -441,333z"></path>
   <path class="fil2 str0" d="M9256 3283l0 414c0,157 169,284 376,284 207,0 376,-127 376,-284l0 -414 -752 0zm376 795c-279,0 -505,-171 -505,-382l0 -511 1011 0 0 511c0,210 -227,382 -505,382z"></path>
   <path class="fil1 str0" d="M14011 1437l0 307c-134,0 -268,0 -402,0 126,-751 -646,-1382 -1486,-1388 -853,-6 -1651,633 -1516,1397 -124,-3 -247,-6 -371,-9l0 -307c0,-787 845,-1425 1887,-1425 521,0 993,159 1334,417 341,258 553,614 553,1007z"></path>
   <path class="fil0 str0" d="M10236 2095l0 0c-49,0 -89,-30 -89,-67l0 -291c0,-37 40,-67 89,-67 49,0 89,30 89,67l0 291c0,37 -40,67 -89,67z"></path>
   <path class="fil2 str0" d="M10236 1689c-35,0 -64,22 -64,48l0 291c0,27 29,48 64,48 35,0 64,-22 64,-48l0 -291c0,-27 -29,-48 -64,-48zm0 425c-63,0 -113,-38 -113,-86l0 -291c0,-47 51,-86 113,-86 63,0 113,38 113,86l0 291c0,47 -51,86 -113,86z"></path>
   <path class="fil0 str0" d="M10602 2095l0 0c-49,0 -89,-30 -89,-67l0 -291c0,-37 40,-67 89,-67l0 0c49,0 89,30 89,67l0 291c0,37 -40,67 -89,67z"></path>
   <path class="fil2 str0" d="M10602 1689c-35,0 -64,22 -64,48l0 291c0,27 29,48 64,48 35,0 64,-22 64,-48l0 -291c0,-27 -29,-48 -64,-48zm0 425c-62,0 -113,-38 -113,-86l0 -291c0,-47 51,-86 113,-86 63,0 113,38 113,86l0 291c0,47 -51,86 -113,86z"></path>
   <path class="fil0 str0" d="M13635 2095l0 0c-49,0 -89,-30 -89,-67l0 -291c0,-37 40,-67 89,-67 49,0 89,30 89,67l0 291c0,37 -40,67 -89,67z"></path>
   <path class="fil2 str0" d="M13635 1689c-35,0 -64,22 -64,48l0 291c0,27 29,48 64,48 35,0 64,-22 64,-48l0 -291c0,-27 -29,-48 -64,-48zm0 425c-63,0 -113,-38 -113,-86l0 -291c0,-47 51,-86 113,-86 63,0 113,38 113,86l0 291c0,47 -51,86 -113,86z"></path>
   <path class="fil0 str0" d="M14001 2095l0 0c-49,0 -89,-30 -89,-67l0 -291c0,-37 40,-67 89,-67 49,0 89,30 89,67l0 291c0,37 -40,67 -89,67z"></path>
   <path class="fil2 str0" d="M14001 1689c-35,0 -64,22 -64,48l0 291c0,27 29,48 64,48 35,0 64,-22 64,-48l0 -291c0,-27 -29,-48 -64,-48zm0 425c-63,0 -113,-38 -113,-86l0 -291c0,-47 51,-86 113,-86 62,0 113,38 113,86l0 291c0,47 -51,86 -113,86z"></path>
   <path class="fil0 str0" d="M13367 5232c0,-518 -557,-939 -1243,-939 -687,0 -1243,420 -1243,939 0,518 557,939 1243,939 687,0 1243,-420 1243,-939z"></path>
   <path class="fil2 str0" d="M12123 4330c-658,0 -1194,404 -1194,901 0,497 535,901 1194,901 658,0 1194,-404 1194,-901 0,-497 -535,-901 -1194,-901zm0 1877c-713,0 -1293,-438 -1293,-976 0,-538 580,-976 1293,-976 713,0 1293,438 1293,976 0,538 -580,976 -1293,976z"></path>
   <polygon class="fil1 str0" points="12912,5042 12375,5042 12375,4637 11872,4637 11872,5042 11335,5042 11335,5421 11872,5421 11872,5827 12375,5827 12375,5421 12912,5421 "></polygon>
   <path class="fil2 str0" d="M11922 5789l404 0 0 -405 537 0 0 -305 -537 0 0 -405 -404 0 0 405 -537 0 0 305 537 0 0 405zm503 75l-602 0 0 -405 -537 0 0 -454 537 0 0 -405 602 0 0 405 537 0 0 454 -537 0 0 405z"></path>
   <path class="fil0 str0" d="M4081 8223l-2011 0c-216,0 -391,131 -391,293l0 4228c0,162 175,294 391,294l2011 0c216,0 391,-131 391,-294l0 -4228c0,-162 -175,-293 -391,-293z"></path>
   <path class="fil2 str0" d="M2070 8261c-188,0 -341,115 -341,256l0 4228c0,141 153,256 341,256l2011 0c188,0 341,-115 341,-256l0 -4228c0,-141 -153,-256 -341,-256l-2011 0zm2011 4815l-2011 0c-243,0 -441,-149 -441,-331l0 -4228c0,-183 198,-331 441,-331l2011 0c243,0 441,149 441,331l0 4228c0,183 -198,331 -441,331z"></path>
   <path class="fil1 str0" d="M4836 7957l0 486c0,111 -84,208 -207,255 -53,20 -112,32 -175,32l-2756 0c-63,0 -122,-12 -175,-32 -123,-48 -207,-144 -207,-255l0 -486c0,-51 18,-99 49,-140 65,-87 190,-146 333,-146l2756 0c143,0 267,59 333,146 31,42 49,90 49,140z"></path>
   <path class="fil2 str0" d="M1698 7699c-124,0 -239,50 -299,131 -29,38 -44,82 -44,126l0 486c0,97 71,185 186,229 49,19 102,28 157,28l2756 0c55,0 108,-10 157,-29 115,-44 186,-132 186,-229l0 -486c0,-44 -15,-88 -44,-126 -61,-81 -176,-131 -299,-131l-2756 0zm2756 1059l-2756 0c-67,0 -132,-12 -192,-35 -141,-54 -228,-162 -228,-281l0 -486c0,-54 19,-108 54,-155 75,-99 215,-161 366,-161l2756 0c151,0 292,62 366,161 35,47 54,101 54,155l0 486c0,119 -87,227 -228,281 -60,23 -125,35 -192,35z"></path>
   <path class="fil0 str0" d="M1656 8584l-4 0c-38,0 -70,-24 -70,-53l0 -654c0,-29 32,-53 70,-53l4 0c38,0 70,24 70,53l0 654c0,29 -32,53 -70,53z"></path>
   <path class="fil4 str0" d="M1656 7839c-32,0 -55,17 -55,38l0 654c0,21 23,38 51,38l4 0c28,0 51,-17 51,-38l0 -654c0,-21 -23,-38 -51,-38zm0 759l-4 0c-49,0 -89,-30 -89,-67l0 -654c0,-37 40,-67 89,-67 53,0 93,30 93,67l0 654c0,37 -40,67 -89,67z"></path>
   <path class="fil0 str0" d="M1919 8584l-4 0c-38,0 -70,-24 -70,-53l0 -654c0,-29 31,-53 70,-53l4 0c38,0 70,24 70,53l0 654c0,29 -32,53 -70,53z"></path>
   <path class="fil4 str0" d="M1919 7839c-32,0 -55,17 -55,38l0 654c0,21 23,38 51,38l4 0c28,0 51,-17 51,-38l0 -654c0,-21 -23,-38 -51,-38zm0 759l-4 0c-49,0 -89,-30 -89,-67l0 -654c0,-37 40,-67 89,-67 53,0 93,30 93,67l0 654c0,37 -40,67 -89,67z"></path>
   <path class="fil0 str0" d="M2182 8584l-4 0c-39,0 -70,-24 -70,-53l0 -654c0,-29 31,-53 70,-53l4 0c38,0 70,24 70,53l0 654c0,29 -32,53 -70,53z"></path>
   <path class="fil0 str0" d="M2182 7839c-32,0 -55,17 -55,38l0 654c0,21 23,38 51,38l4 0c28,0 51,-17 51,-38l0 -654c0,-21 -23,-38 -51,-38zm0 759l-4 0c-49,0 -89,-30 -89,-67l0 -654c0,-37 40,-67 89,-67 53,0 93,30 93,67l0 654c0,37 -40,67 -89,67z"></path>
   <path class="fil0 str0" d="M2445 8584l-4 0c-38,0 -70,-24 -70,-53l0 -654c0,-29 31,-53 70,-53l4 0c39,0 70,24 70,53l0 654c0,29 -31,53 -70,53z"></path>
   <path class="fil4 str0" d="M2445 7839c-32,0 -55,17 -55,38l0 654c0,21 23,38 51,38l4 0c28,0 51,-17 51,-38l0 -654c0,-21 -23,-38 -51,-38zm0 759l-4 0c-49,0 -89,-30 -89,-67l0 -654c0,-37 40,-67 89,-67 53,0 93,30 93,67l0 654c0,37 -40,67 -89,67z"></path>
   <path class="fil0 str0" d="M2708 8584l-4 0c-38,0 -70,-24 -70,-53l0 -654c0,-29 31,-53 70,-53l4 0c38,0 70,24 70,53l0 654c0,29 -31,53 -70,53z"></path>
   <path class="fil4 str0" d="M2708 7839c-32,0 -55,17 -55,38l0 654c0,21 23,38 51,38l4 0c28,0 51,-17 51,-38l0 -654c0,-21 -23,-38 -51,-38zm0 759l-4 0c-49,0 -89,-30 -89,-67l0 -654c0,-37 40,-67 89,-67 53,0 93,30 93,67l0 654c0,37 -40,67 -89,67z"></path>
   <path class="fil0 str0" d="M2971 8584l-4 0c-38,0 -70,-24 -70,-53l0 -654c0,-29 31,-53 70,-53l4 0c38,0 70,24 70,53l0 654c0,29 -32,53 -70,53z"></path>
   <path class="fil4 str0" d="M2971 7839c-32,0 -55,17 -55,38l0 654c0,21 23,38 51,38l4 0c28,0 51,-17 51,-38l0 -654c0,-21 -23,-38 -51,-38zm0 759l-4 0c-49,0 -89,-30 -89,-67l0 -654c0,-37 40,-67 89,-67 53,0 93,30 93,67l0 654c0,37 -40,67 -89,67z"></path>
   <path class="fil0 str0" d="M3234 8584l-4 0c-38,0 -70,-24 -70,-53l0 -654c0,-29 31,-53 70,-53l4 0c38,0 70,24 70,53l0 654c0,29 -32,53 -70,53z"></path>
   <path class="fil0 str0" d="M3234 7839c-32,0 -55,17 -55,38l0 654c0,21 23,38 51,38l4 0c28,0 51,-17 51,-38l0 -654c0,-21 -23,-38 -51,-38zm0 759l-4 0c-49,0 -89,-30 -89,-67l0 -654c0,-37 40,-67 89,-67 53,0 93,30 93,67l0 654c0,37 -40,67 -89,67z"></path>
   <path class="fil0 str0" d="M3497 8584l-4 0c-39,0 -70,-24 -70,-53l0 -654c0,-29 31,-53 70,-53l4 0c38,0 70,24 70,53l0 654c0,29 -31,53 -70,53z"></path>
   <path class="fil4 str0" d="M3497 7839c-32,0 -55,17 -55,38l0 654c0,21 23,38 51,38l4 0c28,0 51,-17 51,-38l0 -654c0,-21 -23,-38 -51,-38zm0 759l-4 0c-49,0 -89,-30 -89,-67l0 -654c0,-37 40,-67 89,-67 53,0 93,30 93,67l0 654c0,37 -40,67 -89,67z"></path>
   <path class="fil0 str0" d="M3761 8584l-4 0c-38,0 -70,-24 -70,-53l0 -654c0,-29 31,-53 70,-53l4 0c39,0 70,24 70,53l0 654c0,29 -31,53 -70,53z"></path>
   <path class="fil4 str0" d="M3761 7839c-32,0 -55,17 -55,38l0 654c0,21 23,38 51,38l4 0c28,0 51,-17 51,-38l0 -654c0,-21 -23,-38 -51,-38zm0 759l-4 0c-49,0 -89,-30 -89,-67l0 -654c0,-37 40,-67 89,-67 53,0 93,30 93,67l0 654c0,37 -40,67 -89,67z"></path>
   <path class="fil0 str0" d="M4024 8584l-4 0c-38,0 -70,-24 -70,-53l0 -654c0,-29 31,-53 70,-53l4 0c38,0 70,24 70,53l0 654c0,29 -31,53 -70,53z"></path>
   <path class="fil4 str0" d="M4024 7839c-32,0 -55,17 -55,38l0 654c0,21 23,38 51,38l4 0c28,0 51,-17 51,-38l0 -654c0,-21 -23,-38 -51,-38zm0 759l-4 0c-49,0 -89,-30 -89,-67l0 -654c0,-37 40,-67 89,-67 53,0 93,30 93,67l0 654c0,37 -40,67 -89,67z"></path>
   <path class="fil0 str0" d="M4287 8584l-4 0c-38,0 -70,-24 -70,-53l0 -654c0,-29 31,-53 70,-53l4 0c38,0 70,24 70,53l0 654c0,29 -32,53 -70,53z"></path>
   <path class="fil4 str0" d="M4287 7839c-32,0 -55,17 -55,38l0 654c0,21 23,38 51,38l4 0c28,0 51,-17 51,-38l0 -654c0,-21 -23,-38 -51,-38zm0 759l-4 0c-49,0 -89,-30 -89,-67l0 -654c0,-37 40,-67 89,-67 53,0 93,30 93,67l0 654c0,37 -40,67 -89,67z"></path>
   <path class="fil0 str0" d="M4550 8584l-4 0c-38,0 -70,-24 -70,-53l0 -654c0,-29 31,-53 70,-53l4 0c38,0 70,24 70,53l0 654c0,29 -31,53 -70,53z"></path>
   <path class="fil4 str0" d="M4550 7839c-32,0 -55,17 -55,38l0 654c0,21 23,38 51,38l4 0c28,0 51,-17 51,-38l0 -654c0,-21 -23,-38 -51,-38zm0 759l-4 0c-49,0 -89,-30 -89,-67l0 -654c0,-37 40,-67 89,-67 53,0 93,30 93,67l0 654c0,37 -40,67 -89,67z"></path>
   <path class="fil0 str0" d="M4273 13104l-3549 0c-377,0 -686,-232 -686,-515 0,-105 42,-203 115,-284 57,-92 148,-169 262,-222 -90,87 -144,196 -144,314 0,283 309,515 686,515l732 0c77,98 219,165 381,165l2011 0c162,0 305,-66 381,-165l43 0c200,0 381,-65 507,-169 95,32 197,48 301,48l0 0c83,0 164,-10 240,-29 -5,2 -9,4 -14,5 -118,64 -260,99 -407,99 -85,0 -171,-12 -253,-37 -115,163 -344,275 -606,275zm-2644 -1358l-17 -6c-172,-58 -298,-163 -361,-286 -63,-123 -64,-264 13,-394 31,-53 73,-99 122,-140 -42,72 -63,148 -63,225 0,68 17,137 51,203 52,102 141,189 255,252l0 145z"></path>
   <path class="fil0 str0" d="M4081 13001l-2011 0c-103,0 -196,-34 -258,-89l2527 0c-63,54 -155,89 -258,89zm-1649 -1119l-394 0 -309 -103 0 -132c13,5 25,9 39,14l664 221z"></path>
   <path class="fil2 str0" d="M4081 13077l-2011 0c-162,0 -305,-66 -381,-165l123 0c63,54 155,89 258,89l2011 0c103,0 196,-34 258,-89l123 0c-77,98 -219,165 -381,165zm-2352 -1298l-101 -34 0 -145c32,17 65,33 101,47l0 132z"></path>
   <path class="fil5 str0" d="M5986 12478c5,-7 9,-14 13,-21 81,-136 86,-289 14,-429 -72,-141 -212,-252 -395,-313l-1096 -366 0 -36 1184 395c345,115 501,421 348,680 -19,32 -42,63 -69,91z"></path>
   <path class="fil6 str0" d="M4422 11316l-2046 -683c-85,-28 -175,-44 -267,-48 26,-2 52,-3 78,-3 93,0 187,14 277,44l1958 653 0 36z"></path>
   <polygon class="fil7 str0" points="4523,11349 4422,11316 4422,11279 4523,11313 "></polygon>
   <path class="fil1 str0" d="M1794 11617l3243 1082c345,115 752,-3 905,-261 153,-259 -4,-565 -348,-680l-3243 -1082c-345,-115 -752,3 -905,261 -77,129 -76,271 -13,394 63,123 188,228 361,286z"></path>
   <path class="fil2 str0" d="M2074 10680c-247,0 -472,109 -571,277 -67,114 -71,240 -11,357 60,117 176,209 328,260l3243 1082c80,27 164,40 251,40 247,0 472,-109 571,-277 67,-113 71,-240 12,-356 -60,-117 -176,-210 -328,-261l-3243 -1082c-80,-27 -164,-40 -251,-40zm3239 2111l0 0c-105,0 -206,-16 -302,-48l-3243 -1082c-182,-61 -322,-172 -394,-312 -72,-141 -67,-293 14,-430 120,-203 389,-334 686,-334 105,0 206,16 302,48l3243 1082c183,61 323,172 395,313 72,140 66,293 -14,429 -120,203 -389,334 -686,334z"></path>
   <path class="fil0 str0" d="M1794 11617l1621 541 557 -941 -1621 -541c-345,-115 -752,3 -905,261 -77,129 -76,271 -13,394 63,123 188,228 361,286z"></path>
   <path class="fil2 str0" d="M2074 10680c-247,0 -472,109 -571,277 -67,114 -71,240 -11,357 60,117 176,209 328,260l1564 522 506 -855 -1564 -522c-80,-27 -164,-40 -251,-40zm1373 1541l-1679 -560c-182,-61 -322,-172 -394,-312 -72,-141 -67,-293 14,-430 120,-203 389,-334 686,-334 105,0 206,16 302,48l1679 560 -609 1028z"></path>
   <path class="fil5 str0" d="M414 12083c126,-122 322,-200 542,-200l672 0 0 123 -854 0c-132,0 -256,28 -361,78z"></path>
   <polygon class="fil6 str0" points="2406,12005 1730,12005 1730,11882 2038,11882 "></polygon>
   <polygon class="fil7 str0" points="1629,12005 1730,12005 1730,11882 1629,11882 "></polygon>
   <path class="fil8 str0" d="M4505 12912l-43 0c38,-49 60,-106 60,-167l0 -165 488 163c0,0 1,0 1,0 -126,104 -307,169 -507,169zm-2816 0l-732 0c-377,0 -686,-232 -686,-515 0,-118 54,-227 144,-314 105,-49 229,-78 361,-78l854 0 0 740c0,61 22,118 60,167z"></path>
   <path class="fil9 str0" d="M4340 12912l-2527 0c-52,-45 -83,-103 -83,-167l0 -740 677 0 -368 -123 394 0 1015 339 975 325 0 199c0,64 -31,122 -83,167z"></path>
   <path class="fil7 str0" d="M4463 12912l-123 0c52,-45 83,-103 83,-167l0 -199 101 34 0 165c0,61 -22,118 -60,167zm-2650 0l-123 0c-38,-49 -60,-106 -60,-167l0 -740 101 0 0 740c0,64 31,122 83,167z"></path>
   <path class="fil5 str0" d="M5091 12665c-10,-3 -19,-6 -29,-9l-1564 -522 149 -252 858 0c189,0 360,58 484,151 124,93 202,222 202,364 0,98 -37,190 -101,268z"></path>
   <path class="fil7 str0" d="M5012 12743c0,0 -1,0 -1,0l-488 -163 -101 -34 -975 -325 51 -87 1564 522c10,3 19,6 29,9 -23,28 -49,54 -78,78z"></path>
   <polygon class="fil10 str0" points="3383,12096 2743,11882 3510,11882 "></polygon>
   <polygon class="fil7 str0" points="3447,12221 2432,11882 2743,11882 3383,12096 3510,11882 3647,11882 3498,12134 "></polygon>
   <path class="fil1 str0" d="M4454 11951l-3549 0c-377,0 -686,232 -686,515 0,283 309,515 686,515l3549 0c377,0 686,-232 686,-515 0,-142 -77,-270 -202,-364 -124,-93 -296,-151 -484,-151z"></path>
   <path class="fil2 str0" d="M905 11999c-344,0 -623,210 -623,468 0,258 280,467 623,467l3549 0c344,0 623,-210 623,-467 0,-124 -65,-241 -183,-330 -118,-89 -274,-137 -440,-137l-3549 0zm3549 1030l-3549 0c-413,0 -749,-252 -749,-562 0,-310 336,-562 749,-562l3549 0c199,0 387,59 529,165 142,106 220,248 220,397 0,310 -336,562 -749,562z"></path>
   <path class="fil0 str0" d="M4454 11951l-1774 0 0 1030 1774 0c377,0 686,-232 686,-515 0,-142 -77,-270 -202,-364 -124,-93 -296,-151 -484,-151z"></path>
   <path class="fil2 str0" d="M2742 12934l1712 0c344,0 623,-210 623,-467 0,-124 -65,-241 -183,-330 -118,-89 -274,-137 -440,-137l-1712 0 0 935zm1712 95l-1837 0 0 -1125 1837 0c199,0 387,59 529,165 142,106 220,248 220,397 0,310 -336,562 -749,562z"></path>
   <path class="fil5 str0" d="M19532 13132c-395,0 -716,-241 -719,-539l-41 -4230c-3,-290 306,-526 690,-528l2480 -14c2,0 3,0 5,0 381,0 692,232 695,521l41 4249c3,290 -306,526 -690,528l-2456 14c-2,0 -4,0 -5,0z"></path>
   <path class="fil1 str0" d="M22054 12965l-2519 14c-354,2 -642,-213 -645,-480l-41 -4234c-3,-267 282,-485 636,-487l2519 -14c354,-2 642,213 645,480l41 4234c3,267 -282,485 -636,487z"></path>
   <path class="fil2 str0" d="M22008 7843l-2523 14c-143,1 -278,44 -378,121 -101,77 -155,179 -154,287l41 4234c2,222 243,402 536,402l0 78 4 -78 2519 -14c296,-2 535,-185 533,-408l-41 -4234c-2,-222 -243,-402 -536,-402zm-2478 5215c-407,0 -741,-250 -744,-558l-41 -4234c-1,-150 75,-292 214,-398 140,-107 326,-166 525,-167l2519 -14c413,0 747,250 750,558l41 4234c3,310 -328,564 -739,566l-2524 14z"></path>
   <path class="fil0 str0" d="M20770 12670l0 0c-70,0 -127,-42 -128,-95l-43 -4372c0,-53 56,-96 126,-96 70,0 127,42 128,95l43 4372c1,53 -56,96 -126,96z"></path>
   <path class="fil2 str0" d="M20727 8132c-51,0 -92,32 -92,70l43 4372c0,38 42,69 92,69l0 26 1 -26c25,0 48,-8 65,-21 17,-13 27,-31 26,-49l-43 -4372c0,-38 -42,-69 -92,-69zm43 4564c-88,0 -161,-54 -161,-121l-43 -4372c-1,-67 71,-122 160,-123 89,0 162,54 162,121l43 4372c0,32 -16,63 -46,86 -30,23 -71,36 -114,36l-1 0z"></path>
   <path class="fil0 str0" d="M20159 8434c2,182 -192,330 -433,332 -188,1 -349,-88 -412,-214 -18,-35 -27,-73 -28,-113 -2,-182 192,-330 433,-332 95,-1 183,22 255,60 111,59 183,156 184,267z"></path>
   <path class="fil2 str0" d="M19723 8133c-110,1 -211,33 -286,90 -75,58 -116,134 -116,215 0,36 9,71 26,104 58,118 210,197 376,197l0 26 3 -26c107,-1 208,-33 283,-90 75,-58 116,-134 116,-215 -1,-97 -64,-189 -170,-245 -68,-36 -148,-56 -232,-56zm0 659c-195,0 -372,-93 -441,-231 -19,-39 -29,-80 -30,-122 -1,-95 47,-185 136,-252 88,-68 206,-105 332,-106l0 0c102,0 196,23 275,65 123,66 198,173 199,288 1,95 -47,184 -135,252 -88,68 -206,105 -332,106l-4 0z"></path>
   <path class="fil0 str0" d="M22228 8422c2,182 -192,330 -433,332 -188,1 -349,-88 -412,-214 -18,-35 -27,-73 -28,-113 -2,-182 192,-330 433,-332 95,0 183,22 255,60 111,59 183,156 184,267z"></path>
   <path class="fil2 str0" d="M21792 8121c-110,1 -211,33 -286,90 -75,58 -116,134 -115,215 0,36 9,71 25,104 58,118 210,197 376,197l0 26 3 -26c221,-1 400,-138 399,-305 -1,-97 -64,-189 -170,-245 -68,-36 -148,-56 -232,-56zm0 659c-195,0 -372,-93 -441,-231 -19,-39 -30,-80 -30,-122 -1,-95 47,-185 135,-252 88,-68 206,-105 332,-106l0 0c102,0 196,23 275,65 124,66 198,173 199,288 2,196 -208,357 -467,358l-4 0z"></path>
   <path class="fil0 str0" d="M20169 9404c-2,-182 -199,-328 -439,-327 -241,1 -435,150 -433,332 2,182 199,328 439,327 241,-1 435,-150 433,-332z"></path>
   <path class="fil2 str0" d="M19733 9104c-224,1 -403,138 -402,305 2,166 182,301 402,301l0 26 3 -26c221,-1 400,-138 399,-305 -2,-166 -182,-301 -402,-301zm0 659c-258,0 -469,-158 -471,-353 -2,-196 208,-357 467,-358 261,0 472,158 474,353 2,196 -208,357 -467,358l-4 0z"></path>
   <path class="fil0 str0" d="M22237 9393c-2,-182 -199,-328 -439,-327 -241,1 -435,150 -433,332 2,182 199,328 439,327 241,-1 435,-150 433,-332z"></path>
   <path class="fil2 str0" d="M21801 9092c-110,1 -211,33 -286,90 -75,58 -116,134 -116,215 2,166 182,301 402,301l0 26 3 -26c222,-1 400,-138 399,-305 -2,-166 -182,-301 -402,-301zm0 659c-258,0 -469,-158 -471,-353 -1,-95 47,-185 136,-252 88,-68 206,-105 332,-106 261,0 472,158 474,353 2,196 -208,357 -467,358l-4 0z"></path>
   <path class="fil0 str0" d="M20178 10375c-2,-182 -199,-328 -439,-327 -241,1 -435,150 -433,332 2,182 198,328 439,327 241,-1 435,-150 433,-332z"></path>
   <path class="fil2 str0" d="M19742 10074c-224,1 -403,138 -402,305 2,166 182,301 402,301l0 26 3 -26c221,-1 400,-138 399,-305 -2,-166 -182,-301 -402,-301zm0 659c-258,0 -469,-158 -471,-353 -2,-196 208,-357 467,-358 261,0 472,158 474,353 2,196 -208,357 -467,358l-4 0z"></path>
   <path class="fil0 str0" d="M22247 10363c-2,-182 -198,-328 -439,-327 -241,1 -435,150 -433,332 2,182 199,328 439,327 241,-1 435,-150 433,-332z"></path>
   <path class="fil2 str0" d="M21811 10063c-224,1 -403,138 -402,305 2,166 182,301 402,301l0 26 3 -26c221,-1 400,-138 399,-305 -2,-166 -182,-301 -402,-301zm0 659c-258,0 -469,-158 -471,-353 -2,-196 208,-357 467,-358 261,0 472,158 474,353 2,196 -208,357 -467,358l-4 0z"></path>
   <path class="fil0 str0" d="M20188 11345c-2,-182 -199,-328 -439,-327 -241,1 -435,150 -433,332 2,182 199,328 439,327 241,-1 435,-150 433,-332z"></path>
   <path class="fil2 str0" d="M19752 11045c-224,1 -403,138 -402,305 2,166 182,301 402,301l0 26 3 -26c221,-1 400,-138 399,-305 -2,-166 -182,-301 -402,-301zm0 659c-258,0 -469,-158 -471,-353 -2,-196 208,-357 467,-358 261,0 472,158 474,353 2,196 -208,357 -467,358l-4 0z"></path>
   <path class="fil0 str0" d="M22256 11334c-2,-182 -199,-328 -439,-327 -241,1 -435,150 -433,332 2,182 199,328 439,327 241,-1 435,-150 433,-332z"></path>
   <path class="fil2 str0" d="M21820 11033c-224,1 -403,138 -402,305 2,166 182,301 402,301l0 26 3 -26c221,-1 400,-138 399,-305 -2,-166 -182,-301 -402,-301zm0 659c-258,0 -469,-158 -471,-353 -2,-196 208,-357 467,-358 261,0 472,158 474,353 2,196 -208,357 -467,358l-4 0z"></path>
   <path class="fil0 str0" d="M20197 12316c-2,-182 -199,-328 -439,-327 -241,1 -435,150 -433,332 2,182 199,328 439,327 241,-1 435,-150 433,-332z"></path>
   <path class="fil2 str0" d="M19761 12015c-224,1 -403,138 -402,305 2,166 182,301 402,301l0 26 3 -26c221,-1 400,-138 399,-305 -2,-166 -182,-301 -401,-301zm0 659c-258,0 -469,-158 -471,-353 -2,-196 208,-357 467,-358 261,0 472,158 474,353 2,196 -208,357 -467,358l-3 0z"></path>
   <path class="fil0 str0" d="M22266 12305c-2,-182 -199,-328 -439,-327 -241,1 -435,150 -433,332 2,182 198,328 439,327 241,-1 435,-150 433,-332z"></path>
   <path class="fil2 str0" d="M21830 12004c-224,1 -403,138 -402,305 2,166 182,301 402,301l0 26 3 -26c221,-1 400,-138 399,-305 -2,-166 -182,-301 -402,-301zm0 659c-258,0 -469,-158 -471,-353 -2,-196 208,-357 467,-358 261,0 472,158 474,353 2,196 -208,357 -467,358l-4 0z"></path>
   <polygon class="fil1 str0" points="1786,14918 3446,14918 3446,14695 1786,14695 "></polygon>
   <path class="fil2 str0" d="M1836 14880l1561 0 0 -148 -1561 0 0 148zm1660 75l-1759 0 0 -298 1759 0 0 298z"></path>
   <polygon class="fil0 str0" points="2010,14695 3222,14695 3222,13717 2010,13717 "></polygon>
   <path class="fil2 str0" d="M2045 14669l1142 0 0 -926 -1142 0 0 926zm1211 52l-1281 0 0 -1030 1281 0 0 1030z"></path>
   <polygon class="fil1 str0" points="1786,16803 3446,16803 3446,16580 1786,16580 "></polygon>
   <path class="fil2 str0" d="M1836 16766l1561 0 0 -148 -1561 0 0 148zm1660 75l-1759 0 0 -298 1759 0 0 298z"></path>
   <polygon class="fil0 str0" points="2010,16580 3222,16580 3222,15602 2010,15602 "></polygon>
   <path class="fil2 str0" d="M2045 16554l1142 0 0 -926 -1142 0 0 926zm1211 52l-1281 0 0 -1030 1281 0 0 1030z"></path>
   <polygon class="fil1 str0" points="3903,14918 5563,14918 5563,14695 3903,14695 "></polygon>
   <path class="fil2 str0" d="M3952 14880l1561 0 0 -148 -1561 0 0 148zm1660 75l-1758 0 0 -298 1758 0 0 298z"></path>
   <polygon class="fil0 str0" points="4127,14695 5338,14695 5338,13717 4127,13717 "></polygon>
   <path class="fil2 str0" d="M4162 14669l1142 0 0 -926 -1142 0 0 926zm1211 52l-1281 0 0 -1030 1281 0 0 1030z"></path>
   <polygon class="fil1 str0" points="3903,16803 5563,16803 5563,16580 3903,16580 "></polygon>
   <path class="fil2 str0" d="M3952 16766l1561 0 0 -148 -1561 0 0 148zm1660 75l-1758 0 0 -298 1758 0 0 298z"></path>
   <polygon class="fil0 str0" points="4127,16580 5338,16580 5338,15602 4127,15602 "></polygon>
   <path class="fil2 str0" d="M4162 16554l1142 0 0 -926 -1142 0 0 926zm1211 52l-1281 0 0 -1030 1281 0 0 1030z"></path>
   <polygon class="fil1 str0" points="6020,14918 7679,14918 7679,14695 6020,14695 "></polygon>
   <path class="fil2 str0" d="M6069 14880l1561 0 0 -148 -1561 0 0 148zm1660 75l-1758 0 0 -298 1758 0 0 298z"></path>
   <polygon class="fil0 str0" points="6244,14695 7455,14695 7455,13717 6244,13717 "></polygon>
   <path class="fil2 str0" d="M6278 14669l1142 0 0 -926 -1142 0 0 926zm1211 52l-1281 0 0 -1030 1281 0 0 1030z"></path>
   <polygon class="fil1 str0" points="6020,16803 7679,16803 7679,16580 6020,16580 "></polygon>
   <path class="fil2 str0" d="M6069 16766l1561 0 0 -148 -1561 0 0 148zm1660 75l-1758 0 0 -298 1758 0 0 298z"></path>
   <polygon class="fil0 str0" points="6244,16580 7455,16580 7455,15602 6244,15602 "></polygon>
   <path class="fil2 str0" d="M6278 16554l1142 0 0 -926 -1142 0 0 926zm1211 52l-1281 0 0 -1030 1281 0 0 1030z"></path>
   <polygon class="fil1 str0" points="6257,13158 17983,13158 17983,7118 6257,7118 "></polygon>
   <path class="fil2 str0" d="M6307 13120l11627 0 0 -5965 -11627 0 0 5965zm11726 75l-11825 0 0 -6115 11825 0 0 6115z"></path>
   <polygon class="fil0 str0" points="9899,15095 14422,15095 14422,14885 9899,14885 "></polygon>
   <path class="fil2 str0" d="M9933 15069l4455 0 0 -158 -4455 0 0 158zm4524 52l-4593 0 0 -263 4593 0 0 263z"></path>
   <polygon class="fil1 str0" points="7686,11846 16635,11846 16635,11622 7686,11622 "></polygon>
   <path class="fil2 str0" d="M7736 11808l8849 0 0 -148 -8849 0 0 148zm8948 75l-9047 0 0 -298 9047 0 0 298z"></path>
   <polygon class="fil1 str0" points="3923,7118 20318,7118 20318,6895 3923,6895 "></polygon>
   <path class="fil2 str0" d="M3972 7080l16296 0 0 -148 -16296 0 0 148zm16395 75l-16494 0 0 -298 16494 0 0 298z"></path>
   <polygon class="fil1 str0" points="6930,9034 8589,9034 8589,8811 6930,8811 "></polygon>
   <path class="fil2 str0" d="M6979 8997l1561 0 0 -148 -1561 0 0 148zm1660 75l-1759 0 0 -298 1759 0 0 298z"></path>
   <polygon class="fil0 str0" points="7154,8811 8365,8811 8365,7833 7154,7833 "></polygon>
   <path class="fil2 str0" d="M7189 8785l1142 0 0 -926 -1142 0 0 926zm1211 52l-1281 0 0 -1030 1281 0 0 1030z"></path>
   <polygon class="fil1 str0" points="9110,9034 10770,9034 10770,8811 9110,8811 "></polygon>
   <path class="fil2 str0" d="M9160 8997l1561 0 0 -148 -1561 0 0 148zm1660 75l-1759 0 0 -298 1759 0 0 298z"></path>
   <polygon class="fil0 str0" points="9334,8811 10546,8811 10546,7833 9334,7833 "></polygon>
   <path class="fil2 str0" d="M9369 8785l1142 0 0 -926 -1142 0 0 926zm1211 52l-1281 0 0 -1030 1281 0 0 1030z"></path>
   <polygon class="fil1 str0" points="11291,9034 12950,9034 12950,8811 11291,8811 "></polygon>
   <path class="fil2 str0" d="M11340 8997l1561 0 0 -148 -1561 0 0 148zm1660 75l-1759 0 0 -298 1759 0 0 298z"></path>
   <polygon class="fil0 str0" points="11515,8811 12726,8811 12726,7833 11515,7833 "></polygon>
   <path class="fil2 str0" d="M11549 8785l1142 0 0 -926 -1142 0 0 926zm1211 52l-1281 0 0 -1030 1281 0 0 1030z"></path>
   <polygon class="fil1 str0" points="13471,9034 15131,9034 15131,8811 13471,8811 "></polygon>
   <path class="fil2 str0" d="M13520 8997l1561 0 0 -148 -1561 0 0 148zm1660 75l-1758 0 0 -298 1758 0 0 298z"></path>
   <polygon class="fil0 str0" points="13695,8811 14906,8811 14906,7833 13695,7833 "></polygon>
   <path class="fil2 str0" d="M13730 8785l1142 0 0 -926 -1142 0 0 926zm1211 52l-1281 0 0 -1030 1281 0 0 1030z"></path>
   <polygon class="fil1 str0" points="15651,9034 17311,9034 17311,8811 15651,8811 "></polygon>
   <path class="fil2 str0" d="M15701 8997l1561 0 0 -148 -1561 0 0 148zm1660 75l-1758 0 0 -298 1758 0 0 298z"></path>
   <polygon class="fil0 str0" points="15876,8811 17087,8811 17087,7833 15876,7833 "></polygon>
   <path class="fil2 str0" d="M15910 8785l1142 0 0 -926 -1142 0 0 926zm1211 52l-1281 0 0 -1030 1281 0 0 1030z"></path>
   <polygon class="fil1 str0" points="6930,10973 8589,10973 8589,10750 6930,10750 "></polygon>
   <path class="fil2 str0" d="M6979 10935l1561 0 0 -148 -1561 0 0 148zm1660 75l-1759 0 0 -298 1759 0 0 298z"></path>
   <polygon class="fil0 str0" points="7154,10750 8365,10750 8365,9772 7154,9772 "></polygon>
   <path class="fil2 str0" d="M7189 10723l1142 0 0 -926 -1142 0 0 926zm1211 52l-1281 0 0 -1030 1281 0 0 1030z"></path>
   <polygon class="fil1 str0" points="9110,10973 10770,10973 10770,10750 9110,10750 "></polygon>
   <path class="fil2 str0" d="M9160 10935l1561 0 0 -148 -1561 0 0 148zm1660 75l-1759 0 0 -298 1759 0 0 298z"></path>
   <polygon class="fil0 str0" points="9334,10750 10546,10750 10546,9772 9334,9772 "></polygon>
   <path class="fil2 str0" d="M9369 10723l1142 0 0 -926 -1142 0 0 926zm1211 52l-1281 0 0 -1030 1281 0 0 1030z"></path>
   <polygon class="fil1 str0" points="11291,10973 12950,10973 12950,10750 11291,10750 "></polygon>
   <path class="fil2 str0" d="M11340 10935l1561 0 0 -148 -1561 0 0 148zm1660 75l-1759 0 0 -298 1759 0 0 298z"></path>
   <polygon class="fil0 str0" points="11515,10750 12726,10750 12726,9772 11515,9772 "></polygon>
   <path class="fil2 str0" d="M11549 10723l1142 0 0 -926 -1142 0 0 926zm1211 52l-1281 0 0 -1030 1281 0 0 1030z"></path>
   <polygon class="fil1 str0" points="13471,10973 15131,10973 15131,10750 13471,10750 "></polygon>
   <path class="fil2 str0" d="M13520 10935l1561 0 0 -148 -1561 0 0 148zm1660 75l-1758 0 0 -298 1758 0 0 298z"></path>
   <polygon class="fil0 str0" points="13695,10750 14906,10750 14906,9772 13695,9772 "></polygon>
   <path class="fil2 str0" d="M13730 10723l1142 0 0 -926 -1142 0 0 926zm1211 52l-1281 0 0 -1030 1281 0 0 1030z"></path>
   <polygon class="fil1 str0" points="9110,13617 10770,13617 10770,13394 9110,13394 "></polygon>
   <path class="fil2 str0" d="M9160 13580l1561 0 0 -148 -1561 0 0 148zm1660 75l-1759 0 0 -298 1759 0 0 298z"></path>
   <polygon class="fil0 str0" points="9334,13394 10546,13394 10546,12416 9334,12416 "></polygon>
   <path class="fil2 str0" d="M9369 13368l1142 0 0 -926 -1142 0 0 926zm1211 52l-1281 0 0 -1030 1281 0 0 1030z"></path>
   <polygon class="fil1 str0" points="11291,13617 12950,13617 12950,13394 11291,13394 "></polygon>
   <path class="fil2 str0" d="M11340 13580l1561 0 0 -148 -1561 0 0 148zm1660 75l-1759 0 0 -298 1759 0 0 298z"></path>
   <polygon class="fil0 str0" points="11515,13394 12726,13394 12726,12416 11515,12416 "></polygon>
   <path class="fil2 str0" d="M11549 13368l1142 0 0 -926 -1142 0 0 926zm1211 52l-1281 0 0 -1030 1281 0 0 1030z"></path>
   <polygon class="fil1 str0" points="13471,13617 15131,13617 15131,13394 13471,13394 "></polygon>
   <path class="fil2 str0" d="M13520 13580l1561 0 0 -148 -1561 0 0 148zm1660 75l-1758 0 0 -298 1758 0 0 298z"></path>
   <polygon class="fil0 str0" points="13695,13394 14906,13394 14906,12416 13695,12416 "></polygon>
   <path class="fil2 str0" d="M13730 13368l1142 0 0 -926 -1142 0 0 926zm1211 52l-1281 0 0 -1030 1281 0 0 1030z"></path>
   <polygon class="fil1 str0" points="15651,10973 17311,10973 17311,10750 15651,10750 "></polygon>
   <path class="fil2 str0" d="M15701 10935l1561 0 0 -148 -1561 0 0 148zm1660 75l-1758 0 0 -298 1758 0 0 298z"></path>
   <polygon class="fil0 str0" points="15876,10750 17087,10750 17087,9772 15876,9772 "></polygon>
   <path class="fil2 str0" d="M15910 10723l1142 0 0 -926 -1142 0 0 926zm1211 52l-1281 0 0 -1030 1281 0 0 1030z"></path>
   <polygon class="fil1 str0" points="16642,14918 18301,14918 18301,14695 16642,14695 "></polygon>
   <path class="fil2 str0" d="M16691 14880l1561 0 0 -148 -1561 0 0 148zm1660 75l-1759 0 0 -298 1759 0 0 298z"></path>
   <polygon class="fil0 str0" points="16866,14695 18077,14695 18077,13717 16866,13717 "></polygon>
   <path class="fil2 str0" d="M16901 14669l1142 0 0 -926 -1142 0 0 926zm1211 52l-1281 0 0 -1030 1281 0 0 1030z"></path>
   <polygon class="fil1 str0" points="16642,16803 18301,16803 18301,16580 16642,16580 "></polygon>
   <path class="fil2 str0" d="M16691 16766l1561 0 0 -148 -1561 0 0 148zm1660 75l-1759 0 0 -298 1759 0 0 298z"></path>
   <polygon class="fil0 str0" points="16866,16580 18077,16580 18077,15602 16866,15602 "></polygon>
   <path class="fil2 str0" d="M16901 16554l1142 0 0 -926 -1142 0 0 926zm1211 52l-1281 0 0 -1030 1281 0 0 1030z"></path>
   <polygon class="fil1 str0" points="18759,14918 20418,14918 20418,14695 18759,14695 "></polygon>
   <path class="fil2 str0" d="M18808 14880l1561 0 0 -148 -1561 0 0 148zm1660 75l-1759 0 0 -298 1759 0 0 298z"></path>
   <polygon class="fil0 str0" points="18983,14695 20194,14695 20194,13717 18983,13717 "></polygon>
   <path class="fil2 str0" d="M19017 14669l1142 0 0 -926 -1142 0 0 926zm1211 52l-1281 0 0 -1030 1281 0 0 1030z"></path>
   <polygon class="fil1 str0" points="18759,16803 20418,16803 20418,16580 18759,16580 "></polygon>
   <path class="fil2 str0" d="M18808 16766l1561 0 0 -148 -1561 0 0 148zm1660 75l-1759 0 0 -298 1759 0 0 298z"></path>
   <polygon class="fil0 str0" points="18983,16580 20194,16580 20194,15602 18983,15602 "></polygon>
   <path class="fil2 str0" d="M19017 16554l1142 0 0 -926 -1142 0 0 926zm1211 52l-1281 0 0 -1030 1281 0 0 1030z"></path>
   <polygon class="fil1 str0" points="20875,14918 22535,14918 22535,14695 20875,14695 "></polygon>
   <path class="fil2 str0" d="M20925 14880l1561 0 0 -148 -1561 0 0 148zm1660 75l-1759 0 0 -298 1759 0 0 298z"></path>
   <polygon class="fil0 str0" points="21099,14695 22311,14695 22311,13717 21099,13717 "></polygon>
   <path class="fil2 str0" d="M21134 14669l1142 0 0 -926 -1142 0 0 926zm1211 52l-1281 0 0 -1030 1281 0 0 1030z"></path>
   <polygon class="fil1 str0" points="20875,16803 22535,16803 22535,16580 20875,16580 "></polygon>
   <path class="fil2 str0" d="M20925 16766l1561 0 0 -148 -1561 0 0 148zm1660 75l-1759 0 0 -298 1759 0 0 298z"></path>
   <polygon class="fil0 str0" points="21099,16580 22311,16580 22311,15602 21099,15602 "></polygon>
   <path class="fil2 str0" d="M21134 16554l1142 0 0 -926 -1142 0 0 926zm1211 52l-1281 0 0 -1030 1281 0 0 1030z"></path>
   <polygon class="fil1 str0" points="15737,13381 24265,13381 24265,13158 15737,13158 "></polygon>
   <path class="fil2 str0" d="M15787 13343l8429 0 0 -148 -8429 0 0 148zm8527 75l-8626 0 0 -298 8626 0 0 298z"></path>
   <polygon class="fil1 str0" points="62,13381 8589,13381 8589,13158 62,13158 "></polygon>
   <path class="fil2 str0" d="M112 13343l8429 0 0 -148 -8429 0 0 148zm8527 75l-8626 0 0 -298 8626 0 0 298z"></path>
   <polygon class="fil1 str0" points="11725,14443 12500,14443 12500,14192 11725,14192 "></polygon>
   <path class="fil2 str0" d="M11774 14405l676 0 0 -176 -676 0 0 176zm775 75l-874 0 0 -325 874 0 0 325z"></path>
   <polygon class="fil1 str0" points="11946,14610 12279,14610 12279,14024 11946,14024 "></polygon>
   <path class="fil2 str0" d="M11996 14573l233 0 0 -511 -233 0 0 511zm332 75l-431 0 0 -660 431 0 0 660z"></path>
  </g>
 </g>
</svg>
