<?xml version="1.0" encoding="UTF-8"?>
<!-- Creator: CorelDRAW 2020 (64-Bit) -->
<svg xmlns="http://www.w3.org/2000/svg" xmlns:xlink="http://www.w3.org/1999/xlink" xmlns:xodm="http://www.corel.com/coreldraw/odm/2003" xml:space="preserve" width="167.188mm" height="130.062mm" version="1.1" style="shape-rendering:geometricPrecision; text-rendering:geometricPrecision; image-rendering:optimizeQuality; fill-rule:evenodd; clip-rule:evenodd" viewBox="0 0 15144 11781">
 <defs>
  <style type="text/css">
   <![CDATA[
    .fil0 {fill:#794721}
   ]]>
  </style>
 </defs>
 <g id="Layer_x0020_1">
  <metadata id="CorelCorpID_0Corel-Layer"></metadata>
  <g id="_1481947813328">
   <path class="fil0" d="M14493 11212l-4628 0c-157,0 -285,128 -285,285 0,157 127,285 285,285l4628 0c157,0 285,-128 285,-285 0,-157 -127,-285 -285,-285z"></path>
   <path class="fil0" d="M3112 11710c157,0 285,-128 285,-285 0,-157 -127,-285 -285,-285l-2827 0c-157,0 -285,128 -285,285 0,157 128,285 285,285l2827 0z"></path>
   <path class="fil0" d="M3942 11141c-157,0 -285,128 -285,285 0,157 127,285 285,285l318 0c157,0 285,-128 285,-285 0,-157 -127,-285 -285,-285l-318 0z"></path>
   <path class="fil0" d="M5091 11141c-157,0 -285,128 -285,285 0,157 128,285 285,285l2509 0c157,0 285,-128 285,-285 0,-157 -128,-285 -285,-285l-2509 0z"></path>
   <path class="fil0" d="M285 5449l1632 0 0 4330c0,157 128,285 285,285l7316 0c157,0 285,-128 285,-285l0 -1118c0,-157 -128,-285 -285,-285 -157,0 -285,127 -285,285l0 833 -2258 0 0 -316c0,-157 -127,-285 -285,-285 -157,0 -285,128 -285,285l0 316 -1092 0 0 -1968c0,-301 245,-546 546,-546 301,0 546,245 546,546 0,157 128,285 285,285 157,0 285,-128 285,-285 0,-615 -500,-1115 -1115,-1115 -615,0 -1115,500 -1115,1115l0 1968 -2258 0 0 -4045 3131 0c157,0 285,-127 285,-285 0,-157 -128,-285 -285,-285l-4575 0 4817 -4217 1277 1118c118,104 298,92 402,-27 104,-118 92,-298 -27,-402l-1465 -1282c-107,-94 -268,-94 -375,0l-5575 4880c-89,78 -121,203 -79,314 42,111 148,184 266,184z"></path>
   <path class="fil0" d="M6690 8027c-157,0 -285,128 -285,285l0 102c0,157 128,285 285,285 157,0 285,-128 285,-285l0 -102c0,-157 -127,-285 -285,-285z"></path>
   <path class="fil0" d="M9470 2168c715,0 1387,278 1892,784 1043,1043 1043,2741 0,3784 -505,505 -1177,784 -1892,784 -715,0 -1387,-278 -1892,-784 -505,-505 -784,-1177 -784,-1892 0,-715 278,-1387 784,-1892 506,-505 1178,-784 1892,-784zm5048 7447c76,76 76,200 0,277 -74,74 -203,74 -276,0l-2620 -2619c49,-43 96,-87 143,-134 47,-46 91,-94 134,-143l2620 2619zm-8293 -4771c0,867 338,1682 950,2295 613,613 1428,950 2295,950 605,0 1186,-165 1690,-474l2679 2679c144,145 337,224 541,224l0 0c204,0 396,-80 541,-224 299,-298 299,-783 0,-1082l-2680 -2680c761,-1249 603,-2905 -476,-3983 -613,-613 -1428,-951 -2295,-951 -867,0 -1682,337 -2295,951 -613,613 -950,1428 -950,2294z"></path>
   <path class="fil0" d="M10596 3716c55,56 129,84 202,84 73,0 146,-28 201,-83 111,-111 111,-291 0,-402 -22,-22 -44,-43 -67,-64 -116,-106 -296,-99 -402,17 -106,116 -99,296 17,402 16,15 33,31 49,47z"></path>
   <path class="fil0" d="M9016 3316c298,-88 613,-88 911,1 27,8 54,12 81,12 123,0 236,-80 273,-203 45,-151 -41,-309 -192,-354 -404,-120 -831,-121 -1234,-1 -151,44 -237,203 -192,354 44,151 203,237 354,192z"></path>
  </g>
 </g>
</svg>
