<?xml version="1.0" encoding="UTF-8"?>
<!-- Creator: CorelDRAW 2020 (64-Bit) -->
<svg xmlns="http://www.w3.org/2000/svg" xmlns:xlink="http://www.w3.org/1999/xlink" xmlns:xodm="http://www.corel.com/coreldraw/odm/2003" xml:space="preserve" width="106.977mm" height="106.332mm" version="1.1" style="shape-rendering:geometricPrecision; text-rendering:geometricPrecision; image-rendering:optimizeQuality; fill-rule:evenodd; clip-rule:evenodd" viewBox="0 0 10698 10633">
 <defs>
  <style type="text/css">
   <![CDATA[
    .fil0 {fill:#794721;fill-rule:nonzero}
   ]]>
  </style>
 </defs>
 <g id="Layer_x0020_1">
  <metadata id="CorelCorpID_0Corel-Layer"></metadata>
  <g id="_2281830132576">
   <g>
    <path class="fil0" d="M5550 2182l0 3935c0,39 -10,71 -29,103 16,29 29,64 29,103l0 4045c0,110 -90,200 -200,200 -110,0 -200,-90 -200,-200l0 -4045c0,-39 10,-71 29,-103 -16,-29 -29,-64 -29,-103l0 -3935c0,-110 90,-200 200,-200 110,0 200,90 200,200z"></path>
    <path class="fil0" d="M5350 1331c-110,0 -200,-90 -200,-200l0 -931c0,-110 90,-200 200,-200 110,0 200,90 200,200l0 931c0,110 -90,200 -200,200z"></path>
   </g>
   <rect class="fil0" x="5151" y="6350" width="400" height="696"></rect>
   <rect class="fil0" x="2746" y="6118" width="5209" height="696"></rect>
   <rect class="fil0" x="2746" y="6118" width="5209" height="406"></rect>
   <path class="fil0" d="M5444 667l-187 0c-1915,0 -3771,661 -5257,1869l0 0 10698 0 0 0c-1486,-1209 -3342,-1869 -5257,-1869l3 0z"></path>
   <g>
    <rect class="fil0" x="7642" y="8029" width="2366" height="902"></rect>
    <rect class="fil0" x="693" y="8029" width="2363" height="902"></rect>
   </g>
   <g>
    <rect class="fil0" x="493" y="8029" width="400" height="2604"></rect>
    <rect class="fil0" x="2856" y="8029" width="400" height="2604"></rect>
    <polygon class="fil0" points="3516,8229 232,8229 232,4222 632,4222 632,7826 3516,7826 "></polygon>
    <rect class="fil0" x="9805" y="8029" width="400" height="2604"></rect>
    <rect class="fil0" x="7442" y="8029" width="400" height="2604"></rect>
    <polygon class="fil0" points="10469,8229 7181,8229 7181,7826 10066,7826 10066,4222 10469,4222 "></polygon>
    <rect class="fil0" x="2147" y="5918" width="6404" height="400"></rect>
    <path class="fil0" d="M6269 10633l-1837 0 0 0c0,-222 181,-400 400,-400l1035 0c222,0 400,181 400,400l0 0 3 0z"></path>
   </g>
   <path class="fil0" d="M5550 2182l0 873 -400 0 0 -873c0,-110 90,-200 200,-200 110,0 200,90 200,200z"></path>
   <g>
    <path class="fil0" d="M7894 2537l0 0c-706,-1209 -1589,-1869 -2501,-1869l-90 0c-912,0 -1795,661 -2501,1869l0 0 5089 0 3 0zm0 0l0 0 0 0z"></path>
   </g>
   <g id="_2281830145152">
   </g>
   <g id="_2281830139728">
   </g>
   <g id="_2281830139632">
   </g>
   <g id="_2281830140832">
   </g>
   <g id="_2281830138384">
   </g>
   <g id="_2281830136128">
   </g>
   <g id="_2281830138336">
   </g>
   <g id="_2281830134784">
   </g>
   <g id="_2281830133824">
   </g>
   <g id="_2281830133200">
   </g>
   <g id="_2281830132384">
   </g>
   <g id="_2281830132288">
   </g>
   <g id="_2281830131568">
   </g>
   <g id="_2281830131904">
   </g>
   <g id="_2281830132144">
   </g>
  </g>
 </g>
</svg>
