<?xml version="1.0" encoding="UTF-8"?>
<!-- Creator: CorelDRAW 2020 (64-Bit) -->
<svg xmlns="http://www.w3.org/2000/svg" xmlns:xlink="http://www.w3.org/1999/xlink" xmlns:xodm="http://www.corel.com/coreldraw/odm/2003" xml:space="preserve" width="121.623mm" height="121.623mm" version="1.1" style="shape-rendering:geometricPrecision; text-rendering:geometricPrecision; image-rendering:optimizeQuality; fill-rule:evenodd; clip-rule:evenodd" viewBox="0 0 8368 8368">
 <defs>
  <style type="text/css">
   <![CDATA[
    .fil0 {fill:#794721;fill-rule:nonzero}
   ]]>
  </style>
 </defs>
 <g id="Layer_x0020_1">
  <metadata id="CorelCorpID_0Corel-Layer"></metadata>
  <path class="fil0" d="M4318 2079c286,0 517,-232 517,-517 0,-286 -232,-517 -517,-517 -286,0 -517,232 -517,517 0,286 232,517 517,517zm415 1881l457 396c116,98 280,95 366,-8 86,-103 62,-267 -54,-366l-769 -669c-35,-30 -63,-17 -63,29l0 483c0,46 28,107 63,136zm-1114 513l-1272 2115c-82,129 -44,299 84,381l11 7c128,82 301,46 385,-81l1238 -1974c25,-38 20,-95 -13,-127l-331 -331c-32,-32 -78,-27 -103,11zm871 -1924c50,58 83,172 83,248l0 1510 619 613c54,54 120,155 148,225l641 1639c56,142 -18,293 -163,338l-65 20c-146,45 -305,-35 -356,-179l-534 -1496c-15,-43 -54,-104 -87,-136l-973 -949c-55,-53 -96,-158 -93,-234l-5 -1152c3,-76 -46,-104 -110,-62l-394 224c-38,25 -73,82 -78,127l-99 919c-16,151 -147,263 -292,248 -145,-14 -247,-148 -229,-300l130 -1075c9,-76 69,-170 133,-211l988 -631c64,-41 176,-57 246,-29 194,78 360,189 490,341z"></path>
  <path class="fil0" d="M941 319c-343,0 -622,279 -622,622l0 6486c0,343 279,622 622,622l6486 0c343,0 622,-279 622,-622l0 -6486c0,-343 -279,-622 -622,-622l-6486 0zm-941 7185l0 -6640c0,-476 388,-864 864,-864l6640 0c476,0 864,388 864,864l0 6640c0,476 -388,864 -864,864l-6640 0c-476,0 -864,-388 -864,-864z"></path>
  <path class="fil0" d="M2240 6397l-598 0 -827 947 873 0 552 -947zm4440 947l873 0 -827 -947 -598 0 552 947zm-2795 -947l598 0 138 947 -873 0 138 -947z"></path>
 </g>
</svg>
