<?xml version="1.0" encoding="UTF-8"?>
<!-- Creator: CorelDRAW 2020 (64-Bit) -->
<svg xmlns="http://www.w3.org/2000/svg" xmlns:xlink="http://www.w3.org/1999/xlink" xmlns:xodm="http://www.corel.com/coreldraw/odm/2003" xml:space="preserve" width="63.5759mm" height="125.05mm" version="1.1" style="shape-rendering:geometricPrecision; text-rendering:geometricPrecision; image-rendering:optimizeQuality; fill-rule:evenodd; clip-rule:evenodd" viewBox="0 0 3503 6889">
 <defs>
  <style type="text/css">
   <![CDATA[
    .fil0 {fill:#794721;fill-rule:nonzero}
   ]]>
  </style>
 </defs>
 <g id="Layer_x0020_1">
  <metadata id="CorelCorpID_0Corel-Layer"></metadata>
  <path class="fil0" d="M2907 3760c384,-652 534,-1347 374,-1728l-21 -50 -54 6c-315,35 -703,319 -1040,744 9,70 17,141 22,214 311,-430 683,-739 977,-803 106,348 -47,969 -384,1543 -265,451 -611,816 -920,989 -57,93 -119,172 -187,234 395,-100 878,-545 1232,-1148z"></path>
  <path class="fil0" d="M3296 1355c-107,-137 -254,-237 -398,-335 -403,-273 -805,-547 -1208,-820 -194,-132 -440,-268 -649,-162 -176,90 -234,310 -257,506 -47,386 -33,781 -121,1160 -88,379 -303,758 -663,907 11,165 234,221 396,185 250,-55 463,-210 668,-362 35,-26 72,-54 85,-95 29,-89 -64,-166 -104,-251 -52,-106 -18,-236 41,-338 60,-102 144,-188 204,-289 120,-201 137,-460 44,-675 102,211 97,470 -15,676 -56,104 -137,193 -192,298 -55,104 -83,235 -27,339 33,61 95,118 113,180 4,-116 18,-236 90,-325 34,-42 78,-74 119,-109 197,-166 328,-406 365,-660l9 8c158,138 325,290 375,494 43,178 11,410 170,501 39,23 84,31 128,43 -105,253 -335,428 -589,520 -84,55 -162,115 -209,202 -48,89 -56,196 -82,293 -21,7 -42,16 -61,28 -24,14 -47,32 -74,37 -35,6 -70,-12 -96,-35 -26,-24 -45,-54 -67,-82 -69,-85 -170,-143 -278,-159 -108,-17 -197,-11 -313,69 0,0 -121,65 -168,140 -76,122 -117,199 -128,314 -4,42 -5,84 4,125 19,90 83,163 145,231 51,57 103,114 167,156 36,24 77,44 102,80 15,22 23,48 32,73 13,34 31,66 53,95 10,13 26,27 40,18 11,-6 11,-21 16,-33 14,-33 62,-31 93,-13 30,18 54,48 87,59 18,6 37,6 54,13 44,17 66,71 111,83 43,12 86,-20 108,-59 22,-38 30,-83 49,-123 5,-11 12,-22 19,-32 32,-106 158,-179 209,-109 55,77 44,167 15,262 -20,145 -56,362 -59,546 -4,292 -155,726 -201,829 -46,103 -226,128 -347,192 -121,64 -211,110 -246,131 -35,21 -37,63 -31,86 7,23 57,-15 83,5 26,20 91,-7 91,-7 0,0 478,-133 540,-186 62,-53 125,-186 165,-297 29,-78 179,-381 278,-591 -1,29 -2,58 -3,87 -5,399 -211,992 -274,1133 -63,141 -309,174 -474,262 -166,88 -288,151 -336,179 -48,29 -51,86 -42,118 9,32 77,-21 113,6 36,27 124,-10 124,-10 0,0 653,-181 737,-253 84,-72 170,-254 225,-405 55,-151 442,-913 494,-1068 52,-156 32,-304 43,-583 4,-116 15,-303 25,-483 7,-30 14,-60 23,-89 25,-89 59,-177 109,-254 205,-116 347,-330 390,-561 30,-46 59,-92 93,-135 51,-65 111,-123 148,-197 27,-53 40,-113 54,-171 45,-200 90,-406 59,-609 -7,-44 -18,-89 -35,-131 16,-204 -34,-411 -161,-573z"></path>
 </g>
</svg>
